<svg id="_Layer_" data-name="&lt;Layer&gt;" xmlns="http://www.w3.org/2000/svg" viewBox="0 0 2554.76 1442.7"><defs><style>.cls-1{fill:#ebf3fa;}.cls-2{fill:#8c9df4;}.cls-3{fill:#bdd1f9;}.cls-4{fill:#f77d48;}.cls-5{fill:#ffb93e;}.cls-6{fill:#ffa412;}.cls-7{fill:#739af0;}.cls-8{fill:#163560;}.cls-9{fill:#ed7d2b;}.cls-10{fill:#2e5a99;}.cls-11{fill:#18417c;}.cls-12{fill:#1c468a;}.cls-13{fill:#ffb27d;}.cls-14{fill:#f99746;}.cls-15{fill:#fca56b;}.cls-16{fill:#ffeddc;}.cls-17{fill:#db6a1d;}.cls-18{fill:#e5c1a1;}.cls-19{fill:#f9ddbf;}.cls-20,.cls-21{fill:#e2810e;}.cls-20{opacity:0.5;}.cls-22{opacity:0.7;}.cls-23{fill:#77a4e5;}.cls-24{fill:#9fc1f4;}.cls-25{fill:#36599e;}.cls-26{fill:#2b478b;}.cls-27{fill:#e8945b;}.cls-28{fill:#233862;}.cls-29{fill:#fff;}.cls-30{fill:#b5453c;}.cls-31{fill:#95c0f4;}.cls-32{fill:#b0d4ff;}.cls-33{fill:#ed975d;}.cls-34{fill:#6980e2;}.cls-35{fill:#2e3552;}</style></defs><path class="cls-1" d="M227,1597.4c.6-10.5-246.55-325.75,41.26-616.82,129.93-131.39,349.71-60.2,314.94-444-30-331.41,488.43-526.14,810.64-230.25C1602,497.48,1812.78,242.45,2143,387.15s112.78,538,248.3,575.05c267,73,399.53,394.24,186.7,631.63Z" transform="translate(-128.88 -160.72)"/><path class="cls-2" d="M1339.78,831.19c-1.4-2.89-2.94-5.82-4.58-8.71l4.64-2.64c1.7,3,3.3,6,4.76,9Zm-9.72-17.13c-1.77-2.71-3.66-5.44-5.62-8.11l4.31-3.17c2,2.75,4,5.57,5.79,8.36ZM798.89,873c-3.39.36-6.79.64-10.11.84l-.32-5.34c3.24-.19,6.56-.47,9.85-.82Zm10.05-1.33-.82-5.28c3.22-.5,6.5-1.08,9.75-1.74l1,5.25C815.59,870.58,812.24,871.18,808.94,871.69Zm-30.31,2.51c-3.4,0-6.82,0-10.16-.19l.25-5.35c3.24.15,6.56.22,9.87.19Zm50.18-6.48-1.27-5.2c3.17-.77,6.4-1.63,9.58-2.54l1.48,5.14C835.34,866.05,832.05,866.93,828.81,867.72Zm-70.47,5.53c-3.39-.34-6.78-.79-10.09-1.33l.86-5.28c3.21.53,6.49,1,9.77,1.3Zm89.93-11.11-1.67-5.08c3.1-1,6.26-2.12,9.37-3.27l1.85,5C854.65,860,851.43,861.1,848.27,862.14Zm19-7-2-4.95c3-1.24,6.1-2.56,9.13-3.91l2.19,4.88C873.45,852.55,870.33,853.89,867.24,855.15ZM738.26,870c-3.33-.75-6.64-1.62-9.86-2.57l1.52-5.12c3.1.91,6.31,1.75,9.52,2.48Zm580.12-71.83c-2.07-2.53-4.25-5-6.47-7.49l4-3.59c2.28,2.5,4.51,5.09,6.64,7.68ZM885.69,846.9l-2.33-4.81c2.94-1.43,5.93-2.93,8.87-4.47l2.48,4.73C891.72,843.92,888.68,845.45,885.69,846.9Zm-167,17.3c-3.2-1.18-6.37-2.48-9.44-3.86l2.2-4.88c3,1.34,6,2.59,9.09,3.73Zm184.86-26.65L901,832.89c2.86-1.6,5.76-3.28,8.61-5l2.74,4.59C909.43,834.23,906.49,835.93,903.59,837.55Zm401.49-54c-2.32-2.32-4.74-4.61-7.18-6.81l3.59-4c2.5,2.26,5,4.61,7.36,7ZM700.14,855.81c-3-1.61-5.95-3.36-8.8-5.18l2.89-4.5c2.73,1.75,5.58,3.42,8.45,5Zm220.79-28.58-2.86-4.52c2.77-1.75,5.58-3.57,8.35-5.42l3,4.45C926.58,823.61,923.73,825.46,920.93,827.23ZM937.71,816l-3.07-4.37c2.68-1.88,5.4-3.84,8.08-5.81l3.17,4.3C943.18,812.16,940.43,814.14,937.71,816ZM683,844.8c-2.72-2-5.39-4.22-7.92-6.46l3.53-4c2.44,2.15,5,4.23,7.6,6.2Zm607.44-74.54c-2.53-2.08-5.15-4.12-7.79-6.09l3.18-4.29c2.71,2,5.4,4.11,8,6.24ZM953.94,804.1l-3.26-4.24.79-.61q3.62-2.79,7.21-5.48l3.2,4.28q-3.55,2.66-7.14,5.43Zm320.58-45.63c-2.72-1.83-5.53-3.62-8.34-5.32l2.77-4.58c2.88,1.75,5.76,3.58,8.56,5.46ZM667.65,831.29c-2.36-2.44-4.65-5-6.81-7.63l4.13-3.4c2.06,2.51,4.26,5,6.52,7.31Zm302.27-39.14-3.12-4.34c2.73-2,5.5-3.92,8.23-5.8l3,4.4C975.36,788.27,972.62,790.21,969.92,792.15Zm287.68-43.92c-2.89-1.56-5.85-3.07-8.81-4.5l2.32-4.82c3,1.47,6.08,3,9,4.62Zm-271.28,32.6-2.94-4.46c2.82-1.86,5.67-3.7,8.47-5.46l2.85,4.52C991.93,777.18,989.11,779,986.32,780.83ZM654.66,815.52c-1.94-2.78-3.8-5.68-5.51-8.62l4.61-2.7c1.65,2.82,3.42,5.6,5.28,8.26Zm348.52-45.3-2.75-4.59c2.88-1.72,5.81-3.43,8.71-5.08l2.64,4.66C1008.92,766.83,1006,768.52,1003.18,770.22Zm236.6-30.57c-3-1.28-6.12-2.5-9.19-3.64l1.85-5c3.15,1.17,6.32,2.43,9.43,3.74ZM1020.5,760.4l-2.53-4.72c3-1.58,6-3.14,9-4.65l2.41,4.78C1026.39,757.29,1023.42,758.83,1020.5,760.4Zm200.73-27.59c-3.13-1-6.32-1.92-9.5-2.76l1.37-5.17c3.25.86,6.53,1.82,9.74,2.83Zm-183,18.65-2.27-4.84c3-1.43,6.14-2.83,9.19-4.17l2.14,4.91C1044.33,748.67,1041.28,750.05,1038.27,751.46ZM644.33,797.87c-1.47-3-2.84-6.2-4.08-9.37l5-1.94c1.18,3,2.5,6.06,3.91,9Zm557.78-70.12c-3.2-.69-6.47-1.31-9.71-1.85l.87-5.28c3.33.56,6.69,1.2,10,1.9ZM1056.5,743.52l-2-5c3.13-1.25,6.31-2.47,9.43-3.62l1.84,5C1062.7,741.08,1059.58,742.28,1056.5,743.52Zm126.1-19c-3.25-.39-6.57-.71-9.84-1l.39-5.33c3.35.24,6.75.57,10.09,1Zm-107.45,12.18-1.68-5.08c3.21-1.06,6.46-2.07,9.65-3l1.51,5.13C1081.49,734.64,1078.31,735.64,1075.15,736.68Zm87.72-13.63c-3.26-.1-6.59-.12-9.89-.07l-.08-5.35c3.38,0,6.79,0,10.13.07Zm-68.67,8-1.33-5.17c3.26-.84,6.57-1.63,9.84-2.34l1.14,5.22C1100.65,729.49,1097.4,730.26,1094.2,731.08Zm48.88-7.74c-3.27.19-6.59.45-9.87.77l-.53-5.32c3.36-.33,6.75-.6,10.09-.79Zm-29.5,3.51-.95-5.26c3.33-.6,6.69-1.14,10-1.6l.74,5.3C1120.13,725.74,1116.84,726.27,1113.58,726.85Zm-476.66,52c-1-3.22-1.85-6.55-2.6-9.88l5.22-1.16c.71,3.2,1.55,6.39,2.49,9.49Zm-4.45-19.91c-.18-1.23-.35-2.46-.49-3.7-.26-2.14-.48-4.31-.64-6.45l5.33-.4c.16,2.06.37,4.15.61,6.21.15,1.19.31,2.38.48,3.55Zm3.8-20.38-5.35,0c0-3.36.07-6.79.26-10.19l5.34.31C636.33,732,636.25,735.31,636.27,738.55Zm1.13-19.66-5.31-.64c.4-3.28.91-6.62,1.51-9.92l5.29.8,0,.21C638.28,712.48,637.79,715.71,637.4,718.89Zm3.46-19.45-5.21-1.18c.74-3.29,1.56-6.6,2.44-9.83l5.16,1.4C642.39,693,641.59,696.22,640.86,699.44Zm182.93-27.06a75.78,75.78,0,0,1-10.39.27l.26-5.35a68,68,0,0,0,9.63-.24ZM834,670.76l-1.15-5.22a88.54,88.54,0,0,0,9.37-2.61l1.71,5.07A95,95,0,0,1,834,670.76Zm-31,.55a54.09,54.09,0,0,1-10-3.23l2.15-4.9a48.18,48.18,0,0,0,9,2.9Zm50.47-7.09-2.2-4.87c2.94-1.33,5.86-2.82,8.69-4.44l2.66,4.64C859.67,661.25,856.6,662.82,853.5,664.22ZM871.31,654l-3.08-4.37c2.67-1.88,5.27-3.89,7.72-6l3.47,4.07C876.84,650,874.11,652.07,871.31,654Zm-225.26,26.3L641,678.71c1-3.21,2.14-6.44,3.3-9.58l5,1.85C648.14,674.05,647.06,677.2,646.05,680.34Zm137.79-17.57a45.78,45.78,0,0,1-7.72-7.27l4.09-3.44a40.63,40.63,0,0,0,6.82,6.42Zm103.07-22L883.07,637c2.27-2.35,4.42-4.82,6.41-7.34l4.2,3.32C891.58,635.64,889.3,638.24,886.91,640.72Zm-234,21.06L648,659.71c1.31-3.11,2.71-6.22,4.15-9.25l4.83,2.3C655.56,655.72,654.19,658.75,652.91,661.78Zm117.34-15.07a57,57,0,0,1-4-9.69l5.1-1.59a53.33,53.33,0,0,0,3.61,8.8Zm129.37-22.14-4.52-2.85a86.22,86.22,0,0,0,4.7-8.49l4.82,2.32A93.89,93.89,0,0,1,899.62,624.57ZM661.43,643.93l-4.71-2.52c1.58-3,3.26-5.94,5-8.83l4.59,2.74C664.62,638.14,663,641,661.43,643.93Zm102.51-17c-.14-.93-.27-1.87-.39-2.84-.29-2.39-.49-4.89-.58-7.43l5.34-.21c.09,2.4.28,4.76.55,7,.11.9.23,1.79.37,2.66ZM908.56,606l-5.06-1.74a77.4,77.4,0,0,0,2.59-9.33l5.23,1.11A86.12,86.12,0,0,1,908.56,606Zm-237,20.93L667.1,624c1.85-2.8,3.79-5.6,5.78-8.33l4.32,3.15C675.26,621.48,673.36,624.21,671.56,626.94Zm96.79-20.35-5.35-.21c.14-3.41.39-6.83.75-10.16l5.32.58C768.72,600,768.47,603.3,768.35,606.59Zm144.5-20.76-5.33-.46a78.09,78.09,0,0,0,.24-9.68l5.35-.19A86.75,86.75,0,0,1,912.85,585.83ZM683.21,611,679,607.61c2.1-2.62,4.3-5.23,6.52-7.76l4,3.53C687.41,605.85,685.26,608.4,683.21,611Zm13.07-14.86-3.85-3.71c2.34-2.42,4.76-4.83,7.2-7.14l3.68,3.88C700.93,591.39,698.56,593.73,696.28,596.1Zm74.21-9-5.26-1c.62-3.35,1.37-6.7,2.24-10l5.17,1.38C771.81,580.68,771.08,583.89,770.49,587.11Zm136.08-20.82a40.38,40.38,0,0,0-3.15-8.82l4.78-2.38a45.58,45.58,0,0,1,3.58,10ZM710.64,582.47l-3.51-4c2.54-2.2,5.16-4.38,7.8-6.48l3.33,4.19C715.68,578.2,713.12,580.33,710.64,582.47Zm64.9-14.25-5-1.79c1.13-3.2,2.42-6.39,3.8-9.48l4.88,2.2C777.85,562.1,776.62,565.15,775.54,568.22Zm122.74-18.55a43.88,43.88,0,0,0-6.82-6.49l3.25-4.24a49.15,49.15,0,0,1,7.66,7.28Zm-172.13,20.5L723,565.84c2.73-2,5.53-3.92,8.34-5.77l2.94,4.46C731.56,566.34,728.81,568.24,726.15,570.17Zm16.53-10.91-2.75-4.59c2.88-1.73,5.85-3.42,8.8-5l2.55,4.7C748.39,555.92,745.5,557.57,742.68,559.26Zm40.88-8.86-4.68-2.58c1.44-2.62,3-5.23,4.65-7.77q-2.64.93-5.27,1.92l-1.89-5c3.16-1.2,6.38-2.34,9.56-3.38l1.67,5.08-2.69.9,3.72,2.46C786.82,544.75,785.12,547.57,783.56,550.4Zm99.84-12.29a65.85,65.85,0,0,0-8.86-3.75l1.73-5.06a71.43,71.43,0,0,1,9.57,4.05ZM760.09,549.83,757.75,545c3-1.48,6.13-2.9,9.22-4.23l2.12,4.9C766.08,547,763.05,548.39,760.09,549.83Zm105.1-18.05c-3.07-.66-6.31-1.19-9.63-1.58l.61-5.31c3.49.4,6.91,1,10.15,1.66Zm-68.12,4L796,532l-1.67,2.1-4.22-3.28c2.06-2.65,4.26-5.28,6.56-7.82l4,3.58c-1.07,1.19-2.13,2.4-3.15,3.62,2.67-.71,5.36-1.36,8-1.94l1.15,5.22C803.49,534.15,800.26,535,797.07,535.82Zm48.72-6.33c-3.19-.1-6.49-.08-9.82,0l-.22-5.34c3.46-.14,6.9-.16,10.21-.05Zm-29.42,2.09-.87-5.28c3.39-.55,6.78-1,10.09-1.36l.55,5.32C822.94,530.6,819.66,531,816.37,531.58Zm-8.89-12.09-3.72-3.85c2.4-2.32,4.94-4.62,7.54-6.83l3.46,4.07C812.25,515,809.8,517.25,807.48,519.49Zm15-12.76-3.22-4.27c2.65-2,5.44-4,8.27-5.89l3,4.44C827.73,502.86,825,504.79,822.45,506.73Zm16.36-11-2.76-4.58c2.84-1.71,5.81-3.41,8.82-5l2.54,4.7C844.48,492.39,841.58,494,838.81,495.71Zm17.42-9.45-2.34-4.8c3-1.45,6.07-2.89,9.19-4.26l2.16,4.89C862.18,483.44,859.15,484.84,856.23,486.26Zm18.17-8-2-5c3.08-1.23,6.27-2.43,9.47-3.58l1.8,5C880.56,475.87,877.43,477.05,874.4,478.26Zm18.72-6.72-1.64-5.09c3.17-1,6.43-2,9.67-3l1.49,5.13C899.45,469.55,896.25,470.53,893.12,471.54ZM912.25,466l-1.34-5.18c3.23-.83,6.54-1.64,9.83-2.39l1.2,5.21C918.69,464.37,915.43,465.17,912.25,466Zm19.44-4.45-1.05-5.24c3.32-.67,6.67-1.29,10-1.85l.9,5.27C938.26,460.28,935,460.89,931.69,461.54Zm29.48-4.49s-3.67.3-9.83,1.15l-.73-5.3c6.35-.88,10-1.17,10.13-1.18Z" transform="translate(-128.88 -160.72)"/><rect class="cls-3" x="645.57" y="885.25" width="212.72" height="546.25"/><rect class="cls-3" x="976.49" y="706.71" width="212.72" height="724.79"/><rect class="cls-3" x="1277.38" y="514.01" width="232.92" height="917.48"/><rect class="cls-3" x="1593.29" y="387" width="212.72" height="1044.5"/><polygon class="cls-4" points="1510.3 819.77 1957.38 603.34 1757.99 1028.35 1724.28 835.52 1510.3 819.77"/><path class="cls-5" d="M1536.33,835.6a83.77,83.77,0,1,1,101.2,61.59A83.77,83.77,0,0,1,1536.33,835.6Z" transform="translate(-128.88 -160.72)"/><path class="cls-6" d="M1636,890.92a76.33,76.33,0,1,1,47.16-34.49A75.86,75.86,0,0,1,1636,890.92ZM1601,747a71.77,71.77,0,1,0,86.71,52.77A71.86,71.86,0,0,0,1601,747Z" transform="translate(-128.88 -160.72)"/><path class="cls-6" d="M1633.41,835.8a12.53,12.53,0,0,0-1.23-4.27,9.06,9.06,0,0,0-2.69-3.13,17.41,17.41,0,0,0-4.42-2.33,45.82,45.82,0,0,0-6.41-1.78q-6.47-1.42-11.82-3.19a38.09,38.09,0,0,1-9.33-4.45A22.3,22.3,0,0,1,1591,810a25.18,25.18,0,0,1-2.53-19,21.35,21.35,0,0,1,4.19-7.79,26.63,26.63,0,0,1,7.28-5.92,35.31,35.31,0,0,1,10-3.68l-1.52-12.58,10.12-1.22,1.55,12.75a31.58,31.58,0,0,1,10.21,1.68,23.93,23.93,0,0,1,14,12.35,32,32,0,0,1,3,10.41L1629,799.24q-.84-7.05-4.4-10.17a10.84,10.84,0,0,0-8.81-2.48A13.64,13.64,0,0,0,1611,788a9.33,9.33,0,0,0-3.12,2.58,8.76,8.76,0,0,0-1.57,3.5,13.24,13.24,0,0,0-.14,4.14,11.79,11.79,0,0,0,1.11,3.85,8.67,8.67,0,0,0,2.58,3,17.4,17.4,0,0,0,4.45,2.33,61.64,61.64,0,0,0,6.7,2q6.4,1.54,11.73,3.35a38.54,38.54,0,0,1,9.31,4.5,21.53,21.53,0,0,1,9.67,16.27A23.06,23.06,0,0,1,1651,843a20.9,20.9,0,0,1-4.23,7.72,25.69,25.69,0,0,1-7.36,5.79,38,38,0,0,1-10.06,3.6l1.42,11.7L1620.71,873l-1.41-11.63a42.77,42.77,0,0,1-10.43-1.06,27.3,27.3,0,0,1-9.32-4,24.28,24.28,0,0,1-7.09-7.64,29.66,29.66,0,0,1-3.74-11.83l18.28-2.22a18.09,18.09,0,0,0,2,6.82,11.65,11.65,0,0,0,3.67,4.09,11.39,11.39,0,0,0,4.74,1.81,19.53,19.53,0,0,0,5.18.06,16.15,16.15,0,0,0,5.13-1.4,10.79,10.79,0,0,0,3.5-2.57,8.47,8.47,0,0,0,1.89-3.48A10.58,10.58,0,0,0,1633.41,835.8Z" transform="translate(-128.88 -160.72)"/><circle class="cls-5" cx="2058.57" cy="594.94" r="81.59" transform="translate(53.38 1469.17) rotate(-45)"/><path class="cls-6" d="M2061.53,670.18a74.33,74.33,0,1,1,51.67-23.82A73.86,73.86,0,0,1,2061.53,670.18Zm-5.66-144.12a69.9,69.9,0,1,0,72.59,67.1A70,70,0,0,0,2055.87,526.06Z" transform="translate(-128.88 -160.72)"/><path class="cls-6" d="M2069.69,617.06a12.36,12.36,0,0,0-.35-4.31,9,9,0,0,0-2-3.51,16.84,16.84,0,0,0-3.78-3.07,45.59,45.59,0,0,0-5.77-2.95,115,115,0,0,1-10.66-5.32,37.11,37.11,0,0,1-8.06-6,21.91,21.91,0,0,1-4.91-7.56,24.55,24.55,0,0,1,1.26-18.64A20.55,20.55,0,0,1,2041,559a25.65,25.65,0,0,1,8.09-4.25,34.25,34.25,0,0,1,10.24-1.59l1-12.3,9.9.78-1,12.47a30.84,30.84,0,0,1,9.42,3.58,23.32,23.32,0,0,1,11,14.49,31,31,0,0,1,.82,10.5l-17.88-1.41q.54-6.9-2.25-10.56a10.49,10.49,0,0,0-7.93-4.07,13.51,13.51,0,0,0-4.85.4,9,9,0,0,0-3.48,1.86,8.51,8.51,0,0,0-2.17,3,12.37,12.37,0,0,0-.93,3.92,11.22,11.22,0,0,0,.31,3.9,8.46,8.46,0,0,0,1.88,3.36,17.08,17.08,0,0,0,3.81,3.07,56.27,56.27,0,0,0,6,3.17q5.82,2.72,10.55,5.46a37.16,37.16,0,0,1,8,6.1,22.09,22.09,0,0,1,4.91,7.58,24.66,24.66,0,0,1-1.29,18.76,20.51,20.51,0,0,1-5.54,6.56,25,25,0,0,1-8.13,4.1,37,37,0,0,1-10.3,1.5l-.9,11.43-9.84-.77.9-11.38a42.05,42.05,0,0,1-9.76-3,26.36,26.36,0,0,1-8.11-5.64,23.63,23.63,0,0,1-5.29-8.66,28.72,28.72,0,0,1-1.3-12l17.88,1.42a17.81,17.81,0,0,0,.61,6.9,11.55,11.55,0,0,0,2.72,4.61,11.1,11.1,0,0,0,4.18,2.64,18.86,18.86,0,0,0,4.93,1,15.75,15.75,0,0,0,5.16-.34,10.45,10.45,0,0,0,3.85-1.78,8.45,8.45,0,0,0,2.47-2.95A10.48,10.48,0,0,0,2069.69,617.06Z" transform="translate(-128.88 -160.72)"/><path class="cls-5" d="M1861.93,742.87a56.27,56.27,0,1,1,57.26,55.27A56.27,56.27,0,0,1,1861.93,742.87Z" transform="translate(-128.88 -160.72)"/><path class="cls-6" d="M1919.11,793.8a51.27,51.27,0,1,1,36-15.66A50.94,50.94,0,0,1,1919.11,793.8Zm-1.75-99.47a48.21,48.21,0,1,0,49.05,47.35A48.28,48.28,0,0,0,1917.36,694.33Z" transform="translate(-128.88 -160.72)"/><path class="cls-6" d="M1925.53,757.29a8.38,8.38,0,0,0-.18-3,6,6,0,0,0-1.3-2.45,11.52,11.52,0,0,0-2.55-2.18,32.29,32.29,0,0,0-3.94-2.12,77.2,77.2,0,0,1-7.27-3.83,25.29,25.29,0,0,1-5.47-4.28,15,15,0,0,1-3.27-5.29,16.92,16.92,0,0,1,1.14-12.83,14.22,14.22,0,0,1,3.89-4.49,18,18,0,0,1,5.64-2.81,23.76,23.76,0,0,1,7.09-.94l.85-8.47,6.82.69-.87,8.58a21.61,21.61,0,0,1,6.45,2.61,16.08,16.08,0,0,1,7.35,10.15,21.52,21.52,0,0,1,.41,7.26L1928,732.68c.32-3.17-.15-5.6-1.39-7.32a7.25,7.25,0,0,0-5.41-2.92,9.29,9.29,0,0,0-3.36.2,6.38,6.38,0,0,0-2.42,1.24,5.64,5.64,0,0,0-1.54,2.06,8.6,8.6,0,0,0-.71,2.69,8.16,8.16,0,0,0,.16,2.69,5.92,5.92,0,0,0,1.25,2.35,11.87,11.87,0,0,0,2.58,2.17,40.25,40.25,0,0,0,4.09,2.28q4,1.95,7.2,3.92a26,26,0,0,1,5.44,4.32,15.17,15.17,0,0,1,3.27,5.31,16.92,16.92,0,0,1-1.17,12.91,13.91,13.91,0,0,1-3.91,4.44,17.14,17.14,0,0,1-5.67,2.71,25.52,25.52,0,0,1-7.13.88l-.79,7.87-6.77-.68.79-7.83a28.54,28.54,0,0,1-6.68-2.24,18.31,18.31,0,0,1-5.52-4,16.42,16.42,0,0,1-3.52-6.05,19.86,19.86,0,0,1-.71-8.3l12.31,1.24a12.21,12.21,0,0,0,.32,4.77,8,8,0,0,0,1.8,3.21,7.73,7.73,0,0,0,2.85,1.89,13,13,0,0,0,3.38.8,11.1,11.1,0,0,0,3.56-.16A7.21,7.21,0,0,0,1923,762a5.69,5.69,0,0,0,1.75-2A7,7,0,0,0,1925.53,757.29Z" transform="translate(-128.88 -160.72)"/><circle class="cls-5" cx="1755.31" cy="526" r="137.32" transform="translate(-160.51 -40.49) rotate(-3.89)"/><path class="cls-6" d="M1795.15,646.31a125.11,125.11,0,1,1,72.46-62.59A124.24,124.24,0,0,1,1795.15,646.31Zm-76.31-230.45a117.65,117.65,0,1,0,148.67,74.7A117.78,117.78,0,0,0,1718.84,415.86Z" transform="translate(-128.88 -160.72)"/><path class="cls-6" d="M1783.59,556.6a20.75,20.75,0,0,0-2.57-6.81,15.09,15.09,0,0,0-4.81-4.76,28.25,28.25,0,0,0-7.53-3.21,76.16,76.16,0,0,0-10.71-2.07,197.67,197.67,0,0,1-19.73-3.64,62.55,62.55,0,0,1-15.84-6,36.66,36.66,0,0,1-11.47-9.93,41.41,41.41,0,0,1-6.65-30.73,34.68,34.68,0,0,1,5.82-13.28,43.44,43.44,0,0,1,11.1-10.64,57.69,57.69,0,0,1,15.82-7.34l-4.16-20.35,16.38-3.34,4.22,20.63a51.71,51.71,0,0,1,16.91,1.39,39.28,39.28,0,0,1,24.49,18.32,52.39,52.39,0,0,1,6.22,16.61l-29.58,6q-2.34-11.4-8.56-16t-14.71-2.88a22.5,22.5,0,0,0-7.67,2.91,15.08,15.08,0,0,0-4.76,4.63,14.09,14.09,0,0,0-2.09,5.93,20.79,20.79,0,0,0,.31,6.77,19.21,19.21,0,0,0,2.33,6.16,14.13,14.13,0,0,0,4.61,4.55,28.69,28.69,0,0,0,7.58,3.21,96.71,96.71,0,0,0,11.19,2.31q10.69,1.68,19.62,3.92a63.05,63.05,0,0,1,15.81,6.12,35.4,35.4,0,0,1,18,25.3,37.79,37.79,0,0,1,.15,15.62,34.35,34.35,0,0,1-5.89,13.19,41.86,41.86,0,0,1-11.25,10.42,62.26,62.26,0,0,1-16,7.22l3.86,18.92-16.27,3.33-3.85-18.82a70.47,70.47,0,0,1-17.18-.35,44.54,44.54,0,0,1-15.76-5.35A39.86,39.86,0,0,1,1718.4,583q-5.36-7.43-7.69-18.83l29.58-6a29.8,29.8,0,0,0,4.2,10.88,19.16,19.16,0,0,0,6.54,6.19,18.67,18.67,0,0,0,8,2.33,32.11,32.11,0,0,0,8.47-.59,26.72,26.72,0,0,0,8.19-3,17.81,17.81,0,0,0,5.39-4.66,14.23,14.23,0,0,0,2.62-5.94A17.33,17.33,0,0,0,1783.59,556.6Z" transform="translate(-128.88 -160.72)"/><path class="cls-7" d="M1213.36,488.25c-12.34,3.08-24.13,6-35.15,7.91-35.69,6.1-63.26,1.07-75.14-46.51s10.08-65,44.44-76.38c10.62-3.52,22.4-6.47,34.74-9.55,26.39-6.59,55.58-3.68,78.84,4,22.87,7.51,40,19.61,43,31.75,3.46,13.84-6,32.57-22.72,49.54C1264.36,466.23,1239.74,481.66,1213.36,488.25Z" transform="translate(-128.88 -160.72)"/><polygon class="cls-8" points="1018.63 212.54 978.1 186.07 914.1 199.71 980.57 246.41 1018.63 212.54"/><polygon class="cls-8" points="1049.23 335.05 1025.9 377.47 963.01 395.53 999.72 323.06 1049.23 335.05"/><path class="cls-8" d="M1178.21,496.16c-35.69,6.1-63.26,1.07-75.14-46.51s10.08-65,44.44-76.38Z" transform="translate(-128.88 -160.72)"/><path class="cls-4" d="M1019.74,470.46s17.81-41.51,49-35.12c31.81,6.52,27.8,40.8,3.93,44S1033.66,467,1019.74,470.46Z" transform="translate(-128.88 -160.72)"/><path class="cls-8" d="M1209.45,389.42a30.76,30.76,0,1,1-22.39,37.3A30.76,30.76,0,0,1,1209.45,389.42Z" transform="translate(-128.88 -160.72)"/><path class="cls-3" d="M1216.91,452.08a32.82,32.82,0,1,1,7.95-1A32.88,32.88,0,0,1,1216.91,452.08Zm0-61.53a28.71,28.71,0,1,0,27.86,21.76A28.63,28.63,0,0,0,1216.9,390.55Z" transform="translate(-128.88 -160.72)"/><path class="cls-4" d="M1281.39,449l-20.3-81.29c22.87,7.51,40,19.61,43,31.75C1307.57,413.27,1298.15,432,1281.39,449Z" transform="translate(-128.88 -160.72)"/><path class="cls-9" d="M2201.23,895.35s62.15,64.44,65.09,88.7-29.77,62.12-29.77,62.12Z" transform="translate(-128.88 -160.72)"/><path class="cls-10" d="M2173.15,1563.22s-2.2,34.18-8.81,34.66c-.88.06-33.55,0-33.55,0l-41.7-.33s.3-10,12.49-12.15,32.62-10.62,40-26.71C2149.42,1541.74,2173.15,1563.22,2173.15,1563.22Z" transform="translate(-128.88 -160.72)"/><path class="cls-11" d="M2266,1563.42s-2.2,34.18-8.81,34.66c-.88.06-33.55,0-33.55,0l-41.7-.33s.3-10,12.49-12.15,32.62-10.62,40-26.71C2242.3,1542,2266,1563.42,2266,1563.42Z" transform="translate(-128.88 -160.72)"/><path class="cls-8" d="M2127.76,1195.7s10.76,69.78,51.17,193.69,45.85,177.54,45.85,177.54l43.65-1.13s.66-135.32-17.95-197.63-3.56-224.48-3.56-224.48Z" transform="translate(-128.88 -160.72)"/><path class="cls-12" d="M2106.63,1147.2s-1.77,105.11,16.13,234.22,11.62,183.87,11.62,183.87l43.56,1.54s26.31-129,19-193.67,36.13-221.58,36.13-221.58Z" transform="translate(-128.88 -160.72)"/><path class="cls-13" d="M2191.48,901.41l-23.24,15.16-33.52-6.32c.47-2.71,2.71-13.92,4.74-24.08.13-.6.25-1.2.37-1.79,1.74-8.64,3.25-16.07,3.25-16.07l31.36-13.75,11.69-5.13c0,.18-.93,9.59-1.05,11C2182.83,884.8,2191.48,901.41,2191.48,901.41Z" transform="translate(-128.88 -160.72)"/><path class="cls-9" d="M2143.34,893.62c.66-.27,40.42-11.91,44.73-10.47s6.85,9.79,6.85,9.79l-65,14.55S2135,897.1,2143.34,893.62Z" transform="translate(-128.88 -160.72)"/><path class="cls-14" d="M2249.77,1160.49c-6.8,30.72-118.91,34.12-147.75,6.16-3.28-3.19-3.41-18-2.12-37.92,2.51-39,10.42-97.56,10.79-127.51a237.76,237.76,0,0,1,4.87-42.67,347.87,347.87,0,0,1,14.33-51.06s54.8-17.58,65-14.55C2244.25,907.55,2256.58,1129.78,2249.77,1160.49Z" transform="translate(-128.88 -160.72)"/><path class="cls-9" d="M2099.9,1128.73c2.51-39,10.42-97.56,10.79-127.51a237.76,237.76,0,0,1,4.87-42.67l33-5.74S2180.43,1084.42,2099.9,1128.73Z" transform="translate(-128.88 -160.72)"/><path class="cls-13" d="M2117.85,1074.46s2.23,5.37-2.49,9-7.79,9.42-6.72,13.69,11.4,11.25,15,10.14,10.9-6.72,10.12-9,5-19.74-3.78-26.49S2117.85,1074.46,2117.85,1074.46Z" transform="translate(-128.88 -160.72)"/><path class="cls-14" d="M2155.06,899.66s-32.13,5.94-57.81,43.61-42.58,65.67-37.89,79.27,47.56,60.85,55,60.87,19.38-5.35,20.07-17.47c0,0-30.16-45.42-24.18-52.2,2.55-2.89,39.35-32.64,44.57-19.16C2163.42,1016.89,2155.06,899.66,2155.06,899.66Z" transform="translate(-128.88 -160.72)"/><path class="cls-15" d="M2182.72,860.83c-6.9,11.63-32.56,21.65-43.26,25.34.13-.6.25-1.2.37-1.79,1.74-8.64,3.25-16.07,3.25-16.07l31.36-13.75C2181.36,854.48,2185.57,856,2182.72,860.83Z" transform="translate(-128.88 -160.72)"/><path class="cls-13" d="M2131.28,866.38s50.42,15.85,59.81-15.71,22.22-50.76-9.58-62.21-41.67-1.28-47.36,8.49S2118.4,861.44,2131.28,866.38Z" transform="translate(-128.88 -160.72)"/><path class="cls-8" d="M2136.14,793.91s3.14,36.75,10.74,35.17,14.49-2.74,13.36,8.33-11.7,23.84,11.71,25.85,57.21-58.31,50.8-69.76C2204.26,760.47,2109.4,753.6,2136.14,793.91Z" transform="translate(-128.88 -160.72)"/><path class="cls-5" d="M1891.62,1576.67v13.22a4.53,4.53,0,0,1-1,2.84,6,6,0,0,1-2.85,1.9,5.14,5.14,0,0,1-1.11.27,6.27,6.27,0,0,1-1.07.08H1634.83c-3,0-5.56-1.89-6-4.33,0-.17,0-.33,0-.5s0-.18,0-.26v-13.22c0-.09,0-.18,0-.26s0-.34,0-.5c.45-2.45,3-4.33,6-4.33h250.72a7.49,7.49,0,0,1,1.07.07,6.66,6.66,0,0,1,1.11.27,6.12,6.12,0,0,1,2.85,1.9A4.58,4.58,0,0,1,1891.62,1576.67Z" transform="translate(-128.88 -160.72)"/><path class="cls-6" d="M1768.5,1595H1634.18a5.37,5.37,0,0,1-5.21-3.77c-.06-.19-.11-.37-.15-.56s0-.33,0-.5,0-.18,0-.26v-13.22c0-.09,0-.18,0-.26s0-.34,0-.5a5.12,5.12,0,0,1,.15-.56,5.36,5.36,0,0,1,5.21-3.77H1752A41,41,0,0,0,1768.5,1595Z" transform="translate(-128.88 -160.72)"/><rect class="cls-6" x="1729.38" y="1410.85" width="2.85" height="23.41"/><rect class="cls-6" x="1719.73" y="1410.85" width="2.85" height="23.41"/><rect class="cls-6" x="1708.17" y="1410.85" width="2.85" height="23.41"/><rect class="cls-6" x="1690.44" y="1410.85" width="2.85" height="23.41"/><rect class="cls-6" x="1671.69" y="1410.85" width="2.85" height="23.41"/><rect class="cls-6" x="1642.95" y="1410.85" width="2.85" height="23.41"/><rect class="cls-6" x="1616.03" y="1410.85" width="2.85" height="23.41"/><rect class="cls-6" x="1592" y="1410.85" width="2.85" height="23.41"/><rect class="cls-6" x="1738.56" y="1410.85" width="2.85" height="23.41"/><rect class="cls-6" x="1744.62" y="1410.85" width="2.85" height="23.41"/><rect class="cls-6" x="1750.48" y="1410.85" width="2.85" height="23.41"/><path class="cls-6" d="M1886.62,1571.66v23.24a7.48,7.48,0,0,1-1.07.08h-1.78v-23.41h1.78A6.26,6.26,0,0,1,1886.62,1571.66Z" transform="translate(-128.88 -160.72)"/><path class="cls-6" d="M1890.58,1573.82v18.91a6.06,6.06,0,0,1-2.85,1.91v-22.72A6,6,0,0,1,1890.58,1573.82Z" transform="translate(-128.88 -160.72)"/><path class="cls-5" d="M1864.81,1553.26v13.22a4.63,4.63,0,0,1-1,2.85,6.55,6.55,0,0,1-.58.6,6.1,6.1,0,0,1-2.28,1.3,6.43,6.43,0,0,1-1.11.26,7.33,7.33,0,0,1-1.06.09H1608c-3,0-5.55-1.9-6-4.34,0-.17,0-.33,0-.5a2.17,2.17,0,0,1,0-.26v-13.22a2.26,2.26,0,0,1,0-.26c0-.17,0-.33,0-.5.45-2.44,3-4.33,6-4.33h250.73a3.7,3.7,0,0,1,.47,0h.21l.23,0,.15,0a6.43,6.43,0,0,1,1.11.26c.22.07.42.15.62.23h0l.39.19.22.13.21.12a4.92,4.92,0,0,1,.73.54c.08.07.14.14.22.2l.12.12s0,0,.06.07l.06.05c.08.08.15.17.23.26A4.6,4.6,0,0,1,1864.81,1553.26Z" transform="translate(-128.88 -160.72)"/><path class="cls-6" d="M1741.69,1571.58H1607.37a5.37,5.37,0,0,1-5.2-3.79,4.94,4.94,0,0,1-.15-.55c0-.17,0-.33,0-.5a2.17,2.17,0,0,1,0-.26v-13.22a2.26,2.26,0,0,1,0-.26c0-.17,0-.33,0-.5a4.94,4.94,0,0,1,.15-.55,5.36,5.36,0,0,1,5.2-3.78H1725.2c0,.19.1.38.16.57A41,41,0,0,0,1741.69,1571.58Z" transform="translate(-128.88 -160.72)"/><rect class="cls-6" x="1702.57" y="1387.45" width="2.85" height="23.41"/><rect class="cls-6" x="1692.93" y="1387.45" width="2.85" height="23.41"/><rect class="cls-6" x="1681.36" y="1387.45" width="2.85" height="23.41"/><rect class="cls-6" x="1663.63" y="1387.45" width="2.85" height="23.41"/><rect class="cls-6" x="1644.88" y="1387.45" width="2.85" height="23.41"/><rect class="cls-6" x="1616.14" y="1387.45" width="2.85" height="23.41"/><rect class="cls-6" x="1589.23" y="1387.45" width="2.85" height="23.41"/><rect class="cls-6" x="1565.2" y="1387.45" width="2.85" height="23.41"/><rect class="cls-6" x="1711.75" y="1387.45" width="2.85" height="23.41"/><rect class="cls-6" x="1717.82" y="1387.45" width="2.85" height="23.41"/><rect class="cls-6" x="1723.68" y="1387.45" width="2.85" height="23.41"/><path class="cls-6" d="M1859.81,1548.25v23.24a7.37,7.37,0,0,1-1.07.08H1857v-23.4h1.78A7.37,7.37,0,0,1,1859.81,1548.25Z" transform="translate(-128.88 -160.72)"/><path class="cls-6" d="M1863.77,1550.42v18.9a6,6,0,0,1-2.85,1.91v-22.72A6,6,0,0,1,1863.77,1550.42Z" transform="translate(-128.88 -160.72)"/><path class="cls-5" d="M1877.76,1530.43v13.22a4.52,4.52,0,0,1-1,2.85,6.09,6.09,0,0,1-2.84,1.9,7.82,7.82,0,0,1-1.11.27,9.45,9.45,0,0,1-1.07.07H1621a7.11,7.11,0,0,1-2.8-.57,5.33,5.33,0,0,1-3.2-3.7c0-.11,0-.22,0-.33a1.64,1.64,0,0,1,0-.23,2.17,2.17,0,0,1,0-.26v-13.22a2.35,2.35,0,0,1,0-.26,4.1,4.1,0,0,1,.06-.49c.44-2.45,3-4.34,6-4.34H1871.7a7.59,7.59,0,0,1,1.07.08,5.79,5.79,0,0,1,1.11.26,6.1,6.1,0,0,1,2.84,1.91A4.47,4.47,0,0,1,1877.76,1530.43Z" transform="translate(-128.88 -160.72)"/><path class="cls-6" d="M1754.65,1548.74H1620.33a5.74,5.74,0,0,1-2.5-.57,5.19,5.19,0,0,1-2.85-3.7c0-.11,0-.22,0-.33a1.64,1.64,0,0,1,0-.23,2.17,2.17,0,0,1,0-.26v-13.22a2.35,2.35,0,0,1,0-.26,4.1,4.1,0,0,1,.06-.49,3.7,3.7,0,0,1,.14-.55,5.36,5.36,0,0,1,5.21-3.79h117.82a41.12,41.12,0,0,0,15.68,22.83C1754.09,1548.36,1754.37,1548.56,1754.65,1548.74Z" transform="translate(-128.88 -160.72)"/><rect class="cls-6" x="1715.53" y="1364.62" width="2.85" height="23.41"/><rect class="cls-6" x="1705.88" y="1364.62" width="2.85" height="23.41"/><rect class="cls-6" x="1694.31" y="1364.62" width="2.85" height="23.41"/><rect class="cls-6" x="1676.58" y="1364.62" width="2.85" height="23.41"/><rect class="cls-6" x="1657.83" y="1364.62" width="2.85" height="23.41"/><rect class="cls-6" x="1629.09" y="1364.62" width="2.85" height="23.41"/><rect class="cls-6" x="1602.18" y="1364.62" width="2.85" height="23.41"/><rect class="cls-6" x="1578.15" y="1364.62" width="2.85" height="23.41"/><rect class="cls-6" x="1724.71" y="1364.62" width="2.85" height="23.41"/><rect class="cls-6" x="1730.77" y="1364.62" width="2.85" height="23.41"/><rect class="cls-6" x="1736.63" y="1364.62" width="2.85" height="23.41"/><path class="cls-6" d="M1872.77,1525.42v23.24a6.35,6.35,0,0,1-1.07.08h-1.78v-23.4h1.78A7.59,7.59,0,0,1,1872.77,1525.42Z" transform="translate(-128.88 -160.72)"/><path class="cls-6" d="M1876.73,1527.59v18.91a6.17,6.17,0,0,1-2.85,1.9v-22.72A6.11,6.11,0,0,1,1876.73,1527.59Z" transform="translate(-128.88 -160.72)"/><path class="cls-5" d="M1883.77,1507v13.21a4.5,4.5,0,0,1-1,2.85l-.27.31a5.85,5.85,0,0,1-1.74,1.26,6.86,6.86,0,0,1-.83.34,6.77,6.77,0,0,1-1.12.26l-.52.06-.55,0H1627c-3,0-5.56-1.89-6-4.34a4.1,4.1,0,0,1-.06-.49v-13.75c.16-2.48,2.44-4.5,5.34-4.79.24,0,.48,0,.72,0H1877.7a5.07,5.07,0,0,1,.55,0,4.35,4.35,0,0,1,.52.06,5.89,5.89,0,0,1,1.12.26,6.06,6.06,0,0,1,2.84,1.9A4.48,4.48,0,0,1,1883.77,1507Z" transform="translate(-128.88 -160.72)"/><path class="cls-6" d="M1760.66,1525.34H1626.33a5.38,5.38,0,0,1-5.21-3.78,3.53,3.53,0,0,1-.14-.56,4.1,4.1,0,0,1-.06-.49v-13.75a5.27,5.27,0,0,1,4.77-4.79c.21,0,.42,0,.64,0h117.83s0,0,0,0A41.05,41.05,0,0,0,1760.66,1525.34Z" transform="translate(-128.88 -160.72)"/><rect class="cls-6" x="1721.53" y="1341.21" width="2.85" height="23.41"/><rect class="cls-6" x="1711.89" y="1341.21" width="2.85" height="23.41"/><rect class="cls-6" x="1700.32" y="1341.21" width="2.85" height="23.41"/><rect class="cls-6" x="1682.59" y="1341.21" width="2.85" height="23.41"/><rect class="cls-6" x="1663.84" y="1341.21" width="2.85" height="23.41"/><rect class="cls-6" x="1635.1" y="1341.21" width="2.85" height="23.41"/><rect class="cls-6" x="1608.19" y="1341.21" width="2.85" height="23.41"/><rect class="cls-6" x="1584.16" y="1341.21" width="2.85" height="23.41"/><rect class="cls-6" x="1730.71" y="1341.21" width="2.85" height="23.41"/><rect class="cls-6" x="1736.78" y="1341.21" width="2.85" height="23.41"/><rect class="cls-6" x="1742.64" y="1341.21" width="2.85" height="23.41"/><path class="cls-6" d="M1878.77,1502v23.25a7.34,7.34,0,0,1-1.06.08h-1.79v-23.41h1.79A7.34,7.34,0,0,1,1878.77,1502Z" transform="translate(-128.88 -160.72)"/><path class="cls-6" d="M1882.73,1504.18v18.91a6,6,0,0,1-2.85,1.9v-22.72A6.08,6.08,0,0,1,1882.73,1504.18Z" transform="translate(-128.88 -160.72)"/><path class="cls-5" d="M1865.33,1483.66v13.21a4.44,4.44,0,0,1-1,2.84,6,6,0,0,1-2.85,1.92,6.64,6.64,0,0,1-1.11.25,2,2,0,0,1-.35,0h0l-.19,0H1608.55c-3.23,0-5.89-2.15-6.06-4.83a2.35,2.35,0,0,1,0-.27v-13.21a2.44,2.44,0,0,1,0-.27,1.49,1.49,0,0,1,0-.21,5.5,5.5,0,0,1,4.55-4.46l.18,0a7,7,0,0,1,1.31-.13h250.72l.54,0,.23,0h0a1.26,1.26,0,0,1,.28,0,6.64,6.64,0,0,1,1.11.25,6,6,0,0,1,2.85,1.92A4.44,4.44,0,0,1,1865.33,1483.66Z" transform="translate(-128.88 -160.72)"/><path class="cls-6" d="M1742.22,1502H1607.9a5.3,5.3,0,0,1-5.41-4.83,2.35,2.35,0,0,1,0-.27v-13.21a2.44,2.44,0,0,1,0-.27,1.49,1.49,0,0,1,0-.21,5.23,5.23,0,0,1,4.2-4.49.85.85,0,0,1,.23,0,5.12,5.12,0,0,1,1-.09h117.82a1.09,1.09,0,0,1,0,.17,41,41,0,0,0,16.39,23.2Z" transform="translate(-128.88 -160.72)"/><rect class="cls-6" x="1703.1" y="1317.84" width="2.85" height="23.41"/><rect class="cls-6" x="1693.45" y="1317.84" width="2.85" height="23.41"/><rect class="cls-6" x="1681.89" y="1317.84" width="2.85" height="23.41"/><rect class="cls-6" x="1664.16" y="1317.84" width="2.85" height="23.41"/><rect class="cls-6" x="1645.41" y="1317.84" width="2.85" height="23.41"/><rect class="cls-6" x="1616.66" y="1317.84" width="2.85" height="23.41"/><rect class="cls-6" x="1589.75" y="1317.84" width="2.85" height="23.41"/><rect class="cls-6" x="1565.72" y="1317.84" width="2.85" height="23.41"/><rect class="cls-6" x="1712.28" y="1317.84" width="2.85" height="23.41"/><rect class="cls-6" x="1718.35" y="1317.84" width="2.85" height="23.41"/><rect class="cls-6" x="1724.2" y="1317.84" width="2.85" height="23.41"/><path class="cls-6" d="M1860.34,1478.64v23.25a7.48,7.48,0,0,1-1.07.08h-1.78v-23.41h1.78A7.48,7.48,0,0,1,1860.34,1478.64Z" transform="translate(-128.88 -160.72)"/><path class="cls-6" d="M1864.3,1480.81v18.91a6,6,0,0,1-2.85,1.9v-22.71A6,6,0,0,1,1864.3,1480.81Z" transform="translate(-128.88 -160.72)"/><path class="cls-5" d="M1864.81,1460.42v13.21a4.61,4.61,0,0,1-1,2.85,8.25,8.25,0,0,1-.58.61,6.24,6.24,0,0,1-2.28,1.3,8.33,8.33,0,0,1-.86.22h0l-.23,0a7.34,7.34,0,0,1-1.06.08H1608a6.79,6.79,0,0,1-.78,0l-.3,0a5.66,5.66,0,0,1-4.93-4.31c0-.15,0-.29,0-.44a2.44,2.44,0,0,1,0-.27v-13.21a2.44,2.44,0,0,1,0-.27c0-.16,0-.32,0-.49.45-2.44,3-4.34,6-4.34h250.73l.47,0h.21l.23,0,.15,0a5.62,5.62,0,0,1,1.11.26c.22.07.42.15.62.23h0a6.11,6.11,0,0,1,2,1.41l.23.26A4.59,4.59,0,0,1,1864.81,1460.42Z" transform="translate(-128.88 -160.72)"/><path class="cls-6" d="M1741.69,1478.73H1607.06c-.12,0-.24,0-.35,0a5.31,5.31,0,0,1-4.7-4.35c0-.15,0-.29,0-.44a2.44,2.44,0,0,1,0-.27v-13.21a2.44,2.44,0,0,1,0-.27c0-.16,0-.32,0-.49s.09-.37.15-.56a5.37,5.37,0,0,1,5.2-3.78H1725.2c0,.2.1.39.16.58a41,41,0,0,0,16.09,22.66C1741.53,1478.62,1741.62,1478.67,1741.69,1478.73Z" transform="translate(-128.88 -160.72)"/><rect class="cls-6" x="1702.57" y="1294.6" width="2.85" height="23.41"/><rect class="cls-6" x="1692.93" y="1294.6" width="2.85" height="23.41"/><rect class="cls-6" x="1681.36" y="1294.6" width="2.85" height="23.41"/><rect class="cls-6" x="1663.63" y="1294.6" width="2.85" height="23.41"/><rect class="cls-6" x="1644.88" y="1294.6" width="2.85" height="23.41"/><rect class="cls-6" x="1616.14" y="1294.6" width="2.85" height="23.41"/><rect class="cls-6" x="1589.23" y="1294.6" width="2.85" height="23.41"/><rect class="cls-6" x="1565.2" y="1294.6" width="2.85" height="23.41"/><rect class="cls-6" x="1711.75" y="1294.6" width="2.85" height="23.41"/><rect class="cls-6" x="1717.82" y="1294.6" width="2.85" height="23.41"/><rect class="cls-6" x="1723.68" y="1294.6" width="2.85" height="23.41"/><path class="cls-6" d="M1859.81,1455.41v23.24a7.37,7.37,0,0,1-1.07.08H1857v-23.41h1.78A6.18,6.18,0,0,1,1859.81,1455.41Z" transform="translate(-128.88 -160.72)"/><path class="cls-6" d="M1863.77,1457.57v18.91a6.08,6.08,0,0,1-2.85,1.91v-22.72A6,6,0,0,1,1863.77,1457.57Z" transform="translate(-128.88 -160.72)"/><path class="cls-5" d="M1877.76,1437.59v13.21a4.48,4.48,0,0,1-1,2.85,6,6,0,0,1-2.84,1.91,7.81,7.81,0,0,1-1.11.26,7.59,7.59,0,0,1-1.07.08H1621a6.94,6.94,0,0,1-2.8-.58,5.31,5.31,0,0,1-3.2-3.7,3.11,3.11,0,0,1,0-.32,1.79,1.79,0,0,1,0-.23,2.35,2.35,0,0,1,0-.27v-13.21a2.44,2.44,0,0,1,0-.27,4.1,4.1,0,0,1,.06-.49c.44-2.44,3-4.34,6-4.34H1871.7a6.35,6.35,0,0,1,1.07.09,6.64,6.64,0,0,1,1.11.25,6,6,0,0,1,2.84,1.92A4.45,4.45,0,0,1,1877.76,1437.59Z" transform="translate(-128.88 -160.72)"/><path class="cls-6" d="M1754.65,1455.9H1620.33a5.61,5.61,0,0,1-2.5-.58,5.17,5.17,0,0,1-2.85-3.7,3.11,3.11,0,0,1,0-.32,1.79,1.79,0,0,1,0-.23,2.35,2.35,0,0,1,0-.27v-13.21a2.44,2.44,0,0,1,0-.27,4.1,4.1,0,0,1,.06-.49,3.05,3.05,0,0,1,.14-.54,5.36,5.36,0,0,1,5.21-3.8h117.82a41.06,41.06,0,0,0,15.68,22.83C1754.09,1455.52,1754.37,1455.71,1754.65,1455.9Z" transform="translate(-128.88 -160.72)"/><rect class="cls-6" x="1715.53" y="1271.78" width="2.85" height="23.41"/><rect class="cls-6" x="1705.88" y="1271.78" width="2.85" height="23.41"/><rect class="cls-6" x="1694.31" y="1271.78" width="2.85" height="23.41"/><rect class="cls-6" x="1676.58" y="1271.78" width="2.85" height="23.41"/><rect class="cls-6" x="1657.83" y="1271.78" width="2.85" height="23.41"/><rect class="cls-6" x="1629.09" y="1271.78" width="2.85" height="23.41"/><rect class="cls-6" x="1602.18" y="1271.78" width="2.85" height="23.41"/><rect class="cls-6" x="1578.15" y="1271.78" width="2.85" height="23.41"/><rect class="cls-6" x="1724.71" y="1271.78" width="2.85" height="23.41"/><rect class="cls-6" x="1730.77" y="1271.78" width="2.85" height="23.41"/><rect class="cls-6" x="1736.63" y="1271.78" width="2.85" height="23.41"/><path class="cls-6" d="M1872.77,1432.58v23.24a7.59,7.59,0,0,1-1.07.08h-1.78v-23.41h1.78A6.35,6.35,0,0,1,1872.77,1432.58Z" transform="translate(-128.88 -160.72)"/><path class="cls-6" d="M1876.73,1434.74v18.91a6.11,6.11,0,0,1-2.85,1.91v-22.72A6.09,6.09,0,0,1,1876.73,1434.74Z" transform="translate(-128.88 -160.72)"/><path class="cls-5" d="M1898.25,1414.18v13.22a4.54,4.54,0,0,1-1,2.84h0l-.27.32a6,6,0,0,1-1.34,1,6.55,6.55,0,0,1-.8.38h0a4.11,4.11,0,0,1-.42.15,5.79,5.79,0,0,1-1.11.26,6.35,6.35,0,0,1-1.07.08H1641.46c-3,0-5.55-1.89-6-4.33a4.23,4.23,0,0,1,0-.5,2.26,2.26,0,0,1,0-.26v-13.22a2.26,2.26,0,0,1,0-.26c.15-2.47,2.44-4.5,5.34-4.79a5.63,5.63,0,0,1,.71,0h250.73a7.59,7.59,0,0,1,1.07.08,7.81,7.81,0,0,1,1.11.26,6.26,6.26,0,0,1,2.57,1.59l.27.32h0A4.54,4.54,0,0,1,1898.25,1414.18Z" transform="translate(-128.88 -160.72)"/><path class="cls-6" d="M1775.14,1432.49H1640.81a5.36,5.36,0,0,1-5.2-3.79,4.77,4.77,0,0,1-.15-.54,4.23,4.23,0,0,1,0-.5,2.26,2.26,0,0,1,0-.26v-13.22a2.26,2.26,0,0,1,0-.26,5.25,5.25,0,0,1,4.76-4.79,4.58,4.58,0,0,1,.64,0h117.83s0,0,0,0A41,41,0,0,0,1775.14,1432.49Z" transform="translate(-128.88 -160.72)"/><rect class="cls-6" x="1736.02" y="1248.37" width="2.85" height="23.41"/><rect class="cls-6" x="1726.37" y="1248.37" width="2.85" height="23.41"/><rect class="cls-6" x="1714.8" y="1248.37" width="2.85" height="23.41"/><rect class="cls-6" x="1697.07" y="1248.37" width="2.85" height="23.41"/><rect class="cls-6" x="1678.32" y="1248.37" width="2.85" height="23.41"/><rect class="cls-6" x="1649.58" y="1248.37" width="2.85" height="23.41"/><rect class="cls-6" x="1622.67" y="1248.37" width="2.85" height="23.41"/><rect class="cls-6" x="1598.64" y="1248.37" width="2.85" height="23.41"/><rect class="cls-6" x="1745.2" y="1248.37" width="2.85" height="23.41"/><rect class="cls-6" x="1751.26" y="1248.37" width="2.85" height="23.41"/><rect class="cls-6" x="1757.12" y="1248.37" width="2.85" height="23.41"/><path class="cls-6" d="M1893.26,1409.17v23.24a7.59,7.59,0,0,1-1.07.08h-1.78v-23.4h1.78A7.59,7.59,0,0,1,1893.26,1409.17Z" transform="translate(-128.88 -160.72)"/><path class="cls-6" d="M1897.21,1411.34v18.9a6,6,0,0,1-2.84,1.91v-22.72A6,6,0,0,1,1897.21,1411.34Z" transform="translate(-128.88 -160.72)"/><path class="cls-5" d="M1865.33,1390.82V1404a4.44,4.44,0,0,1-1,2.84,5.94,5.94,0,0,1-2.85,1.91,5.79,5.79,0,0,1-1.11.26l-.35,0h0l-.24,0H1608.55a6.38,6.38,0,0,1-5.16-2.43,4.59,4.59,0,0,1-.9-2.41,2.35,2.35,0,0,1,0-.26v-13.21a2.26,2.26,0,0,1,0-.27,5.38,5.38,0,0,1,4.3-4.61,6.79,6.79,0,0,1,1.76-.22h251l.16,0a5.61,5.61,0,0,1,.59.06,6.65,6.65,0,0,1,1.11.26,4.65,4.65,0,0,1,.52.2h0a6,6,0,0,1,1.76,1.1l0,0,.07.07a4.52,4.52,0,0,1,1.51,3.36Z" transform="translate(-128.88 -160.72)"/><path class="cls-6" d="M1742.22,1409.13H1607.9a5.52,5.52,0,0,1-4.52-2.31,4.83,4.83,0,0,1-.89-2.53,2.35,2.35,0,0,1,0-.26v-13.21a2.26,2.26,0,0,1,0-.27,5.21,5.21,0,0,1,4.32-4.72,5.6,5.6,0,0,1,1.09-.11h117.82c0,.18.11.36.16.54a41,41,0,0,0,16.28,22.83Z" transform="translate(-128.88 -160.72)"/><rect class="cls-6" x="1703.1" y="1225" width="2.85" height="23.41"/><rect class="cls-6" x="1693.45" y="1225" width="2.85" height="23.41"/><rect class="cls-6" x="1681.89" y="1225" width="2.85" height="23.41"/><rect class="cls-6" x="1664.16" y="1225" width="2.85" height="23.41"/><rect class="cls-6" x="1645.41" y="1225" width="2.85" height="23.41"/><rect class="cls-6" x="1616.66" y="1225" width="2.85" height="23.41"/><rect class="cls-6" x="1589.75" y="1225" width="2.85" height="23.41"/><rect class="cls-6" x="1565.72" y="1225" width="2.85" height="23.41"/><rect class="cls-6" x="1712.28" y="1225" width="2.85" height="23.41"/><rect class="cls-6" x="1718.35" y="1225" width="2.85" height="23.41"/><rect class="cls-6" x="1724.2" y="1225" width="2.85" height="23.41"/><path class="cls-6" d="M1860.34,1385.8V1409a6.27,6.27,0,0,1-1.07.08h-1.78v-23.4h1.78A7.48,7.48,0,0,1,1860.34,1385.8Z" transform="translate(-128.88 -160.72)"/><path class="cls-6" d="M1864.3,1388v18.9a6.06,6.06,0,0,1-2.85,1.91v-22.72A6.06,6.06,0,0,1,1864.3,1388Z" transform="translate(-128.88 -160.72)"/><path class="cls-5" d="M1883.77,1368v13.21a4.48,4.48,0,0,1-1,2.85,6.08,6.08,0,0,1-2.85,1.91,7.5,7.5,0,0,1-1.11.26,7.37,7.37,0,0,1-1.07.08H1627a7.08,7.08,0,0,1-2.71-.54,5.23,5.23,0,0,1-3.33-4.09c0-.06,0-.13,0-.2v-13.75c.16-2.48,2.45-4.5,5.35-4.79a5.53,5.53,0,0,1,.71,0H1877.7a7.37,7.37,0,0,1,1.07.08,6.43,6.43,0,0,1,1.11.27,6,6,0,0,1,2.85,1.9A4.5,4.5,0,0,1,1883.77,1368Z" transform="translate(-128.88 -160.72)"/><path class="cls-6" d="M1760.65,1386.26H1626.33a5.64,5.64,0,0,1-2.41-.54,5.13,5.13,0,0,1-3-4.09c0-.06,0-.13,0-.2v-13.75a5.26,5.26,0,0,1,4.77-4.79,4.58,4.58,0,0,1,.64,0h117.83v0a41.08,41.08,0,0,0,15.71,22.83Z" transform="translate(-128.88 -160.72)"/><rect class="cls-6" x="1721.53" y="1202.13" width="2.85" height="23.41"/><rect class="cls-6" x="1711.89" y="1202.13" width="2.85" height="23.41"/><rect class="cls-6" x="1700.32" y="1202.13" width="2.85" height="23.41"/><rect class="cls-6" x="1682.59" y="1202.13" width="2.85" height="23.41"/><rect class="cls-6" x="1663.84" y="1202.13" width="2.85" height="23.41"/><rect class="cls-6" x="1635.1" y="1202.13" width="2.85" height="23.41"/><rect class="cls-6" x="1608.19" y="1202.13" width="2.85" height="23.41"/><rect class="cls-6" x="1584.16" y="1202.13" width="2.85" height="23.41"/><rect class="cls-6" x="1730.71" y="1202.13" width="2.85" height="23.41"/><rect class="cls-6" x="1736.78" y="1202.13" width="2.85" height="23.41"/><rect class="cls-6" x="1742.64" y="1202.13" width="2.85" height="23.41"/><path class="cls-6" d="M1878.77,1362.93v23.25a7.34,7.34,0,0,1-1.06.08h-1.79v-23.41h1.79A7.34,7.34,0,0,1,1878.77,1362.93Z" transform="translate(-128.88 -160.72)"/><path class="cls-6" d="M1882.73,1365.1V1384a6,6,0,0,1-2.85,1.9v-22.72A6.08,6.08,0,0,1,1882.73,1365.1Z" transform="translate(-128.88 -160.72)"/><path class="cls-5" d="M1891.62,1344.58v13.21a4.5,4.5,0,0,1-1,2.85,6,6,0,0,1-2.85,1.9,6.66,6.66,0,0,1-1.11.27l-.35,0-.2,0H1634.83c-3.23,0-5.89-2.15-6.06-4.83,0-.09,0-.18,0-.27v-13.21c0-.09,0-.18,0-.27.17-2.68,2.83-4.83,6.06-4.83h250.72a7.48,7.48,0,0,1,1.07.08,6.66,6.66,0,0,1,1.11.27,6,6,0,0,1,2.85,1.9A4.5,4.5,0,0,1,1891.62,1344.58Z" transform="translate(-128.88 -160.72)"/><path class="cls-6" d="M1768.5,1362.89H1634.18a5.31,5.31,0,0,1-5.41-4.83c0-.09,0-.18,0-.27v-13.21c0-.09,0-.18,0-.27a5.31,5.31,0,0,1,5.41-4.83H1752a41.05,41.05,0,0,0,16.45,23.37Z" transform="translate(-128.88 -160.72)"/><rect class="cls-6" x="1729.38" y="1178.76" width="2.85" height="23.41"/><rect class="cls-6" x="1719.73" y="1178.76" width="2.85" height="23.41"/><rect class="cls-6" x="1708.17" y="1178.76" width="2.85" height="23.41"/><rect class="cls-6" x="1690.44" y="1178.76" width="2.85" height="23.41"/><rect class="cls-6" x="1671.69" y="1178.76" width="2.85" height="23.41"/><rect class="cls-6" x="1642.95" y="1178.76" width="2.85" height="23.41"/><rect class="cls-6" x="1616.03" y="1178.76" width="2.85" height="23.41"/><rect class="cls-6" x="1592" y="1178.76" width="2.85" height="23.41"/><rect class="cls-6" x="1738.56" y="1178.76" width="2.85" height="23.41"/><rect class="cls-6" x="1744.63" y="1178.76" width="2.85" height="23.41"/><rect class="cls-6" x="1750.48" y="1178.76" width="2.85" height="23.41"/><path class="cls-6" d="M1886.62,1339.56v23.25a7.48,7.48,0,0,1-1.07.08h-1.78v-23.41h1.78A7.48,7.48,0,0,1,1886.62,1339.56Z" transform="translate(-128.88 -160.72)"/><path class="cls-6" d="M1890.58,1341.73v18.91a6,6,0,0,1-2.85,1.9v-22.71A6,6,0,0,1,1890.58,1341.73Z" transform="translate(-128.88 -160.72)"/><path class="cls-16" d="M1812.14,1206.1s-13.16,18.54-25.24,18.79-30.44-8.59-30.44-8.59-11.08-24.7-3.56-34.37a16.14,16.14,0,0,1,15.42,2.53,23.79,23.79,0,0,1,4.08,3.91,13,13,0,0,0,6.34,4.3c8.61,2.62,18.84-3.54,22.66,2.41a40.58,40.58,0,0,0,6.66,7.88A30.76,30.76,0,0,0,1812.14,1206.1Z" transform="translate(-128.88 -160.72)"/><path class="cls-16" d="M1640.46,1339.83S1687,1227,1770.79,1224.89c0,0,77.34,8.6,81.63,114.94Z" transform="translate(-128.88 -160.72)"/><path class="cls-17" d="M1747.84,1228.34s33.58,7.47,43.94,3.08c0,0,1.57-14-12.57-12.08-9.69,1.35-16-3.3-19.7-5.19C1754.26,1211.48,1746.44,1222.46,1747.84,1228.34Z" transform="translate(-128.88 -160.72)"/><path class="cls-18" d="M1777.06,1207.17c-2.15,1.61-8.74-22.71-8.74-22.71a23.79,23.79,0,0,1,4.08,3.91,13,13,0,0,0,6.34,4.3C1778.76,1193.38,1779.15,1205.6,1777.06,1207.17Z" transform="translate(-128.88 -160.72)"/><path class="cls-18" d="M1808.06,1203c-.47.28-16,9.58-18.11,9.58s11.45-17.46,11.45-17.46A40.58,40.58,0,0,0,1808.06,1203Z" transform="translate(-128.88 -160.72)"/><path class="cls-19" d="M1685.93,1308.32c-.86-.74,33-49.77,42.25-50.13s30.23,10.74,45.37,12.18,29.82-2.87,32.69,6.08,10.74,40.69,5.9,45.77S1704.52,1324.2,1685.93,1308.32Z" transform="translate(-128.88 -160.72)"/><path class="cls-20" d="M1717.77,1478.56c0,.06,0,.12,0,.17a112.2,112.2,0,0,1-3.76,23.2v0c-.29,1.1-.61,2.19-.94,3.28a114.5,114.5,0,0,1-8.27,20.09,116.59,116.59,0,0,1-15.75,22.83c-.16.19-.33.39-.51.57a120.53,120.53,0,0,1-27.54,22.84q-3.35,2-6.85,3.87-2.37,1.24-4.77,2.38c-1.53.88-3.14,1.64-4.66,2.57a65.35,65.35,0,0,1-15.93,6.56v-10.29c0-.09,0-.18,0-.26s0-.34,0-.5a5.12,5.12,0,0,1,.15-.56,5.36,5.36,0,0,1,5.21-3.77h-26.81a5.37,5.37,0,0,1-5.2-3.79,4.94,4.94,0,0,1-.15-.55c0-.17,0-.33,0-.5a2.17,2.17,0,0,1,0-.26v-13.22a2.26,2.26,0,0,1,0-.26c0-.17,0-.33,0-.5a4.94,4.94,0,0,1,.15-.55,5.36,5.36,0,0,1,5.2-3.78h10.46a5.19,5.19,0,0,1-2.85-3.7c0-.11,0-.22,0-.33a1.64,1.64,0,0,1,0-.23,2.17,2.17,0,0,1,0-.26v-13.22a2.35,2.35,0,0,1,0-.26,4.1,4.1,0,0,1,.06-.49,3.7,3.7,0,0,1,.14-.55,5.36,5.36,0,0,1,5.21-3.79h6a5.38,5.38,0,0,1-5.21-3.78,3.53,3.53,0,0,1-.14-.56,4.1,4.1,0,0,1-.06-.49v-13.75a5.27,5.27,0,0,1,4.77-4.79H1607.9a5.3,5.3,0,0,1-5.41-4.83,2.35,2.35,0,0,1,0-.27v-13.21a2.44,2.44,0,0,1,0-.27,1.49,1.49,0,0,1,0-.21,5.23,5.23,0,0,1,4.2-4.49,5.31,5.31,0,0,1-4.7-4.35c0-.15,0-.29,0-.44a2.44,2.44,0,0,1,0-.27v-13.21a2.44,2.44,0,0,1,0-.27c0-.16,0-.32,0-.49s.09-.37.15-.56a5.37,5.37,0,0,1,5.2-3.78h10.46a5.17,5.17,0,0,1-2.85-3.7,3.11,3.11,0,0,1,0-.32,1.79,1.79,0,0,1,0-.23,2.35,2.35,0,0,1,0-.27v-13.21a2.44,2.44,0,0,1,0-.27,4.1,4.1,0,0,1,.06-.49,3.05,3.05,0,0,1,.14-.54,5.36,5.36,0,0,1,5.21-3.8h20.48a5.36,5.36,0,0,1-5.2-3.79,4.77,4.77,0,0,1-.15-.54,4.23,4.23,0,0,1,0-.5,2.26,2.26,0,0,1,0-.26v-13.22a2.26,2.26,0,0,1,0-.26,5.25,5.25,0,0,1,4.76-4.79H1607.9a5.52,5.52,0,0,1-4.52-2.31v-.12l3.4-20.76,0-.11,4.84-29.62a127.88,127.88,0,0,1,16.61,3.35l1,.26.07,0q4.76,1.32,9.39,3l.09,0a124.06,124.06,0,0,1,38.92,22.83c.2.17.41.35.6.54a117.63,117.63,0,0,1,16.33,17.58c1,1.28,1.92,2.59,2.84,3.92.3.44.61.88.9,1.33,0,0,0,0,0,0q2.22,3.27,4.22,6.72a114.77,114.77,0,0,1,7.93,16.64,110.93,110.93,0,0,1,6.08,22.83c0,.2.06.39.09.58A112,112,0,0,1,1717.77,1478.56Z" transform="translate(-128.88 -160.72)"/><path class="cls-21" d="M1458.78,1526a123.32,123.32,0,1,1,167.54,48.46A123.33,123.33,0,0,1,1458.78,1526Z" transform="translate(-128.88 -160.72)"/><path class="cls-5" d="M1621.53,1577q-2.28,1.38-4.63,2.69l-1.6.86c-1.22.65-2.43,1.27-3.66,1.88a123.34,123.34,0,0,1-126.4-210.8,125.83,125.83,0,0,1,12.59-7.95c1.58-.87,3.17-1.71,4.77-2.5s3.13-1.51,4.7-2.21a124,124,0,0,1,14.69-5.45,121.43,121.43,0,0,1,22.33-4.5,123.35,123.35,0,0,1,77.21,228Z" transform="translate(-128.88 -160.72)"/><path class="cls-6" d="M1558.22,1583.5a111.13,111.13,0,0,1-30.86-4.4,109.86,109.86,0,1,1,30.86,4.4Zm-.34-218a107.51,107.51,0,1,0,94.34,55.59A106.83,106.83,0,0,0,1557.88,1365.45Z" transform="translate(-128.88 -160.72)"/><path class="cls-6" d="M1612.41,1483.68c-.24-.6-.5-1.19-.77-1.77a32.3,32.3,0,0,0-7.48-10.68,33.34,33.34,0,0,0-11.77-6.93,56.17,56.17,0,0,0-15-2.81q-8.27-.51-18-.24a86.66,86.66,0,0,1-10.26-.2,25.86,25.86,0,0,1-7.22-1.58,12.7,12.7,0,0,1-4.82-3.27,17.12,17.12,0,0,1-3.07-5,18.77,18.77,0,0,1-1.39-5.93,12.7,12.7,0,0,1,.88-5.58,13.63,13.63,0,0,1,3.43-4.87,20.34,20.34,0,0,1,6.29-3.83q7.23-2.93,13.48.13t10.18,12.75l25.12-10.2a46.69,46.69,0,0,0-8.22-13.64,35.25,35.25,0,0,0-24.63-12.15,46.29,46.29,0,0,0-15.16,1.55l-7.12-17.52-13.9,5.64,7,17.28a52.26,52.26,0,0,0-12.77,9.09,38.8,38.8,0,0,0-8,11.22,31.07,31.07,0,0,0-3,12.67,37.16,37.16,0,0,0,10.93,26,32.94,32.94,0,0,0,11.76,6.89,55.7,55.7,0,0,0,15,2.71,177.38,177.38,0,0,0,18,0,66.82,66.82,0,0,1,9.8.07,25.46,25.46,0,0,1,7.18,1.59,13.49,13.49,0,0,1,5,3.42,18.23,18.23,0,0,1,3.38,5.58,15.18,15.18,0,0,1,1.2,6,12.64,12.64,0,0,1-1.34,5.67,15.92,15.92,0,0,1-4,5,24.23,24.23,0,0,1-6.74,4,29.07,29.07,0,0,1-7.38,1.91,16.9,16.9,0,0,1-7.44-.74,17.39,17.39,0,0,1-6.79-4.39,26.71,26.71,0,0,1-5.49-8.92l-25.12,10.2q3.93,9.69,9.88,15.36a35.43,35.43,0,0,0,13,8.12,39.71,39.71,0,0,0,14.79,2.13,62.56,62.56,0,0,0,15.24-2.51l6.48,16,13.82-5.62-6.52-16.06a56.24,56.24,0,0,0,12.9-9,38,38,0,0,0,7.78-10.17c.16-.29.3-.59.44-.89a30.73,30.73,0,0,0,3-12.61A34.07,34.07,0,0,0,1612.41,1483.68Z" transform="translate(-128.88 -160.72)"/><g class="cls-22"><path class="cls-23" d="M2438.32,1458.78s23.7-27.65,1.46-45.21c0,0-16.24-9.83-29.48-9,0,0,18.76,31.47,12.69,34.6s-18.38-36.57-18.38-36.57-37-3.59-48.86,2.13c0,0,31.6,25.86,24.95,27.4s-40.79-23.84-40.79-23.84-34.4,5.85-32.57,26.84,13.69,27.47,18.9,26.91,35.69-12.19,36.35-7.92-17.68,18.22-30.53,18.87c0,0,24.26,26.75,40.38,19s17.49-20,27.54-24.55,18.63-4.58,14.48.11-22.33,9.22-28.08,19.39-10.9,17,5.77,14.51,43.79-14.71,45-28.69Z" transform="translate(-128.88 -160.72)"/><path class="cls-23" d="M2324.25,1435.66s93.44-3.6,114.07,23.12c0,0,4.57,13.67,18.61,26.11l2.19,6s-16.19-17.07-22-18.11C2437.13,1472.75,2446.19,1439.65,2324.25,1435.66Z" transform="translate(-128.88 -160.72)"/><path class="cls-23" d="M2456.93,1484.89s20.06,14.83,21.45,41.34l-3.64.32s-6.41-27.4-18-38.12S2456.93,1484.89,2456.93,1484.89Z" transform="translate(-128.88 -160.72)"/><path class="cls-23" d="M2511.4,1436.16s-33.23-18.61-17.72-43.87c0,0,12.4-15.51,25.7-19.5,0,0-7.09,37.67,0,38.55s4.87-42.53,4.87-42.53,35-16.84,48.74-15.51c0,0-21.71,36.78-14.62,35.89s31.46-38.11,31.46-38.11,35.89-6.64,41.65,14.62-3.55,31.91-8.86,33.24-39.44.88-38.55,5.31,23.93,11.53,36.77,7.54c0,0-14.17,35-32.78,33.23s-24.37-13.29-35.9-14.18-19.93,2.22-14.17,5.32,25.25,1,34.56,8.92,16.83,12.79-.45,16.33-48.29,1.33-54.5-12Z" transform="translate(-128.88 -160.72)"/><path class="cls-23" d="M2615.08,1372.35s-93,30.13-103.68,63.81c0,0,.44,15.06-8.86,32.34v6.65s9.75-22.6,15.06-25.7C2517.6,1449.45,2496.78,1420.21,2615.08,1372.35Z" transform="translate(-128.88 -160.72)"/><path class="cls-23" d="M2502.54,1468.5s-14.35,21.79-6.17,48.32l3.69-1s-3.58-29.22,3.92-43.91S2502.54,1468.5,2502.54,1468.5Z" transform="translate(-128.88 -160.72)"/><path class="cls-24" d="M2461.21,1394.89s49.69-27.83,26.5-65.59c0,0-18.55-23.19-38.43-29.16,0,0,10.6,56.32,0,57.65s-7.29-63.61-7.29-63.61-52.34-25.18-72.88-23.19c0,0,32.46,55,21.86,53.67s-47-57-47-57-53.67-9.94-62.28,21.86,5.3,47.71,13.25,49.7,59,1.32,57.64,8-35.78,17.22-55,11.26c0,0,21.2,52.34,49,49.69s36.44-19.87,53.67-21.2,29.81,3.31,21.2,8-37.77,1.52-51.68,13.35-25.18,19.12.66,24.42,72.22,2,81.5-17.89Z" transform="translate(-128.88 -160.72)"/><path class="cls-24" d="M2306.16,1299.48s139.14,45.06,155.05,95.41c0,0-.67,22.53,13.25,48.37v9.94s-14.58-33.79-22.53-38.43C2451.93,1414.77,2483.07,1371,2306.16,1299.48Z" transform="translate(-128.88 -160.72)"/><path class="cls-24" d="M2474.46,1443.26s21.46,32.59,9.22,72.25l-5.52-1.48s5.36-43.69-5.87-65.66S2474.46,1443.26,2474.46,1443.26Z" transform="translate(-128.88 -160.72)"/><path class="cls-24" d="M2460,1592.65a85.81,85.81,0,0,1-85.81-85.81h171.62A85.81,85.81,0,0,1,2460,1592.65Z" transform="translate(-128.88 -160.72)"/><rect class="cls-23" x="2372.24" y="1506.83" width="176.39" height="2.63" transform="translate(4792 2855.58) rotate(180)"/><path class="cls-23" d="M2496.65,1592.65h-80.34a6.89,6.89,0,0,1,6.88-6.89h66.58a6.89,6.89,0,0,1,6.88,6.89Z" transform="translate(-128.88 -160.72)"/></g><path class="cls-4" d="M1937,1016.52c-110.41,89.9-242.69,159-393.16,205.39-122.23,37.67-257.65,60.76-402.52,68.62-39.5,2.14-78,3.08-115,3.08-74.9,0-143.95-3.81-204.13-9.11l24.35-115.2c83,6.76,182.09,10.31,289.16,4.5,136.33-7.39,263.3-29,377.35-64.12,137.25-42.31,257.29-104.83,356.76-185.84Z" transform="translate(-128.88 -160.72)"/><path class="cls-8" d="M1113.75,786.79c-15.35-8-27.66-3-27.66-3-47-5.52-60.68,49.27-60,68.12s2.79,39.1-18.19,63.59c-60.6,70.74,66.32,73.86,66.32,73.86,1.07-56.52,68.82-35.9,65.85-30.17C1226.88,980.08,1148.67,804.9,1113.75,786.79Z" transform="translate(-128.88 -160.72)"/><path class="cls-13" d="M932.54,1022.42s-8.27-12.58-14.92-12.82-19-3.7-18-1.24,8.64,2.72,9.37,4.19-11.34,3.7-14.79,4-11.59,0-11.35,1.73,14.67,8.87,24.85,7.89,22.75,3,22.75,3Z" transform="translate(-128.88 -160.72)"/><path class="cls-14" d="M1052,1026.49a124.16,124.16,0,0,1-12.63,19.11c-9.82,12.29-25,26.5-44,29.3-9.08,1.34-18-.61-26.12-4.24h0c-23.08-10.24-40.43-33.8-40.43-33.8a19,19,0,0,1,2.58-18.63s46.61,10.49,51.05,8.27,30.33-76.82,36.5-86.19,27.18-14.24,27.18-14.24Z" transform="translate(-128.88 -160.72)"/><path class="cls-9" d="M1039.38,1045.6c-9.82,12.29-25,26.5-44,29.3-9.08,1.34-18-.61-26.12-4.24.91.12,24,3,33.15-13.47,9.37-16.77,19.51-43.4,33.43-34.53C1041.89,1026.5,1041.62,1036,1039.38,1045.6Z" transform="translate(-128.88 -160.72)"/><path class="cls-25" d="M1225.9,1529.6s14.22,13,11.45,22.2-15.61,15.37-17.35,26.64-8.67,17.42-14.91,17.42h-29.77s-4.6-7.93,6.5-10.32,15.29-15.64,14.6-27.93,1-28.7,1-28.7l23.58-5.46Z" transform="translate(-128.88 -160.72)"/><path class="cls-26" d="M1105.53,1535.11s5.11,55-1.13,58.05l-79.91-.16s0-9.22,12.84-11.27,35.38-9.56,39.2-26.3S1105.53,1535.11,1105.53,1535.11Z" transform="translate(-128.88 -160.72)"/><path class="cls-13" d="M1162.47,1140.65c-16.44-36.88-26.51-47.46-24.58-58.91,1.42-8.52-4.36-158.83-4.36-158.83-2-.6-5.86-1.15-8-1.62a20.08,20.08,0,0,1-14.65-12.74c-2.8-7.84-5-19.41-5-33.92l-2.11.42-35.41,7s.8,11.15.83,21.65V904a20.38,20.38,0,0,1-14.7,19.7c-4.48,1.29-8.37,2.39-8.37,2.39s-13,37.13-15.49,75.27,23.65,54.71-.2,130.94C1006.12,1210.11,1171.55,1161,1162.47,1140.65Z" transform="translate(-128.88 -160.72)"/><path class="cls-27" d="M1068.39,882.06s.8,11.15.83,21.65c19.82-.56,30.29-18.64,34.58-28.66Z" transform="translate(-128.88 -160.72)"/><path class="cls-13" d="M1061.77,892s46.89.78,46.92-28.43,6.11-48.78-23.83-50.51-35.77,9.41-38.15,19.16S1049.57,891.05,1061.77,892Z" transform="translate(-128.88 -160.72)"/><path class="cls-8" d="M1063.5,812.35s12.84,34.26,32.54,39.33,28.25-.21,28.25-.21a55.84,55.84,0,0,1-18.25-33S1073.19,796,1063.5,812.35Z" transform="translate(-128.88 -160.72)"/><path class="cls-8" d="M1066.69,815.13s-9.53,3.56-13.44,10.5a47.11,47.11,0,0,0-6.34,26.81s-9.67-23.29,1.2-36.46C1059.63,802,1066.69,815.13,1066.69,815.13Z" transform="translate(-128.88 -160.72)"/><path class="cls-1" d="M1072,873.88a11.79,11.79,0,0,1-9.71,4,8.62,8.62,0,0,1-7.22-4.78S1064.61,870.76,1072,873.88Z" transform="translate(-128.88 -160.72)"/><path class="cls-14" d="M1167,989.4a318.43,318.43,0,0,1,0,36.93c-.8,13.36-14.3,31.24-16.22,35.67-4.81,11.1-10.23,12.9-10.23,12.9l-42,10.28-14.75,3.61-46.52-13.89s-21.19-59.14-12.68-92.43,21.51-56.41,21.51-56.41,38,37.17,87.38-3.15Z" transform="translate(-128.88 -160.72)"/><path class="cls-28" d="M1040.28,1083.88s-23,71.7-24.52,96.12,44,346.82,45.87,358.07c1.73,10.6,14.9,17.36,14.9,17.36s6,3.57,14.69,1.13c12-3.38,15.79-7.44,15.79-7.44s17.93-229.94,6.83-312.07a1300.46,1300.46,0,0,1-11.23-153.17Z" transform="translate(-128.88 -160.72)"/><path class="cls-26" d="M1137.89,1081.74s35.14,47.15,38.41,79,5.14,143.83,12.12,174.91,32.62,90.86,32.62,187.78c0,0-2.66,5.55-10.89,8.51a87.76,87.76,0,0,1-9.58,2.65,15.06,15.06,0,0,1-16.85-8c-17.34-34.9-72.56-147.48-75.39-170.85-2-16.54-19.45-126-57.48-190.23-9.13-15.41,5.6-76.74,5.6-76.74Z" transform="translate(-128.88 -160.72)"/><path class="cls-29" d="M1070.93,874.67s-.81,3.44-9.38,2.91c0,0-7.18-.45-7-4.23C1054.59,873.35,1061.56,870.66,1070.93,874.67Z" transform="translate(-128.88 -160.72)"/><path class="cls-28" d="M1036.6,1072.81s9.25,7.31,27.62,7.68c22,.45,76.32-5.59,76.32-5.59a44.88,44.88,0,0,1,2.32,13.88s-66.41,16.75-104.89,2.44C1038,1091.22,1033,1081.89,1036.6,1072.81Z" transform="translate(-128.88 -160.72)"/><path class="cls-29" d="M1059,1099.41c-5.53,0-10-5.09-10-11.34s4.49-11.33,10-11.33,10,5.08,10,11.33S1064.48,1099.41,1059,1099.41Zm0-19.35c-3.7,0-6.7,3.59-6.7,8s3,8,6.7,8,6.69-3.6,6.69-8S1062.65,1080.06,1059,1080.06Z" transform="translate(-128.88 -160.72)"/><rect class="cls-30" x="1092.36" y="1007.08" width="90.22" height="123.5" transform="translate(-551.14 849.02) rotate(-41.05)"/><path class="cls-13" d="M1125.2,1086s-24.93,2.91-24.85,8.83,6.21,18.08,9.29,18.62,20.29-16.45,20.29-16.45Z" transform="translate(-128.88 -160.72)"/><path class="cls-14" d="M1133.53,922.91s33.29,2.33,46,33.35,37,83.09,37,91.85-13.53,35.77-86.15,51.3c0,0-7.51-7.91-7.06-14.16,0,0,45.34-38.93,45.21-43.48-.23-8.61-7.43-20-47.23-59.79C1110.5,971.15,1133.53,922.91,1133.53,922.91Z" transform="translate(-128.88 -160.72)"/><path class="cls-31" d="M413.53,1595.78h-.32a3.46,3.46,0,0,1-3.46-3.53L415,1365.39l15.42-1.8-13.15,228.68A3.74,3.74,0,0,1,413.53,1595.78Z" transform="translate(-128.88 -160.72)"/><path class="cls-32" d="M661.46,1595.78h.33a3.44,3.44,0,0,0,3.45-3.53L660,1365.39l-15.42-1.8,13.15,228.68A3.73,3.73,0,0,0,661.46,1595.78Z" transform="translate(-128.88 -160.72)"/><path class="cls-32" d="M403.32,1351.32V1195.86a49.52,49.52,0,0,1,49.53-49.53h112a49.52,49.52,0,0,1,49.53,49.53v161.4Z" transform="translate(-128.88 -160.72)"/><path class="cls-31" d="M274.44,1190.6H505.57a0,0,0,0,1,0,0v24.54a0,0,0,0,1,0,0H289.31a14.87,14.87,0,0,1-14.87-14.87v-9.67A0,0,0,0,1,274.44,1190.6Z"/><rect class="cls-32" x="356.88" y="1190.6" width="185.6" height="24.54" rx="11"/><path class="cls-28" d="M654,1312.58c-16,27.93-36.23,38.71-36.23,38.71h-84S666.25,1291.28,654,1312.58Z" transform="translate(-128.88 -160.72)"/><path class="cls-13" d="M589.53,1528.65a7.76,7.76,0,0,0-1.39,8.3s0,0,0,0c2,5.53,8.62,11.71,16.31,17.88,1,.79,1.85,1.51,2.61,2.18l.59.53c.16.13.3.28.45.41,7.17,6.6,4.47,8.12,17.35,21.52,14.68,15.27,24.78,15.55,27.66,14.16,2.43-1.19-2.51-9.29-8-18.39-.26-.44-.52-.89-.8-1.33l-2.17-3.66c-6.42-11-4.77-16.1-3.25-32.41,1.24-13.25,20.62-74,20.62-74L631.4,1459s-8.47,48.41-17.8,55.86c-5,4-10.58,4-15.38,7-.34.2-.67.41-1,.63A36.81,36.81,0,0,0,589.53,1528.65Z" transform="translate(-128.88 -160.72)"/><path class="cls-28" d="M589.53,1528.65a7.76,7.76,0,0,0-1.39,8.3s0,0,0,0c2.46,5.52,8.91,11.67,16.33,17.82,1,.81,1.83,1.55,2.59,2.24l.59.53c.16.13.3.28.45.41,7.17,6.6,4.47,8.12,17.35,21.52,14.68,15.27,24.78,15.55,27.66,14.16,2.43-1.19-2.51-9.29-8-18.39A62.64,62.64,0,0,1,619,1556c-8.83-11.28-14.73-25.77-20.75-34.16-.34.2-.67.41-1,.63A36.81,36.81,0,0,0,589.53,1528.65Z" transform="translate(-128.88 -160.72)"/><path class="cls-13" d="M816.37,1511.08c1.73,8.69,14.11,7.24,27.94,3.86s10.54.64,30.22-1.54,25.65-9.52,26.25-12.45c.53-2.59-9.19-3.51-19.62-4.71l-3.95-.47c-11.78-1.48-20.4-9.08-31.1-15.32-10.13-5.91-25.25-30-25.25-30l-27,2.14s14.16,21.51,19.64,30.87c3.22,5.5,3,12.77,2.65,18.39A34.41,34.41,0,0,0,816.37,1511.08Z" transform="translate(-128.88 -160.72)"/><path class="cls-28" d="M844.31,1514.94c13.83-3.38,10.54.64,30.22-1.54s25.65-9.52,26.25-12.45c.53-2.59-9.19-3.51-19.62-4.71l-.1.2a55.45,55.45,0,0,1-28.19,8.76c-13.35.33-27.49-3.5-36.71-3.35a34.41,34.41,0,0,0,.21,9.23C818.1,1519.77,830.48,1518.32,844.31,1514.94Z" transform="translate(-128.88 -160.72)"/><path class="cls-28" d="M712.93,1338.49l-25.24,67.9L654.75,1495a53.13,53.13,0,0,1-17.5-1.6c-7.88-2.27-16.92-8.23-16.92-8.23s9.14-95.19,26.21-149.83c4.37-14,9.27-25.38,14.68-31.76C687.67,1272.36,712.93,1338.49,712.93,1338.49Z" transform="translate(-128.88 -160.72)"/><path class="cls-26" d="M687.27,1230.66c-16.53-5.33-63.68,1.52-111,10.79l-9.91-16.36-102.3-8s-33.76,74.86-15.28,122.56c2.72,7,8.12,11.51,17.32,11.66h1.49l80.66,0c50.87,0,107.67-35,115-36.44,12-2.4,16.84,21.65,28.86,46.9s113,111.84,113,111.84,15.53.15,21.94-2.25c6.9-2.59,9.42-5.95,9.42-5.95S724.55,1242.69,687.27,1230.66Z" transform="translate(-128.88 -160.72)"/><path class="cls-30" d="M562.29,927.22c-13.1-6.88-33-7.81-36.28-8.25-38.76-5.21-62.1,51.12-63.47,68.19-2.53,31.46-19.17,36.26-42.59,56-47,39.5-33.2,85.41-7.52,102.46,15.41,10.24,42.57,0,42.57,0,.39.27,74.29-41.31,110.72-61.37C620.33,1076.45,595.69,944.76,562.29,927.22Z" transform="translate(-128.88 -160.72)"/><path class="cls-13" d="M535.18,1067.14c.16.11-17.92,6.28-30,.92-11.38-5-20-23.74-19.83-23.75,5.18-.24,10.86-4.76,15.24-34.45l2.2.79L539.83,1024s-2.69,11.88-4.42,23.2C534,1056.69,533.16,1065.8,535.18,1067.14Z" transform="translate(-128.88 -160.72)"/><path class="cls-33" d="M539.83,1024s-2.69,11.88-4.42,23.2c-21.28-3.83-29.63-25-32.63-36.54Z" transform="translate(-128.88 -160.72)"/><path class="cls-13" d="M545.35,1035.78s-50.69-6.8-46-38.3,1.36-53.6,33.92-50.59,37,16,38,26.88S558.65,1036.74,545.35,1035.78Z" transform="translate(-128.88 -160.72)"/><path class="cls-30" d="M569.47,956.5S537,984.46,515,986.72s-30.43-4.83-30.43-4.83a86.3,86.3,0,0,0,20.84-28.24,15.53,15.53,0,0,1,12.8-9.15C533.92,943.14,563.79,942.52,569.47,956.5Z" transform="translate(-128.88 -160.72)"/><path class="cls-30" d="M549.19,954s10.85,10.5,14.27,18.29c3.3,7.51,4.29,25.48,1.66,32.61,0,0,16.92-32.89,7.34-48.86C562.31,939.08,549.19,954,549.19,954Z" transform="translate(-128.88 -160.72)"/><path class="cls-2" d="M577.87,1141.81c-1.53,102.61-.42,81.17-11.65,90.91-2.7,2.34-10.31,3.74-20.31,4.4-31.46,2.09-86.77-3.1-88.88-8.91-7.25-20.12-2.13-26.37-8.19-57.17-.63-3.28-1.41-6.82-2.33-10.69-5-21.15-10-28.35,7.95-62.34,16.25-30.78,33.12-55.77,34.64-54.87,42.85,25.44,46.31,4.06,46.31,4.06S578.62,1091.76,577.87,1141.81Z" transform="translate(-128.88 -160.72)"/><path class="cls-26" d="M687.69,1406.39,654.75,1495a53.13,53.13,0,0,1-17.5-1.6c-7.88-2.27-16.92-8.23-16.92-8.23s9.14-95.19,26.21-149.83Z" transform="translate(-128.88 -160.72)"/><path class="cls-2" d="M535.41,1047.19s44.09,7.48,49.27,26.46,35.65,130.59,35.65,130.59-22.42,4-32.77-6.32-36-96.08-36-96.08Z" transform="translate(-128.88 -160.72)"/><path class="cls-34" d="M545.91,1237.12c-31.46,2.09-86.77-3.1-88.88-8.91-7.25-20.12-2.13-26.37-8.19-57.17L464,1128.3s-2.51,47.59,11.52,60.11S533,1212.57,539.82,1223C543.11,1228,545.28,1233.08,545.91,1237.12Z" transform="translate(-128.88 -160.72)"/><path class="cls-13" d="M509.86,1217.1s31-6.91,36-4.15,17.25,12.78,18.78,16.28-11.15-2.65-15.28-3.76c-2.67-.72-9.7,1.73-13.18,2.89-14.65,4.88-23.63,2.37-23.63,2.37Z" transform="translate(-128.88 -160.72)"/><path class="cls-2" d="M489.07,1043.12s-41.68,2.57-56.11,22.69c-20.31,28.33-60.6,149-37.51,165.16,26,18.13,118.35,4.74,118.35,4.74s3.08-14.37-1.2-21.31-73.76-18.18-77-21.38,40.08-62.54,40.08-72.16S489.07,1043.12,489.07,1043.12Z" transform="translate(-128.88 -160.72)"/><path class="cls-13" d="M547.41,1221.59s6.5,8.39,8.64,9.39a6.37,6.37,0,0,0,3.51.75l-4.39-7.89Z" transform="translate(-128.88 -160.72)"/><path class="cls-13" d="M545.91,1213l18.91,9.18a3.37,3.37,0,0,1-3.13,1.21c-2.33-.11-8.21-2.25-8.21-2.25Z" transform="translate(-128.88 -160.72)"/><polygon class="cls-4" points="420.33 1083.11 579.86 1083.11 627.85 971.22 468.56 971.22 420.33 1083.11"/><polygon class="cls-4" points="581.73 1075.86 371.06 1075.86 371.06 1082.93 579.86 1082.93 581.73 1075.86"/><path class="cls-1" d="M668.47,1187.88c1.2-3.93-1.22-7.12-5.42-7.12a10.79,10.79,0,0,0-9.77,7.12c-1.2,3.94,1.22,7.13,5.42,7.13A10.79,10.79,0,0,0,668.47,1187.88Z" transform="translate(-128.88 -160.72)"/><path class="cls-28" d="M944.63,1598.9h.43a4.83,4.83,0,0,0,4.57-5.15l-6.93-331-20.39-2.63,17.39,333.66A5.17,5.17,0,0,0,944.63,1598.9Z" transform="translate(-128.88 -160.72)"/><path class="cls-28" d="M514.82,1598.9h-.44a4.82,4.82,0,0,1-4.56-5.15l6.92-331,20.39-2.63-17.39,333.66A5.17,5.17,0,0,1,514.82,1598.9Z" transform="translate(-128.88 -160.72)"/><rect class="cls-28" x="351.86" y="1083.11" width="479.34" height="23.69" rx="7.43"/><rect class="cls-35" x="0.31" y="1431.93" width="2525.05" height="10.77" rx="3.63"/></svg>