<?xml version="1.0" encoding="utf-8"?>
<!-- Generator: Adobe Illustrator 25.4.1, SVG Export Plug-In . SVG Version: 6.00 Build 0)  -->
<svg version="1.1" id="Capa_1" xmlns="http://www.w3.org/2000/svg" xmlns:xlink="http://www.w3.org/1999/xlink" x="0px" y="0px"
	 viewBox="0 0 1126.72 841.89" style="enable-background:new 0 0 1126.72 841.89;" xml:space="preserve">
<style type="text/css">
	.st0{fill:#EAF3FA;}
	.st1{fill:#8D9ACE;}
	.st2{fill:#BECFEC;}
	.st3{fill:#EF7C4A;}
	.st4{fill:#FAB841;}
	.st5{fill:#F6A220;}
	.st6{fill:#7896CD;}
	.st7{fill:#19365E;}
	.st8{fill:#EE7D2C;}
	.st9{fill:#2E5B9A;}
	.st10{fill:#14427C;}
	.st11{fill:#1C478A;}
	.st12{fill:#F7B17F;}
	.st13{fill:#F49749;}
	.st14{fill:#F5A46D;}
	.st15{fill:#FEECDD;}
	.st16{fill:#DA6A1D;}
	.st17{fill:#E5C1A2;}
	.st18{fill:#F9DDBF;}
	.st19{opacity:0.5;fill:#E2820E;}
	.st20{fill:#E2820E;}
	.st21{opacity:0.7;}
	.st22{fill:#7AA2D6;}
	.st23{fill:#A0BFE5;}
	.st24{fill:#375A9F;}
	.st25{fill:#2C488C;}
	.st26{fill:#E8945B;}
	.st27{fill:#243862;}
	.st28{fill:#FFFFFF;}
	.st29{fill:#B6463D;}
	.st30{fill:#98BEE6;}
	.st31{fill:#B2D1F0;}
	.st32{fill:#EE985E;}
	.st33{fill:#687BBB;}
	.st34{fill:#2E3552;}
</style>
<g>
	<path class="st0" d="M51.99,644.15c0.26-4.25-107.26-131.74,17.95-249.45c56.52-53.14,152.14-24.35,137.01-179.57
		C193.9,81.1,419.44,2.35,559.61,122.01c90.56,77.31,182.24-25.83,325.92,32.69c143.67,58.52,49.06,217.57,108.02,232.56
		c116.13,29.52,173.81,159.44,81.22,255.44L51.99,644.15z"/>
	<g>
		<path class="st1" d="M536.09,334.29c-0.61-1.17-1.28-2.35-2-3.52l2.02-1.07c0.74,1.21,1.44,2.44,2.07,3.65L536.09,334.29z
			 M531.86,327.36c-0.77-1.1-1.59-2.2-2.45-3.28l1.88-1.28c0.88,1.11,1.73,2.25,2.52,3.38L531.86,327.36z M300.77,351.2
			c-1.47,0.15-2.95,0.26-4.4,0.34l-0.14-2.16c1.41-0.08,2.85-0.19,4.29-0.33L300.77,351.2z M305.15,350.66l-0.36-2.14
			c1.4-0.2,2.83-0.44,4.24-0.7l0.46,2.12C308.04,350.22,306.58,350.46,305.15,350.66z M291.96,351.68
			c-1.48,0.01-2.97-0.02-4.42-0.08l0.11-2.16c1.41,0.06,2.85,0.09,4.29,0.08L291.96,351.68z M313.79,349.06l-0.55-2.1
			c1.38-0.31,2.78-0.66,4.17-1.03l0.64,2.08C316.63,348.38,315.2,348.74,313.79,349.06z M283.13,351.3
			c-1.47-0.14-2.95-0.32-4.39-0.54l0.37-2.13c1.39,0.21,2.82,0.39,4.25,0.52L283.13,351.3z M322.26,346.8l-0.73-2.05
			c1.35-0.41,2.72-0.86,4.08-1.32l0.81,2.03C325.03,345.93,323.63,346.38,322.26,346.8z M330.51,343.97l-0.88-2
			c1.32-0.5,2.65-1.03,3.97-1.58l0.95,1.97C333.21,342.92,331.85,343.46,330.51,343.97z M274.4,349.97
			c-1.45-0.31-2.89-0.65-4.29-1.04l0.66-2.07c1.35,0.37,2.74,0.71,4.14,1L274.4,349.97z M526.77,320.92
			c-0.9-1.02-1.85-2.04-2.81-3.03l1.72-1.45c0.99,1.01,1.96,2.06,2.89,3.11L526.77,320.92z M338.54,340.64l-1.02-1.95
			c1.28-0.58,2.58-1.19,3.86-1.81l1.08,1.92C341.16,339.43,339.84,340.05,338.54,340.64z M265.9,347.63c-1.39-0.48-2.77-1-4.11-1.56
			l0.96-1.97c1.29,0.54,2.62,1.05,3.96,1.51L265.9,347.63z M346.32,336.86l-1.14-1.89c1.24-0.65,2.5-1.32,3.75-2.01l1.19,1.86
			C348.86,335.51,347.58,336.2,346.32,336.86z M520.99,315c-1.01-0.94-2.06-1.86-3.12-2.75l1.56-1.61c1.09,0.91,2.17,1.86,3.2,2.82
			L520.99,315z M257.81,344.24c-1.3-0.65-2.59-1.36-3.83-2.1l1.25-1.82c1.19,0.71,2.43,1.39,3.68,2.01L257.81,344.24z
			 M353.87,332.68l-1.24-1.83c1.2-0.71,2.42-1.44,3.63-2.19l1.29,1.8C356.32,331.22,355.08,331.97,353.87,332.68z M361.17,328.16
			l-1.34-1.77c1.17-0.76,2.35-1.55,3.52-2.35l1.38,1.74C363.55,326.59,362.35,327.39,361.17,328.16z M250.34,339.79
			c-1.18-0.83-2.34-1.71-3.45-2.61l1.54-1.62c1.06,0.87,2.17,1.71,3.31,2.51L250.34,339.79z M514.6,309.64
			c-1.1-0.84-2.24-1.67-3.39-2.46l1.39-1.74c1.18,0.81,2.35,1.66,3.48,2.52L514.6,309.64z M368.23,323.33l-1.42-1.71l0.35-0.25
			c1.05-0.75,2.09-1.49,3.13-2.22l1.39,1.73c-1.03,0.72-2.07,1.45-3.11,2.2L368.23,323.33z M507.7,304.87
			c-1.18-0.74-2.41-1.46-3.63-2.15l1.2-1.85c1.26,0.7,2.51,1.45,3.72,2.21L507.7,304.87z M243.68,334.32
			c-1.03-0.99-2.02-2.02-2.96-3.08l1.79-1.38c0.9,1.01,1.85,2.01,2.84,2.95L243.68,334.32z M375.18,318.49l-1.36-1.76
			c1.19-0.79,2.39-1.58,3.58-2.35l1.32,1.78C377.55,316.93,376.35,317.71,375.18,318.49z M500.33,300.74
			c-1.25-0.63-2.54-1.24-3.83-1.82l1.01-1.95c1.32,0.59,2.64,1.22,3.93,1.87L500.33,300.74z M382.32,313.92l-1.28-1.8
			c1.23-0.75,2.47-1.5,3.68-2.21l1.24,1.83C384.75,312.44,383.53,313.17,382.32,313.92z M238.03,327.95
			c-0.84-1.12-1.65-2.3-2.4-3.48l2.01-1.09c0.72,1.14,1.49,2.26,2.3,3.34L238.03,327.95z M389.65,309.63l-1.2-1.86
			c1.25-0.7,2.53-1.39,3.79-2.05l1.15,1.88C392.15,308.26,390.89,308.94,389.65,309.63z M492.58,297.27c-1.32-0.52-2.66-1.01-4-1.47
			l0.81-2.03c1.37,0.47,2.75,0.98,4.1,1.51L492.58,297.27z M397.18,305.65l-1.1-1.91c1.29-0.64,2.6-1.27,3.89-1.88l1.05,1.93
			C399.74,304.4,398.45,305.02,397.18,305.65z M484.51,294.5c-1.36-0.4-2.75-0.77-4.13-1.11l0.6-2.09c1.42,0.35,2.84,0.73,4.24,1.14
			L484.51,294.5z M404.92,302.04l-0.99-1.96c1.33-0.58,2.67-1.15,4-1.68l0.93,1.98C407.55,300.91,406.22,301.47,404.92,302.04z
			 M233.54,320.81c-0.64-1.23-1.24-2.51-1.77-3.79l2.17-0.79c0.51,1.23,1.09,2.45,1.7,3.64L233.54,320.81z M476.19,292.45
			c-1.39-0.28-2.81-0.53-4.23-0.75l0.38-2.13c1.45,0.22,2.91,0.48,4.33,0.77L476.19,292.45z M412.84,298.83l-0.87-2.01
			c1.36-0.51,2.74-1,4.1-1.46l0.8,2.03C415.54,297.84,414.18,298.33,412.84,298.83z M467.71,291.14c-1.42-0.16-2.86-0.29-4.28-0.38
			l0.17-2.16c1.46,0.1,2.94,0.23,4.39,0.39L467.71,291.14z M420.96,296.06l-0.73-2.05c1.4-0.43,2.81-0.84,4.2-1.22l0.66,2.07
			C423.72,295.24,422.33,295.64,420.96,296.06z M459.12,290.55c-1.42-0.04-2.87-0.05-4.31-0.03l-0.03-2.16
			c1.47-0.02,2.95-0.01,4.41,0.03L459.12,290.55z M429.25,293.8l-0.58-2.09c1.42-0.34,2.86-0.66,4.28-0.95l0.5,2.11
			C432.05,293.15,430.64,293.47,429.25,293.8z M450.51,290.67c-1.42,0.08-2.87,0.18-4.3,0.31l-0.23-2.15
			c1.46-0.13,2.94-0.24,4.39-0.32L450.51,290.67z M437.68,292.09l-0.41-2.13c1.45-0.24,2.91-0.46,4.35-0.65l0.32,2.14
			C440.53,291.64,439.09,291.85,437.68,292.09z M230.31,313.11c-0.43-1.3-0.81-2.65-1.13-4l2.27-0.47c0.31,1.29,0.68,2.59,1.08,3.84
			L230.31,313.11z M228.37,305.06c-0.08-0.5-0.15-0.99-0.21-1.49c-0.11-0.86-0.2-1.74-0.28-2.61l2.32-0.16
			c0.07,0.83,0.16,1.68,0.26,2.51c0.06,0.48,0.13,0.96,0.21,1.44L228.37,305.06z M230.03,296.82l-2.33,0.02
			c-0.01-1.36,0.03-2.74,0.11-4.12l2.32,0.13C230.05,294.17,230.02,295.51,230.03,296.82z M230.52,288.87l-2.31-0.26
			c0.17-1.33,0.39-2.68,0.65-4.01l2.3,0.33l-0.02,0.08C230.9,286.28,230.69,287.58,230.52,288.87z M232.03,281l-2.27-0.48
			c0.32-1.33,0.68-2.67,1.06-3.98l2.25,0.57C232.69,278.39,232.34,279.7,232.03,281z M311.61,270.06c-1.54,0.14-3.06,0.17-4.52,0.11
			l0.11-2.16c1.35,0.06,2.76,0.02,4.19-0.1L311.61,270.06z M316.05,269.4l-0.5-2.11c1.35-0.28,2.72-0.63,4.08-1.06l0.74,2.05
			C318.94,268.74,317.48,269.11,316.05,269.4z M302.58,269.62c-1.53-0.31-3-0.75-4.36-1.31l0.93-1.98c1.22,0.5,2.54,0.89,3.92,1.17
			L302.58,269.62z M324.53,266.76l-0.96-1.97c1.28-0.54,2.55-1.14,3.78-1.8l1.16,1.88C327.22,265.56,325.88,266.19,324.53,266.76z
			 M332.28,262.64l-1.34-1.77c1.16-0.76,2.29-1.57,3.36-2.42l1.51,1.64C334.69,260.99,333.5,261.85,332.28,262.64z M234.28,273.28
			l-2.22-0.66c0.45-1.3,0.93-2.6,1.44-3.87l2.18,0.75C235.19,270.73,234.72,272.01,234.28,273.28z M294.23,266.17
			c-1.23-0.85-2.37-1.84-3.36-2.94l1.78-1.39c0.88,0.97,1.88,1.85,2.97,2.6L294.23,266.17z M339.07,257.25l-1.67-1.5
			c0.99-0.95,1.93-1.95,2.79-2.97l1.83,1.34C341.1,255.2,340.11,256.25,339.07,257.25z M237.27,265.77l-2.14-0.84
			c0.57-1.26,1.18-2.51,1.81-3.74l2.1,0.93C238.42,263.32,237.83,264.55,237.27,265.77z M288.31,259.68
			c-0.68-1.21-1.27-2.53-1.73-3.92l2.22-0.64c0.42,1.27,0.95,2.46,1.57,3.56L288.31,259.68z M344.6,250.72l-1.97-1.15
			c0.75-1.12,1.44-2.27,2.05-3.43l2.1,0.94C346.13,248.31,345.4,249.54,344.6,250.72z M240.97,258.55l-2.05-1.02
			c0.69-1.2,1.42-2.4,2.17-3.57l2,1.11C242.36,256.21,241.65,257.38,240.97,258.55z M285.57,251.66c-0.06-0.38-0.12-0.76-0.17-1.15
			c-0.13-0.97-0.21-1.98-0.25-3.01l2.32-0.08c0.04,0.97,0.12,1.92,0.24,2.83c0.05,0.36,0.1,0.72,0.16,1.07L285.57,251.66z
			 M348.48,243.22l-2.2-0.7c0.46-1.24,0.84-2.51,1.13-3.77l2.28,0.45C349.38,240.54,348.97,241.9,348.48,243.22z M245.38,251.68
			l-1.94-1.19c0.8-1.13,1.65-2.26,2.52-3.37l1.88,1.27C246.99,249.47,246.16,250.58,245.38,251.68z M287.49,243.45l-2.32-0.08
			c0.06-1.38,0.17-2.77,0.33-4.11l2.31,0.23C287.65,240.79,287.54,242.12,287.49,243.45z M350.35,235.05l-2.32-0.19
			c0.12-1.29,0.15-2.61,0.1-3.91l2.32-0.08C350.52,232.27,350.48,233.68,350.35,235.05z M250.45,245.22l-1.81-1.35
			c0.91-1.06,1.87-2.12,2.84-3.14l1.75,1.43C252.27,243.15,251.34,244.18,250.45,245.22z M256.14,239.21l-1.68-1.5
			c1.02-0.98,2.07-1.95,3.13-2.89l1.6,1.57C258.16,237.3,257.13,238.25,256.14,239.21z M288.42,235.57l-2.29-0.39
			c0.27-1.36,0.6-2.71,0.98-4.03l2.25,0.56C288.99,232.97,288.68,234.27,288.42,235.57z M347.62,227.15
			c-0.31-1.25-0.78-2.45-1.37-3.56l2.08-0.96c0.68,1.26,1.2,2.62,1.56,4.04L347.62,227.15z M262.38,233.7l-1.53-1.63
			c1.1-0.89,2.24-1.77,3.39-2.62l1.45,1.69C264.57,231.97,263.46,232.83,262.38,233.7z M290.61,227.93l-2.19-0.72
			c0.5-1.3,1.05-2.59,1.66-3.83l2.12,0.89C291.62,225.46,291.09,226.69,290.61,227.93z M344.01,220.43
			c-0.86-0.95-1.86-1.83-2.97-2.62l1.42-1.71c1.25,0.89,2.37,1.88,3.33,2.94L344.01,220.43z M269.13,228.72l-1.36-1.75
			c1.19-0.8,2.41-1.58,3.63-2.33l1.28,1.8C271.48,227.17,270.29,227.94,269.13,228.72z M276.32,224.31l-1.2-1.85
			c1.26-0.7,2.55-1.38,3.83-2.03l1.11,1.9C278.81,222.96,277.55,223.63,276.32,224.31z M294.1,220.73l-2.04-1.05
			c0.63-1.06,1.31-2.11,2.02-3.14c-0.77,0.25-1.53,0.51-2.29,0.78l-0.83-2.02c1.38-0.49,2.78-0.95,4.16-1.37l0.72,2.06
			c-0.39,0.12-0.78,0.24-1.17,0.36l1.62,0.99C295.52,218.44,294.78,219.58,294.1,220.73z M337.54,215.76
			c-1.19-0.57-2.49-1.08-3.85-1.52l0.75-2.05c1.47,0.47,2.87,1.02,4.16,1.64L337.54,215.76z M283.89,220.5l-1.02-1.94
			c1.32-0.6,2.67-1.17,4.01-1.71l0.92,1.98C286.5,219.35,285.18,219.91,283.89,220.5z M329.62,213.2c-1.34-0.27-2.74-0.48-4.19-0.64
			l0.27-2.15c1.52,0.16,3,0.39,4.41,0.67L329.62,213.2z M299.98,214.83l-0.46-1.56c-0.25,0.28-0.49,0.57-0.73,0.85l-1.84-1.33
			c0.9-1.07,1.85-2.13,2.85-3.16l1.73,1.45c-0.47,0.48-0.93,0.97-1.37,1.46c1.16-0.29,2.33-0.55,3.49-0.79l0.5,2.11
			C302.78,214.15,301.37,214.48,299.98,214.83z M321.18,212.27c-1.39-0.04-2.83-0.03-4.27,0.02l-0.09-2.16
			c1.5-0.06,3-0.06,4.44-0.02L321.18,212.27z M308.38,213.12l-0.38-2.13c1.48-0.22,2.95-0.41,4.39-0.55l0.24,2.15
			C311.24,212.72,309.81,212.9,308.38,213.12z M304.51,208.22l-1.62-1.55c1.04-0.94,2.15-1.87,3.28-2.76l1.51,1.65
			C306.59,206.42,305.52,207.32,304.51,208.22z M311.02,203.07l-1.4-1.73c1.15-0.81,2.36-1.61,3.6-2.38l1.3,1.79
			C313.32,201.5,312.14,202.28,311.02,203.07z M318.14,198.61l-1.2-1.85c1.24-0.69,2.53-1.38,3.83-2.04l1.11,1.9
			C320.61,197.27,319.35,197.93,318.14,198.61z M325.72,194.79l-1.02-1.94c1.3-0.59,2.64-1.17,4-1.72l0.94,1.98
			C328.31,193.65,326.99,194.21,325.72,194.79z M333.62,191.55l-0.86-2.01c1.34-0.5,2.73-0.98,4.12-1.45l0.79,2.04
			C336.3,190.59,334.94,191.06,333.62,191.55z M341.77,188.83l-0.71-2.06c1.38-0.41,2.8-0.82,4.21-1.2l0.65,2.08
			C344.52,188.03,343.13,188.43,341.77,188.83z M350.09,186.59l-0.58-2.09c1.41-0.34,2.85-0.66,4.28-0.97l0.52,2.11
			C352.89,185.94,351.48,186.26,350.09,186.59z M358.55,184.79l-0.46-2.12c1.45-0.27,2.9-0.52,4.33-0.75l0.39,2.13
			C361.41,184.28,359.97,184.53,358.55,184.79z M371.37,182.97c-0.01,0-1.6,0.12-4.27,0.47l-0.32-2.14
			c2.76-0.36,4.36-0.48,4.41-0.48L371.37,182.97z"/>
	</g>
	<rect x="290.14" y="421.15" class="st2" width="92.54" height="220.91"/>
	<rect x="434.11" y="348.94" class="st2" width="92.54" height="293.12"/>
	<rect x="565.01" y="271.01" class="st2" width="101.33" height="371.05"/>
	<rect x="702.44" y="219.64" class="st2" width="92.54" height="422.41"/>
	<g>
		<polygon class="st3" points="666.34,394.66 860.83,307.14 774.09,479.02 759.43,401.03 		"/>
	</g>
	<g>
		<path class="st4" d="M621.59,336.07c-4.76-18.18,7.24-36.5,26.79-40.93c19.56-4.42,39.27,6.73,44.03,24.91
			c4.76,18.18-7.24,36.5-26.79,40.93C646.06,365.4,626.35,354.25,621.59,336.07z"/>
		<g>
			<path class="st5" d="M664.95,358.44c-8.62,1.95-17.54,0.66-25.11-3.62c-7.58-4.29-12.9-11.06-15-19.07
				c-2.1-8.01-0.71-16.3,3.9-23.35c4.61-7.04,11.9-12,20.51-13.94c8.62-1.95,17.54-0.66,25.11,3.62c7.58,4.29,12.9,11.06,15,19.07
				c2.1,8.01,0.71,16.3-3.9,23.35C680.86,351.54,673.57,356.49,664.95,358.44z M649.72,300.24c-16.73,3.78-27.03,19.52-22.96,35.07
				c4.07,15.55,20.99,25.12,37.72,21.34c16.73-3.78,27.03-19.52,22.96-35.07C683.37,306.03,666.45,296.46,649.72,300.24z"/>
		</g>
		<g>
			<path class="st5" d="M663.82,336.15c-0.09-0.67-0.26-1.24-0.53-1.72c-0.27-0.48-0.66-0.91-1.17-1.27
				c-0.51-0.36-1.15-0.67-1.92-0.94c-0.77-0.27-1.7-0.51-2.79-0.72c-1.87-0.38-3.59-0.81-5.14-1.29c-1.55-0.48-2.91-1.08-4.06-1.8
				c-1.16-0.72-2.1-1.61-2.82-2.67c-0.72-1.06-1.19-2.37-1.39-3.92c-0.18-1.35-0.08-2.6,0.29-3.77c0.37-1.17,0.98-2.22,1.82-3.15
				c0.85-0.93,1.9-1.73,3.16-2.39c1.26-0.66,2.71-1.16,4.34-1.49l-0.66-5.09l4.4-0.5l0.67,5.16c1.6,0.01,3.08,0.24,4.45,0.68
				c1.36,0.44,2.55,1.08,3.57,1.91c1.02,0.83,1.86,1.86,2.51,3.08c0.65,1.22,1.08,2.62,1.29,4.21l-7.95,0.9
				c-0.25-1.9-0.89-3.27-1.92-4.11c-1.03-0.84-2.31-1.17-3.83-1c-0.83,0.09-1.52,0.28-2.09,0.56c-0.57,0.28-1.02,0.63-1.36,1.05
				c-0.34,0.42-0.56,0.89-0.68,1.42c-0.12,0.53-0.14,1.08-0.06,1.67c0.08,0.59,0.24,1.11,0.48,1.56c0.25,0.45,0.62,0.86,1.12,1.21
				c0.5,0.35,1.15,0.67,1.94,0.94c0.79,0.27,1.76,0.54,2.91,0.79c1.86,0.42,3.56,0.87,5.11,1.35c1.54,0.49,2.89,1.09,4.05,1.82
				c1.16,0.73,2.1,1.63,2.82,2.68c0.72,1.06,1.19,2.36,1.39,3.9c0.18,1.39,0.08,2.68-0.29,3.84c-0.38,1.17-0.99,2.21-1.84,3.13
				c-0.85,0.92-1.92,1.7-3.2,2.34c-1.28,0.64-2.74,1.13-4.38,1.46l0.62,4.73l-4.38,0.49l-0.61-4.71c-1.54,0.03-3.05-0.11-4.54-0.43
				c-1.48-0.32-2.83-0.86-4.05-1.63c-1.22-0.77-2.25-1.8-3.08-3.09c-0.84-1.29-1.38-2.88-1.63-4.78l7.95-0.9
				c0.15,1.12,0.44,2.04,0.88,2.76c0.44,0.71,0.97,1.27,1.6,1.65c0.63,0.39,1.32,0.63,2.06,0.73c0.75,0.1,1.5,0.11,2.25,0.02
				c0.86-0.1,1.61-0.29,2.23-0.56c0.62-0.28,1.13-0.63,1.53-1.04c0.39-0.41,0.67-0.88,0.82-1.41
				C663.86,337.29,663.9,336.73,663.82,336.15z"/>
		</g>
	</g>
	<g>
		<ellipse class="st4" cx="848.79" cy="238.74" rx="35.49" ry="32.99"/>
		<g>
			<path class="st5" d="M850.08,269.17c-8.63,0.32-16.88-2.51-23.22-7.96c-6.34-5.45-10.02-12.87-10.36-20.89
				c-0.34-8.02,2.7-15.69,8.57-21.59c5.86-5.9,13.85-9.32,22.48-9.63c8.63-0.32,16.88,2.51,23.22,7.96
				c6.34,5.45,10.02,12.87,10.36,20.89c0.34,8.02-2.7,15.69-8.57,21.59C866.69,265.43,858.71,268.85,850.08,269.17z M847.61,210.88
				c-16.75,0.61-29.85,13.78-29.19,29.36c0.66,15.58,14.83,27.75,31.58,27.14c16.76-0.61,29.85-13.78,29.19-29.36
				C878.53,222.44,864.37,210.27,847.61,210.88z"/>
		</g>
		<g>
			<path class="st5" d="M853.62,247.68c0.06-0.65,0.01-1.23-0.15-1.74c-0.16-0.51-0.44-0.98-0.85-1.42
				c-0.41-0.44-0.96-0.85-1.64-1.24c-0.68-0.39-1.52-0.79-2.51-1.19c-1.71-0.7-3.26-1.42-4.64-2.15c-1.38-0.73-2.55-1.55-3.5-2.44
				c-0.95-0.9-1.66-1.92-2.14-3.06c-0.47-1.14-0.64-2.47-0.51-3.99c0.11-1.32,0.47-2.5,1.06-3.55c0.59-1.05,1.39-1.94,2.39-2.68
				c1-0.74,2.17-1.31,3.52-1.72c1.34-0.41,2.83-0.62,4.46-0.64l0.42-4.97l4.31,0.32l-0.43,5.04c1.53,0.3,2.89,0.78,4.1,1.45
				c1.21,0.67,2.21,1.49,3.01,2.47c0.8,0.98,1.39,2.11,1.76,3.39c0.37,1.28,0.49,2.7,0.36,4.25l-7.78-0.57
				c0.16-1.86-0.17-3.28-0.98-4.27c-0.81-0.99-1.96-1.54-3.45-1.64c-0.81-0.06-1.51-0.01-2.11,0.16s-1.11,0.42-1.51,0.75
				c-0.41,0.34-0.72,0.75-0.94,1.23c-0.22,0.48-0.36,1.01-0.41,1.58c-0.05,0.57,0,1.1,0.14,1.58c0.14,0.48,0.41,0.93,0.82,1.36
				c0.41,0.43,0.96,0.84,1.65,1.24c0.7,0.4,1.57,0.83,2.61,1.28c1.69,0.73,3.22,1.47,4.59,2.21c1.37,0.74,2.54,1.56,3.49,2.47
				c0.95,0.9,1.66,1.93,2.14,3.07c0.47,1.14,0.64,2.46,0.52,3.97c-0.12,1.36-0.48,2.57-1.08,3.62c-0.6,1.05-1.41,1.93-2.41,2.65
				c-1,0.72-2.18,1.28-3.54,1.66c-1.36,0.38-2.85,0.59-4.48,0.61l-0.39,4.63l-4.28-0.31l0.39-4.6c-1.48-0.25-2.89-0.66-4.24-1.22
				c-1.35-0.57-2.53-1.33-3.53-2.28c-1-0.95-1.77-2.12-2.3-3.5c-0.53-1.38-0.72-3-0.56-4.86l7.78,0.57
				c-0.09,1.1-0.01,2.03,0.26,2.79c0.27,0.76,0.66,1.38,1.18,1.86c0.52,0.48,1.12,0.84,1.82,1.07c0.69,0.23,1.41,0.37,2.14,0.43
				c0.84,0.06,1.59,0.02,2.25-0.14c0.65-0.15,1.21-0.39,1.67-0.72c0.46-0.32,0.82-0.72,1.08-1.2
				C853.42,248.78,853.57,248.26,853.62,247.68z"/>
		</g>
	</g>
	<g>
		<path class="st4" d="M763.24,298.56c-0.24-12.57,10.53-22.94,24.05-23.16c13.52-0.22,24.67,9.79,24.91,22.35
			c0.24,12.57-10.53,22.93-24.05,23.16C774.63,321.14,763.48,311.13,763.24,298.56z"/>
		<g>
			<path class="st5" d="M788.12,319.16c-5.96,0.1-11.6-1.97-15.89-5.81c-4.29-3.85-6.71-9.01-6.81-14.55
				c-0.11-5.54,2.12-10.78,6.25-14.77c4.14-3.98,9.7-6.23,15.65-6.33c5.96-0.1,11.6,1.97,15.89,5.81c4.29,3.85,6.71,9.01,6.81,14.55
				c0.1,5.54-2.12,10.78-6.25,14.77C799.64,316.82,794.08,319.06,788.12,319.16z M787.35,278.94c-11.56,0.19-20.81,9.09-20.6,19.84
				c0.2,10.75,9.78,19.34,21.34,19.15c11.56-0.19,20.81-9.09,20.6-19.84C808.49,287.34,798.92,278.75,787.35,278.94z"/>
		</g>
		<g>
			<path class="st5" d="M790.91,304.4c0.05-0.45,0.02-0.85-0.08-1.2c-0.1-0.35-0.29-0.68-0.57-0.99c-0.28-0.31-0.65-0.6-1.11-0.88
				c-0.46-0.28-1.03-0.57-1.71-0.86c-1.17-0.51-2.22-1.02-3.16-1.55c-0.94-0.52-1.73-1.1-2.38-1.73c-0.64-0.63-1.12-1.34-1.42-2.14
				c-0.31-0.79-0.4-1.71-0.29-2.76c0.1-0.91,0.36-1.72,0.79-2.43c0.43-0.71,0.99-1.32,1.69-1.81c0.7-0.49,1.52-0.87,2.45-1.14
				c0.93-0.26,1.96-0.39,3.08-0.38l0.37-3.42l2.96,0.28l-0.38,3.47c1.05,0.23,1.98,0.58,2.81,1.05c0.82,0.48,1.5,1.06,2.04,1.74
				c0.54,0.69,0.92,1.47,1.16,2.36c0.23,0.89,0.29,1.87,0.18,2.93l-5.36-0.5c0.14-1.28-0.06-2.27-0.61-2.96
				c-0.54-0.69-1.33-1.09-2.35-1.18c-0.56-0.05-1.04-0.02-1.46,0.08c-0.42,0.11-0.77,0.27-1.06,0.5c-0.29,0.23-0.51,0.5-0.67,0.83
				c-0.16,0.33-0.26,0.69-0.3,1.09c-0.04,0.39-0.02,0.76,0.07,1.09c0.09,0.33,0.27,0.65,0.54,0.95c0.27,0.3,0.65,0.59,1.12,0.88
				c0.47,0.29,1.07,0.59,1.78,0.92c1.15,0.53,2.2,1.06,3.13,1.59c0.93,0.53,1.72,1.11,2.37,1.75c0.64,0.64,1.12,1.35,1.42,2.15
				c0.31,0.79,0.4,1.71,0.29,2.74c-0.1,0.94-0.37,1.77-0.8,2.48c-0.43,0.71-1,1.31-1.7,1.8c-0.7,0.48-1.52,0.85-2.47,1.09
				c-0.94,0.25-1.98,0.36-3.1,0.36l-0.34,3.18l-2.95-0.28l0.34-3.17c-1.02-0.19-1.98-0.49-2.91-0.9c-0.92-0.41-1.72-0.95-2.4-1.62
				c-0.68-0.67-1.19-1.49-1.53-2.45c-0.35-0.96-0.45-2.08-0.31-3.36l5.36,0.5c-0.08,0.76-0.04,1.4,0.14,1.93
				c0.17,0.53,0.44,0.96,0.79,1.3c0.35,0.34,0.76,0.59,1.24,0.76c0.47,0.17,0.97,0.28,1.47,0.32c0.58,0.05,1.1,0.03,1.55-0.06
				c0.45-0.1,0.84-0.26,1.17-0.47c0.32-0.22,0.58-0.49,0.76-0.81C790.75,305.15,790.87,304.79,790.91,304.4z"/>
		</g>
	</g>
	<g>
		<ellipse class="st4" cx="716.86" cy="210.86" rx="59.74" ry="55.53"/>
		<g>
			<path class="st5" d="M734.19,259.52c-13.8,4.25-28.56,3.25-41.55-2.82c-12.99-6.07-22.66-16.48-27.23-29.31
				c-4.57-12.83-3.49-26.55,3.04-38.62c6.53-12.08,17.72-21.07,31.52-25.31c13.8-4.25,28.56-3.25,41.55,2.82
				c12.99,6.07,22.66,16.48,27.23,29.31c4.57,12.83,3.49,26.55-3.04,38.62C759.19,246.28,747.99,255.27,734.19,259.52z
				 M700.99,166.32c-26.79,8.25-41.37,35.22-32.5,60.12c8.87,24.9,37.88,38.46,64.68,30.21c26.79-8.25,41.37-35.22,32.5-60.12
				C756.8,171.62,727.78,158.07,700.99,166.32z"/>
		</g>
		<g>
			<path class="st5" d="M729.16,223.23c-0.24-1.08-0.61-1.99-1.12-2.75c-0.51-0.76-1.21-1.4-2.09-1.93
				c-0.89-0.53-1.98-0.96-3.28-1.3c-1.3-0.34-2.85-0.62-4.66-0.84c-3.12-0.4-5.98-0.89-8.58-1.47c-2.6-0.59-4.9-1.4-6.89-2.44
				c-1.99-1.04-3.65-2.38-4.99-4.02c-1.33-1.64-2.28-3.72-2.83-6.23c-0.48-2.18-0.5-4.24-0.06-6.2c0.44-1.95,1.28-3.74,2.53-5.37
				c1.25-1.63,2.86-3.06,4.83-4.3c1.97-1.24,4.26-2.23,6.88-2.97l-1.81-8.23l7.12-1.35l1.83,8.34c2.62-0.18,5.07,0.01,7.36,0.56
				c2.29,0.55,4.32,1.45,6.11,2.68c1.79,1.24,3.3,2.81,4.54,4.73c1.24,1.91,2.14,4.15,2.71,6.72l-12.87,2.45
				c-0.68-3.08-1.92-5.24-3.72-6.48c-1.8-1.24-3.94-1.63-6.4-1.17c-1.34,0.25-2.45,0.65-3.34,1.18c-0.89,0.53-1.58,1.15-2.07,1.87
				c-0.49,0.72-0.79,1.52-0.91,2.4c-0.12,0.88-0.07,1.79,0.14,2.74c0.21,0.95,0.55,1.78,1.01,2.49c0.47,0.71,1.13,1.33,2.01,1.84
				c0.87,0.52,1.97,0.95,3.3,1.3c1.33,0.35,2.95,0.66,4.87,0.94c3.1,0.45,5.94,0.98,8.54,1.58c2.59,0.6,4.88,1.43,6.88,2.48
				c1.99,1.05,3.66,2.4,4.99,4.04c1.33,1.64,2.28,3.71,2.82,6.19c0.5,2.26,0.52,4.36,0.07,6.32c-0.45,1.96-1.31,3.73-2.56,5.33
				c-1.26,1.6-2.89,3.01-4.89,4.22c-2.01,1.21-4.32,2.18-6.94,2.92l1.68,7.65l-7.08,1.35l-1.67-7.61c-2.52,0.24-5.01,0.19-7.48-0.14
				c-2.47-0.33-4.75-1.05-6.85-2.16c-2.1-1.11-3.93-2.67-5.48-4.67c-1.55-2-2.67-4.54-3.35-7.62l12.87-2.45
				c0.4,1.82,1.01,3.29,1.83,4.4c0.82,1.11,1.77,1.95,2.85,2.5c1.08,0.56,2.24,0.87,3.48,0.94c1.24,0.07,2.46-0.01,3.68-0.24
				c1.39-0.27,2.58-0.66,3.56-1.2c0.98-0.53,1.76-1.16,2.34-1.89c0.58-0.72,0.96-1.52,1.14-2.4
				C729.38,225.09,729.37,224.18,729.16,223.23z"/>
		</g>
	</g>
	<g>
		<path class="st6" d="M481.09,195.59c-5.37,1.25-10.5,2.44-15.29,3.2c-15.53,2.47-27.52,0.43-32.69-18.81
			c-5.17-19.24,4.39-26.28,19.34-30.89c4.62-1.42,9.74-2.61,15.11-3.86c11.48-2.66,24.18-1.49,34.3,1.6
			c9.95,3.04,17.4,7.93,18.72,12.84c1.5,5.59-2.59,13.17-9.88,20.03C503.27,186.69,492.56,192.93,481.09,195.59z"/>
		<polygon class="st7" points="452.44,149.09 434.8,138.38 406.96,143.9 435.88,162.79 		"/>
		<polygon class="st7" points="465.75,198.63 455.6,215.79 428.24,223.09 444.21,193.79 		"/>
		<path class="st7" d="M465.79,198.79c-15.53,2.47-27.52,0.43-32.69-18.81c-5.17-19.24,4.39-26.28,19.34-30.89L465.79,198.79z"/>
		<path class="st3" d="M396.85,188.4c0,0,7.75-16.79,21.32-14.2c13.84,2.64,12.1,16.5,1.71,17.77
			C409.49,193.24,402.91,186.99,396.85,188.4z"/>
		<path class="st7" d="M479.39,155.62c7.17-1.66,14.43,2.39,16.23,9.05c1.79,6.67-2.57,13.42-9.74,15.08
			c-7.17,1.66-14.43-2.39-16.23-9.05C467.85,164.04,472.22,157.29,479.39,155.62z"/>
		<g>
			<path class="st2" d="M482.63,180.96c-6.4,0-12.23-4.03-13.85-10.06c-1.91-7.1,2.75-14.32,10.39-16.09
				c7.63-1.77,15.4,2.56,17.31,9.66c0.92,3.44,0.35,7.01-1.61,10.04c-1.96,3.04-5.08,5.19-8.78,6.04
				C484.93,180.84,483.77,180.96,482.63,180.96z M482.63,156.08c-1,0-2.01,0.11-3.03,0.35c-3.24,0.75-5.96,2.63-7.68,5.29
				c-1.72,2.66-2.22,5.78-1.41,8.79c1.67,6.21,8.46,10,15.14,8.45c3.24-0.75,5.96-2.63,7.68-5.29c1.72-2.66,2.22-5.78,1.41-8.79
				C493.33,159.61,488.22,156.08,482.63,156.08z"/>
		</g>
		<path class="st3" d="M510.68,179.71l-8.83-32.88c9.95,3.04,17.4,7.93,18.72,12.84C522.07,165.27,517.97,172.85,510.68,179.71z"/>
	</g>
	<g>
		<path class="st8" d="M910.85,360.23c0,0,27.04,26.06,28.32,35.87c1.28,9.81-12.95,25.12-12.95,25.12L910.85,360.23z"/>
		<path class="st9" d="M898.63,630.33c0,0-0.95,13.82-3.83,14.02c-0.38,0.03-14.59,0-14.59,0l-18.14-0.13c0,0,0.13-4.06,5.43-4.91
			c5.3-0.85,14.19-4.29,17.42-10.8C888.31,621.64,898.63,630.33,898.63,630.33z"/>
		<path class="st10" d="M939.04,630.41c0,0-0.95,13.82-3.83,14.02c-0.38,0.03-14.59,0-14.59,0l-18.14-0.13c0,0,0.13-4.06,5.43-4.91
			c5.31-0.85,14.19-4.29,17.42-10.8C928.72,621.73,939.04,630.41,939.04,630.41z"/>
		<path class="st7" d="M878.89,481.7c0,0,4.68,28.22,22.26,78.33c17.58,50.11,19.94,71.8,19.94,71.8l18.99-0.46
			c0,0,0.29-54.73-7.81-79.93c-8.1-25.2-1.55-90.79-1.55-90.79L878.89,481.7z"/>
		<path class="st11" d="M869.7,462.09c0,0-0.77,42.51,7.02,94.72c7.79,52.21,5.06,74.36,5.06,74.36l18.95,0.62
			c0,0,11.45-52.19,8.26-78.32c-3.19-26.13,15.72-89.61,15.72-89.61L869.7,462.09z"/>
		<path class="st12" d="M906.61,362.68l-10.11,6.13l-14.59-2.56c0.2-1.09,1.18-5.63,2.07-9.74c0.05-0.24,0.11-0.48,0.16-0.72
			c0.76-3.5,1.42-6.5,1.42-6.5l13.64-5.56l5.09-2.07c-0.01,0.07-0.4,3.88-0.46,4.44C902.85,355.97,906.61,362.68,906.61,362.68z"/>
		<path class="st8" d="M885.67,359.53c0.28-0.11,17.58-4.82,19.46-4.24c1.88,0.58,2.98,3.96,2.98,3.96l-28.29,5.89
			C879.82,365.14,882.05,360.94,885.67,359.53z"/>
		<path class="st13" d="M931.97,467.46c-2.96,12.42-51.73,13.8-64.28,2.49c-1.43-1.29-1.48-7.27-0.93-15.34
			c1.09-15.76,4.53-39.45,4.7-51.57c0.08-5.85,0.96-11.83,2.12-17.26c2.48-11.57,6.23-20.65,6.23-20.65s23.84-7.11,28.29-5.88
			C929.57,365.17,934.93,455.04,931.97,467.46z"/>
		<path class="st8" d="M866.77,454.61c1.09-15.76,4.53-39.45,4.7-51.57c0.08-5.85,0.96-11.83,2.12-17.26l14.33-2.32
			C887.92,383.47,901.8,436.69,866.77,454.61z"/>
		<path class="st12" d="M874.58,432.66c0,0,0.97,2.17-1.08,3.63c-2.05,1.45-3.39,3.81-2.93,5.54c0.47,1.73,4.96,4.55,6.52,4.1
			c1.56-0.45,4.74-2.72,4.4-3.63c-0.34-0.91,2.15-7.98-1.64-10.71C876.05,428.85,874.58,432.66,874.58,432.66z"/>
		<path class="st13" d="M890.77,361.97c0,0-13.98,2.4-25.15,17.64c-11.17,15.23-18.52,26.56-16.48,32.06
			c2.04,5.5,20.69,24.61,23.91,24.62c3.22,0.01,8.43-2.16,8.73-7.07c0,0-13.12-18.37-10.52-21.11c1.11-1.17,17.12-13.2,19.39-7.75
			C894.4,409.39,890.77,361.97,890.77,361.97z"/>
		<path class="st14" d="M902.8,346.27c-3,4.71-14.16,8.76-18.82,10.25c0.05-0.24,0.11-0.48,0.16-0.72c0.76-3.5,1.42-6.5,1.42-6.5
			l13.64-5.56C902.21,343.7,904.04,344.33,902.8,346.27z"/>
		<path class="st12" d="M880.42,348.52c0,0,21.94,6.41,26.02-6.35c4.08-12.76,9.67-20.53-4.17-25.16
			c-13.83-4.63-18.13-0.52-20.6,3.43C879.19,324.39,874.82,346.52,880.42,348.52z"/>
		<path class="st7" d="M882.53,319.21c0,0,1.37,14.86,4.67,14.22c3.31-0.64,6.31-1.11,5.81,3.37c-0.49,4.48-5.09,9.64,5.1,10.45
			c10.19,0.81,24.89-23.58,22.1-28.21C912.17,305.68,870.9,302.91,882.53,319.21z"/>
	</g>
	<g>
		<g>
			<g>
				<g>
					<path class="st4" d="M776.16,635.77v5.35c0,0.42-0.17,0.82-0.45,1.15c-0.3,0.35-0.73,0.62-1.24,0.77
						c-0.16,0.05-0.32,0.09-0.48,0.11c-0.15,0.02-0.31,0.03-0.47,0.03H664.44c-1.32,0-2.42-0.76-2.61-1.75
						c-0.01-0.07-0.02-0.13-0.02-0.2c0-0.03,0-0.07,0-0.1v-5.35c0-0.03,0-0.07,0-0.1c0-0.07,0.01-0.14,0.02-0.2
						c0.19-0.99,1.29-1.75,2.61-1.75h109.07c0.16,0,0.31,0.01,0.47,0.03c0.17,0.02,0.33,0.06,0.48,0.11
						c0.5,0.15,0.94,0.42,1.24,0.77C775.99,634.95,776.16,635.34,776.16,635.77z"/>
					<path class="st5" d="M722.6,643.17h-58.44c-1.08,0-2-0.65-2.27-1.52c-0.03-0.07-0.05-0.15-0.06-0.23
						c-0.01-0.07-0.02-0.13-0.02-0.2c0-0.03,0-0.07,0-0.1v-5.35c0-0.03,0-0.07,0-0.1c0-0.07,0.01-0.14,0.02-0.2
						c0.02-0.08,0.04-0.15,0.06-0.23c0.27-0.87,1.18-1.52,2.27-1.52h51.26C716.24,636.5,718.15,640.35,722.6,643.17z"/>
					<g>
						<rect x="761.64" y="633.71" class="st5" width="1.24" height="9.47"/>
						<rect x="757.45" y="633.71" class="st5" width="1.24" height="9.47"/>
						<rect x="752.42" y="633.71" class="st5" width="1.24" height="9.47"/>
						<rect x="744.7" y="633.71" class="st5" width="1.24" height="9.47"/>
						<rect x="736.55" y="633.71" class="st5" width="1.24" height="9.47"/>
						<rect x="724.04" y="633.71" class="st5" width="1.24" height="9.47"/>
						<rect x="712.33" y="633.71" class="st5" width="1.24" height="9.47"/>
						<rect x="701.88" y="633.71" class="st5" width="1.24" height="9.47"/>
						<rect x="765.64" y="633.71" class="st5" width="1.24" height="9.47"/>
						<rect x="768.28" y="633.71" class="st5" width="1.24" height="9.47"/>
						<rect x="770.83" y="633.71" class="st5" width="1.24" height="9.47"/>
						<path class="st5" d="M773.98,633.74v9.4c-0.15,0.02-0.31,0.03-0.47,0.03h-0.77v-9.47h0.77
							C773.68,633.71,773.83,633.72,773.98,633.74z"/>
						<path class="st5" d="M775.7,634.62v7.65c-0.3,0.35-0.73,0.62-1.24,0.77v-9.19C774.97,634,775.4,634.27,775.7,634.62z"/>
					</g>
				</g>
				<g>
					<path class="st4" d="M764.49,626.3v5.34c0,0.43-0.17,0.82-0.45,1.15c-0.08,0.09-0.16,0.17-0.25,0.24
						c-0.27,0.23-0.61,0.41-0.99,0.53c-0.15,0.05-0.32,0.08-0.48,0.1c-0.15,0.02-0.31,0.04-0.46,0.04H652.78
						c-1.32,0-2.42-0.77-2.61-1.76c-0.01-0.07-0.02-0.13-0.02-0.2c0-0.04,0-0.07,0-0.11v-5.34c0-0.03,0-0.07,0-0.11
						c0-0.07,0.01-0.13,0.02-0.2c0.19-0.99,1.29-1.75,2.61-1.75h109.08c0.07,0,0.14,0,0.21,0.01c0.03,0,0.05,0,0.08,0.01
						c0,0,0.01,0,0.01,0c0.03,0,0.07,0,0.1,0.01c0.02,0,0.04,0.01,0.07,0.01c0.17,0.02,0.33,0.06,0.48,0.1
						c0.09,0.03,0.18,0.06,0.27,0.1h0c0.06,0.03,0.12,0.05,0.17,0.08c0.03,0.02,0.07,0.03,0.1,0.05c0.03,0.02,0.06,0.03,0.09,0.05
						c0.12,0.06,0.22,0.14,0.32,0.22c0.03,0.03,0.06,0.05,0.09,0.08c0.02,0.02,0.04,0.03,0.05,0.05c0.01,0.01,0.02,0.02,0.03,0.03
						l0.02,0.02c0.03,0.03,0.07,0.07,0.1,0.1C764.33,625.48,764.49,625.88,764.49,626.3z"/>
					<path class="st5" d="M710.93,633.71H652.5c-1.08,0-1.99-0.65-2.26-1.53c-0.03-0.07-0.05-0.15-0.06-0.23
						c-0.01-0.07-0.02-0.13-0.02-0.2c0-0.04,0-0.07,0-0.11v-5.34c0-0.03,0-0.07,0-0.11c0-0.07,0.01-0.13,0.02-0.2
						c0.01-0.08,0.04-0.15,0.06-0.23c0.27-0.88,1.18-1.53,2.26-1.53h51.26c0.02,0.08,0.04,0.16,0.07,0.23
						C704.68,627.24,706.61,630.96,710.93,633.71z"/>
					<g>
						<rect x="749.98" y="624.24" class="st5" width="1.24" height="9.47"/>
						<rect x="745.79" y="624.24" class="st5" width="1.24" height="9.47"/>
						<rect x="740.75" y="624.24" class="st5" width="1.24" height="9.47"/>
						<rect x="733.04" y="624.24" class="st5" width="1.24" height="9.47"/>
						<rect x="724.88" y="624.24" class="st5" width="1.24" height="9.47"/>
						<rect x="712.38" y="624.24" class="st5" width="1.24" height="9.47"/>
						<rect x="700.67" y="624.24" class="st5" width="1.24" height="9.47"/>
						<rect x="690.22" y="624.24" class="st5" width="1.24" height="9.47"/>
						<rect x="753.98" y="624.24" class="st5" width="1.24" height="9.47"/>
						<rect x="756.62" y="624.24" class="st5" width="1.24" height="9.47"/>
						<rect x="759.16" y="624.24" class="st5" width="1.24" height="9.47"/>
						<path class="st5" d="M762.32,624.28v9.4c-0.15,0.02-0.31,0.03-0.47,0.03h-0.77v-9.47h0.77
							C762.01,624.24,762.17,624.25,762.32,624.28z"/>
						<path class="st5" d="M764.04,625.15v7.65c-0.3,0.35-0.73,0.62-1.24,0.77v-9.19C763.31,624.53,763.74,624.81,764.04,625.15z"/>
					</g>
				</g>
				<g>
					<path class="st4" d="M770.13,617.07v5.35c0,0.42-0.17,0.82-0.45,1.15c-0.3,0.35-0.73,0.62-1.24,0.77
						c-0.15,0.05-0.32,0.08-0.48,0.11c-0.15,0.02-0.31,0.03-0.46,0.03H658.42c-0.44,0-0.85-0.09-1.22-0.23
						c-0.72-0.29-1.25-0.85-1.39-1.5c-0.01-0.04-0.01-0.09-0.02-0.13c0-0.03-0.01-0.06-0.01-0.09c0-0.04,0-0.07,0-0.1v-5.35
						c0-0.03,0-0.07,0-0.1c0-0.07,0.01-0.14,0.02-0.2c0.19-0.99,1.29-1.75,2.61-1.75h109.08c0.16,0,0.31,0.01,0.46,0.03
						c0.17,0.02,0.33,0.06,0.48,0.1c0.51,0.16,0.94,0.43,1.24,0.77C769.96,616.25,770.13,616.65,770.13,617.07z"/>
					<path class="st5" d="M716.57,624.48h-58.44c-0.39,0-0.76-0.09-1.08-0.23c-0.65-0.29-1.12-0.85-1.24-1.5
						c-0.01-0.04-0.01-0.09-0.02-0.13c0-0.03-0.01-0.06-0.01-0.09c0-0.04,0-0.07,0-0.1v-5.35c0-0.03,0-0.07,0-0.1
						c0-0.07,0.01-0.14,0.02-0.2c0.01-0.08,0.04-0.15,0.06-0.22c0.27-0.88,1.18-1.53,2.27-1.53h51.26c0.8,2.71,2.62,6.43,6.82,9.23
						C716.33,624.32,716.45,624.4,716.57,624.48z"/>
					<g>
						<rect x="755.62" y="615.01" class="st5" width="1.24" height="9.47"/>
						<rect x="751.42" y="615.01" class="st5" width="1.24" height="9.47"/>
						<rect x="746.39" y="615.01" class="st5" width="1.24" height="9.47"/>
						<rect x="738.68" y="615.01" class="st5" width="1.24" height="9.47"/>
						<rect x="730.52" y="615.01" class="st5" width="1.24" height="9.47"/>
						<rect x="718.02" y="615.01" class="st5" width="1.24" height="9.47"/>
						<rect x="706.31" y="615.01" class="st5" width="1.24" height="9.47"/>
						<rect x="695.85" y="615.01" class="st5" width="1.24" height="9.47"/>
						<rect x="759.61" y="615.01" class="st5" width="1.24" height="9.47"/>
						<rect x="762.25" y="615.01" class="st5" width="1.24" height="9.47"/>
						<rect x="764.8" y="615.01" class="st5" width="1.24" height="9.47"/>
						<path class="st5" d="M767.96,615.04v9.4c-0.15,0.02-0.31,0.03-0.47,0.03h-0.77v-9.47h0.77
							C767.65,615.01,767.8,615.02,767.96,615.04z"/>
						<path class="st5" d="M769.68,615.92v7.65c-0.3,0.35-0.73,0.62-1.24,0.77v-9.19C768.95,615.3,769.38,615.57,769.68,615.92z"/>
					</g>
				</g>
				<g>
					<path class="st4" d="M772.74,607.61v5.34c0,0.43-0.17,0.82-0.45,1.15c-0.04,0.04-0.08,0.09-0.12,0.13
						c-0.21,0.21-0.46,0.38-0.75,0.51c-0.12,0.05-0.24,0.1-0.36,0.14c-0.16,0.05-0.32,0.08-0.48,0.1c-0.07,0.01-0.15,0.02-0.23,0.03
						c-0.08,0.01-0.16,0.01-0.24,0.01H661.03c-1.32,0-2.42-0.77-2.61-1.75c-0.01-0.07-0.02-0.13-0.02-0.2v-5.56
						c0.07-1,1.06-1.82,2.32-1.94c0.1-0.01,0.21-0.02,0.31-0.02H770.1c0.08,0,0.16,0,0.24,0.01c0.08,0.01,0.15,0.01,0.23,0.03
						c0.17,0.02,0.33,0.06,0.48,0.1c0.5,0.15,0.94,0.42,1.24,0.77C772.58,606.78,772.74,607.18,772.74,607.61z"/>
					<path class="st5" d="M719.18,615.01h-58.44c-1.08,0-2-0.65-2.27-1.53c-0.03-0.07-0.05-0.15-0.06-0.23
						c-0.01-0.07-0.02-0.13-0.02-0.2v-5.56c0.06-1,0.95-1.82,2.07-1.94c0.09-0.01,0.18-0.02,0.28-0.02h51.26c0,0.01,0,0.01,0,0.02
						C712.83,608.34,714.74,612.19,719.18,615.01z"/>
					<g>
						<rect x="758.23" y="605.54" class="st5" width="1.24" height="9.47"/>
						<rect x="754.03" y="605.54" class="st5" width="1.24" height="9.47"/>
						<rect x="749" y="605.54" class="st5" width="1.24" height="9.47"/>
						<rect x="741.29" y="605.54" class="st5" width="1.24" height="9.47"/>
						<rect x="733.13" y="605.54" class="st5" width="1.24" height="9.47"/>
						<rect x="720.63" y="605.54" class="st5" width="1.24" height="9.47"/>
						<rect x="708.92" y="605.54" class="st5" width="1.24" height="9.47"/>
						<rect x="698.47" y="605.54" class="st5" width="1.24" height="9.47"/>
						<rect x="762.22" y="605.54" class="st5" width="1.24" height="9.47"/>
						<rect x="764.86" y="605.54" class="st5" width="1.24" height="9.47"/>
						<rect x="767.41" y="605.54" class="st5" width="1.24" height="9.47"/>
						<path class="st5" d="M770.57,605.58v9.4c-0.15,0.02-0.31,0.03-0.46,0.03h-0.77v-9.47h0.77
							C770.26,605.54,770.42,605.55,770.57,605.58z"/>
						<path class="st5" d="M772.29,606.45v7.65c-0.3,0.35-0.73,0.62-1.24,0.77v-9.19C771.56,605.84,771.99,606.11,772.29,606.45z"/>
					</g>
				</g>
				<g>
					<path class="st4" d="M764.72,598.15v5.34c0,0.43-0.16,0.82-0.45,1.15c-0.3,0.35-0.73,0.62-1.24,0.77
						c-0.15,0.05-0.32,0.08-0.48,0.1c-0.05,0.01-0.1,0.02-0.15,0.02h-0.02c-0.03,0-0.05,0.01-0.08,0.01c-0.02,0-0.04,0-0.07,0.01
						c-0.05,0-0.09,0-0.14,0H653.01c-1.41,0-2.57-0.87-2.64-1.95c0-0.04,0-0.07,0-0.11v-5.34c0-0.04,0-0.07,0-0.11
						c0-0.03,0-0.06,0.01-0.09c0.11-0.87,0.92-1.59,1.98-1.8c0.02-0.01,0.05-0.01,0.08-0.02c0.18-0.03,0.37-0.05,0.57-0.05h109.07
						c0.08,0,0.16,0,0.24,0.01c0.03,0,0.07,0.01,0.1,0.01c0,0,0,0,0.01,0h0c0.04,0,0.08,0.01,0.12,0.02
						c0.16,0.02,0.33,0.06,0.48,0.1c0.51,0.15,0.94,0.42,1.24,0.77C764.56,597.33,764.72,597.73,764.72,598.15z"/>
					<path class="st5" d="M711.16,605.56h-58.43c-1.26,0-2.29-0.87-2.35-1.95c0-0.04,0-0.07,0-0.11v-5.34c0-0.04,0-0.07,0-0.11
						c0-0.03,0-0.06,0.01-0.09c0.1-0.89,0.85-1.62,1.83-1.81c0.03-0.01,0.06-0.02,0.1-0.02c0.14-0.02,0.28-0.03,0.42-0.03h51.26
						c0.01,0.03,0.01,0.04,0.02,0.07c0.83,2.77,2.74,6.58,7.13,9.38C711.14,605.55,711.16,605.55,711.16,605.56z"/>
					<g>
						<rect x="750.21" y="596.09" class="st5" width="1.24" height="9.47"/>
						<rect x="746.02" y="596.09" class="st5" width="1.24" height="9.47"/>
						<rect x="740.98" y="596.09" class="st5" width="1.24" height="9.47"/>
						<rect x="733.27" y="596.09" class="st5" width="1.24" height="9.47"/>
						<rect x="725.11" y="596.09" class="st5" width="1.24" height="9.47"/>
						<rect x="712.61" y="596.09" class="st5" width="1.24" height="9.47"/>
						<rect x="700.9" y="596.09" class="st5" width="1.24" height="9.47"/>
						<rect x="690.45" y="596.09" class="st5" width="1.24" height="9.47"/>
						<rect x="754.21" y="596.09" class="st5" width="1.24" height="9.47"/>
						<rect x="756.84" y="596.09" class="st5" width="1.24" height="9.47"/>
						<rect x="759.39" y="596.09" class="st5" width="1.24" height="9.47"/>
						<path class="st5" d="M762.55,596.13v9.4c-0.15,0.02-0.31,0.03-0.47,0.03h-0.77v-9.47h0.77
							C762.24,596.09,762.4,596.1,762.55,596.13z"/>
						<path class="st5" d="M764.27,597v7.65c-0.3,0.35-0.73,0.62-1.24,0.77v-9.19C763.54,596.38,763.97,596.66,764.27,597z"/>
					</g>
				</g>
				<g>
					<path class="st4" d="M764.49,588.76v5.34c0,0.43-0.17,0.82-0.45,1.15c-0.08,0.09-0.16,0.17-0.25,0.25
						c-0.27,0.23-0.61,0.41-0.99,0.53c-0.12,0.04-0.25,0.07-0.37,0.09h0c0,0,0,0-0.01,0c-0.03,0.01-0.06,0.01-0.1,0.02
						c-0.15,0.02-0.31,0.04-0.46,0.04H652.78c-0.11,0-0.23-0.01-0.34-0.02c-0.04,0-0.09-0.01-0.13-0.02
						c-1.11-0.16-1.99-0.86-2.14-1.74c-0.01-0.06-0.02-0.12-0.02-0.18c0-0.04,0-0.07,0-0.11v-5.34c0-0.04,0-0.07,0-0.11
						c0-0.07,0.01-0.13,0.02-0.2c0.19-0.99,1.29-1.76,2.61-1.76h109.08c0.07,0,0.14,0,0.21,0.01c0.01,0,0.02,0,0.03,0
						c0.02,0,0.04,0,0.06,0c0.03,0,0.07,0.01,0.1,0.01c0.02,0,0.04,0,0.07,0.01c0.17,0.02,0.33,0.06,0.48,0.1
						c0.09,0.03,0.18,0.06,0.27,0.09h0c0.34,0.14,0.64,0.34,0.87,0.57c0.03,0.03,0.07,0.07,0.1,0.1
						C764.33,587.93,764.49,588.33,764.49,588.76z"/>
					<path class="st5" d="M710.93,596.16H652.5c-0.04,0-0.09,0-0.14,0c-0.05,0-0.1-0.01-0.15-0.01c-1.06-0.12-1.9-0.85-2.04-1.76
						c-0.01-0.06-0.02-0.12-0.02-0.18c0-0.04,0-0.07,0-0.11v-5.34c0-0.04,0-0.07,0-0.11c0-0.07,0.01-0.13,0.02-0.2
						c0.01-0.08,0.04-0.15,0.06-0.23c0.27-0.88,1.18-1.53,2.26-1.53h51.26c0.02,0.08,0.04,0.16,0.07,0.23
						c0.85,2.74,2.75,6.42,7,9.16C710.86,596.12,710.9,596.14,710.93,596.16z"/>
					<g>
						<rect x="749.98" y="586.69" class="st5" width="1.24" height="9.47"/>
						<rect x="745.79" y="586.69" class="st5" width="1.24" height="9.47"/>
						<rect x="740.75" y="586.69" class="st5" width="1.24" height="9.47"/>
						<rect x="733.04" y="586.69" class="st5" width="1.24" height="9.47"/>
						<rect x="724.88" y="586.69" class="st5" width="1.24" height="9.47"/>
						<rect x="712.38" y="586.69" class="st5" width="1.24" height="9.47"/>
						<rect x="700.67" y="586.69" class="st5" width="1.24" height="9.47"/>
						<rect x="690.22" y="586.69" class="st5" width="1.24" height="9.47"/>
						<rect x="753.98" y="586.69" class="st5" width="1.24" height="9.47"/>
						<rect x="756.62" y="586.69" class="st5" width="1.24" height="9.47"/>
						<rect x="759.16" y="586.69" class="st5" width="1.24" height="9.47"/>
						<path class="st5" d="M762.32,586.73v9.4c-0.15,0.02-0.31,0.03-0.47,0.03h-0.77v-9.47h0.77
							C762.01,586.69,762.17,586.71,762.32,586.73z"/>
						<path class="st5" d="M764.04,587.6v7.65c-0.3,0.35-0.73,0.62-1.24,0.77v-9.19C763.31,586.99,763.74,587.26,764.04,587.6z"/>
					</g>
				</g>
				<g>
					<path class="st4" d="M770.13,579.52v5.34c0,0.43-0.17,0.82-0.45,1.15c-0.3,0.35-0.73,0.62-1.24,0.77
						c-0.15,0.05-0.32,0.08-0.48,0.1c-0.15,0.02-0.31,0.03-0.46,0.03H658.42c-0.44,0-0.85-0.09-1.22-0.23
						c-0.72-0.29-1.25-0.85-1.39-1.49c-0.01-0.04-0.01-0.09-0.02-0.13c0-0.03-0.01-0.06-0.01-0.09c0-0.04,0-0.07,0-0.11v-5.34
						c0-0.03,0-0.07,0-0.11c0-0.07,0.01-0.13,0.02-0.2c0.19-0.99,1.29-1.76,2.61-1.76h109.08c0.16,0,0.31,0.01,0.46,0.03
						c0.17,0.02,0.33,0.06,0.48,0.1c0.51,0.15,0.94,0.42,1.24,0.77C769.96,578.7,770.13,579.1,770.13,579.52z"/>
					<path class="st5" d="M716.57,586.93h-58.44c-0.39,0-0.76-0.09-1.08-0.23c-0.65-0.29-1.12-0.85-1.24-1.49
						c-0.01-0.04-0.01-0.09-0.02-0.13c0-0.03-0.01-0.06-0.01-0.09c0-0.04,0-0.07,0-0.11v-5.34c0-0.03,0-0.07,0-0.11
						c0-0.07,0.01-0.13,0.02-0.2c0.01-0.08,0.04-0.15,0.06-0.22c0.27-0.88,1.18-1.54,2.27-1.54h51.26c0.8,2.71,2.62,6.43,6.82,9.23
						C716.33,586.77,716.45,586.85,716.57,586.93z"/>
					<g>
						<rect x="755.62" y="577.46" class="st5" width="1.24" height="9.47"/>
						<rect x="751.42" y="577.46" class="st5" width="1.24" height="9.47"/>
						<rect x="746.39" y="577.46" class="st5" width="1.24" height="9.47"/>
						<rect x="738.68" y="577.46" class="st5" width="1.24" height="9.47"/>
						<rect x="730.52" y="577.46" class="st5" width="1.24" height="9.47"/>
						<rect x="718.02" y="577.46" class="st5" width="1.24" height="9.47"/>
						<rect x="706.31" y="577.46" class="st5" width="1.24" height="9.47"/>
						<rect x="695.85" y="577.46" class="st5" width="1.24" height="9.47"/>
						<rect x="759.61" y="577.46" class="st5" width="1.24" height="9.47"/>
						<rect x="762.25" y="577.46" class="st5" width="1.24" height="9.47"/>
						<rect x="764.8" y="577.46" class="st5" width="1.24" height="9.47"/>
						<path class="st5" d="M767.96,577.5v9.4c-0.15,0.02-0.31,0.03-0.47,0.03h-0.77v-9.47h0.77
							C767.65,577.46,767.8,577.47,767.96,577.5z"/>
						<path class="st5" d="M769.68,578.37v7.65c-0.3,0.35-0.73,0.62-1.24,0.77v-9.19C768.95,577.75,769.38,578.03,769.68,578.37z"/>
					</g>
				</g>
				<g>
					<path class="st4" d="M779.04,570.06v5.35c0,0.42-0.17,0.82-0.45,1.15l0,0c-0.04,0.04-0.08,0.09-0.12,0.13
						c-0.17,0.16-0.36,0.31-0.58,0.42c-0.11,0.06-0.23,0.11-0.35,0.16c0,0,0,0,0,0c-0.06,0.02-0.12,0.04-0.18,0.06
						c-0.15,0.05-0.32,0.08-0.48,0.1c-0.15,0.02-0.31,0.03-0.46,0.03H667.33c-1.32,0-2.42-0.76-2.61-1.75
						c-0.01-0.07-0.02-0.13-0.02-0.2c0-0.03,0-0.07,0-0.1v-5.35c0-0.04,0-0.07,0-0.1c0.07-1,1.06-1.82,2.32-1.94
						c0.1-0.01,0.2-0.02,0.31-0.02h109.08c0.16,0,0.31,0.01,0.46,0.03c0.17,0.03,0.33,0.06,0.48,0.11c0.44,0.13,0.82,0.36,1.12,0.64
						c0.04,0.04,0.08,0.08,0.12,0.13l0,0C778.88,569.24,779.04,569.63,779.04,570.06z"/>
					<path class="st5" d="M725.48,577.46h-58.44c-1.09,0-2-0.65-2.27-1.53c-0.02-0.07-0.05-0.14-0.06-0.22
						c-0.01-0.07-0.02-0.13-0.02-0.2c0-0.03,0-0.07,0-0.1v-5.35c0-0.04,0-0.07,0-0.1c0.06-1,0.95-1.82,2.07-1.94
						c0.09-0.01,0.18-0.02,0.28-0.02h51.26c0,0,0,0.01,0,0.02C719.13,570.8,721.04,574.64,725.48,577.46z"/>
					<g>
						<rect x="764.53" y="568" class="st5" width="1.24" height="9.47"/>
						<rect x="760.34" y="568" class="st5" width="1.24" height="9.47"/>
						<rect x="755.3" y="568" class="st5" width="1.24" height="9.47"/>
						<rect x="747.59" y="568" class="st5" width="1.24" height="9.47"/>
						<rect x="739.43" y="568" class="st5" width="1.24" height="9.47"/>
						<rect x="726.93" y="568" class="st5" width="1.24" height="9.47"/>
						<rect x="715.22" y="568" class="st5" width="1.24" height="9.47"/>
						<rect x="704.77" y="568" class="st5" width="1.24" height="9.47"/>
						<rect x="768.53" y="568" class="st5" width="1.24" height="9.47"/>
						<rect x="771.17" y="568" class="st5" width="1.24" height="9.47"/>
						<rect x="773.71" y="568" class="st5" width="1.24" height="9.47"/>
						<path class="st5" d="M776.87,568.03v9.4c-0.15,0.02-0.31,0.03-0.47,0.03h-0.77V568h0.77
							C776.56,568,776.72,568.01,776.87,568.03z"/>
						<path class="st5" d="M778.59,568.91v7.65c-0.3,0.35-0.73,0.62-1.24,0.77v-9.19C777.86,568.29,778.29,568.56,778.59,568.91z"/>
					</g>
				</g>
				<g>
					<path class="st4" d="M764.72,560.61v5.34c0,0.43-0.16,0.82-0.45,1.15c-0.3,0.35-0.73,0.62-1.24,0.77
						c-0.15,0.05-0.32,0.08-0.48,0.1c-0.05,0.01-0.1,0.01-0.15,0.02h-0.02c-0.03,0.01-0.07,0.01-0.1,0.01c-0.02,0-0.04,0-0.06,0
						c-0.04,0-0.08,0-0.13,0H653.01c-0.95,0-1.78-0.39-2.25-0.98c-0.23-0.29-0.37-0.62-0.39-0.97c0-0.04,0-0.07,0-0.11v-5.34
						c0-0.04,0-0.07,0-0.11c0.06-0.88,0.83-1.62,1.87-1.86c0.24-0.06,0.5-0.09,0.77-0.09h109.07c0.05,0,0.09,0,0.14,0
						c0.02,0,0.05,0,0.07,0.01c0.09,0,0.17,0.01,0.26,0.03c0.16,0.02,0.33,0.06,0.48,0.1c0.08,0.02,0.15,0.05,0.22,0.08h0
						c0.29,0.11,0.55,0.26,0.76,0.45c0,0,0.01,0.01,0.01,0.01c0.01,0.01,0.02,0.02,0.03,0.03c0.07,0.06,0.14,0.13,0.21,0.21
						C764.56,559.78,764.72,560.18,764.72,560.61z"/>
					<path class="st5" d="M711.16,568.01h-58.43c-0.82,0-1.55-0.37-1.97-0.93c-0.22-0.3-0.36-0.65-0.38-1.02c0-0.04,0-0.07,0-0.11
						v-5.34c0-0.04,0-0.07,0-0.11c0.06-0.94,0.85-1.72,1.88-1.91c0.15-0.03,0.31-0.04,0.48-0.04h51.26
						c0.02,0.07,0.04,0.15,0.07,0.22c0.85,2.76,2.77,6.48,7.08,9.23C711.14,568,711.16,568.01,711.16,568.01z"/>
					<g>
						<rect x="750.21" y="558.55" class="st5" width="1.24" height="9.47"/>
						<rect x="746.02" y="558.55" class="st5" width="1.24" height="9.47"/>
						<rect x="740.98" y="558.55" class="st5" width="1.24" height="9.47"/>
						<rect x="733.27" y="558.55" class="st5" width="1.24" height="9.47"/>
						<rect x="725.11" y="558.55" class="st5" width="1.24" height="9.47"/>
						<rect x="712.61" y="558.55" class="st5" width="1.24" height="9.47"/>
						<rect x="700.9" y="558.55" class="st5" width="1.24" height="9.47"/>
						<rect x="690.45" y="558.55" class="st5" width="1.24" height="9.47"/>
						<rect x="754.21" y="558.55" class="st5" width="1.24" height="9.47"/>
						<rect x="756.84" y="558.55" class="st5" width="1.24" height="9.47"/>
						<rect x="759.39" y="558.55" class="st5" width="1.24" height="9.47"/>
						<path class="st5" d="M762.55,558.58v9.4c-0.15,0.02-0.31,0.03-0.47,0.03h-0.77v-9.47h0.77
							C762.24,558.54,762.4,558.56,762.55,558.58z"/>
						<path class="st5" d="M764.27,559.45v7.65c-0.3,0.35-0.73,0.62-1.24,0.77v-9.19C763.54,558.84,763.97,559.11,764.27,559.45z"/>
					</g>
				</g>
				<g>
					<path class="st4" d="M772.74,551.36v5.35c0,0.43-0.17,0.82-0.45,1.15c-0.3,0.35-0.73,0.62-1.24,0.77
						c-0.15,0.05-0.32,0.08-0.48,0.11c-0.15,0.02-0.31,0.03-0.47,0.03H661.03c-0.42,0-0.82-0.08-1.18-0.22
						c-0.79-0.31-1.36-0.93-1.45-1.65c0-0.03-0.01-0.06-0.01-0.08c0-0.04,0-0.07,0-0.11v-5.35c0-0.04,0-0.07,0-0.11
						c0.07-1,1.06-1.82,2.32-1.94c0.1-0.01,0.21-0.01,0.31-0.01H770.1c0.16,0,0.31,0.01,0.47,0.03c0.17,0.02,0.33,0.06,0.48,0.11
						c0.51,0.15,0.94,0.42,1.24,0.77C772.58,550.54,772.74,550.93,772.74,551.36z"/>
					<path class="st5" d="M719.18,558.76h-58.43c-0.38,0-0.74-0.08-1.05-0.22c-0.71-0.31-1.22-0.93-1.29-1.65
						c0-0.03-0.01-0.06-0.01-0.08c0-0.04,0-0.07,0-0.11v-5.35c0-0.04,0-0.07,0-0.11c0.06-1,0.95-1.82,2.08-1.94
						c0.09-0.01,0.18-0.01,0.28-0.01h51.26c0,0,0,0.01,0,0.01c0.8,2.71,2.63,6.43,6.84,9.23
						C718.96,558.62,719.07,558.69,719.18,558.76z"/>
					<g>
						<rect x="758.23" y="549.3" class="st5" width="1.24" height="9.47"/>
						<rect x="754.03" y="549.3" class="st5" width="1.24" height="9.47"/>
						<rect x="749" y="549.3" class="st5" width="1.24" height="9.47"/>
						<rect x="741.29" y="549.3" class="st5" width="1.24" height="9.47"/>
						<rect x="733.13" y="549.3" class="st5" width="1.24" height="9.47"/>
						<rect x="720.63" y="549.3" class="st5" width="1.24" height="9.47"/>
						<rect x="708.92" y="549.3" class="st5" width="1.24" height="9.47"/>
						<rect x="698.47" y="549.3" class="st5" width="1.24" height="9.47"/>
						<rect x="762.22" y="549.3" class="st5" width="1.24" height="9.47"/>
						<rect x="764.86" y="549.3" class="st5" width="1.24" height="9.47"/>
						<rect x="767.41" y="549.3" class="st5" width="1.24" height="9.47"/>
						<path class="st5" d="M770.57,549.33v9.4c-0.15,0.02-0.31,0.03-0.46,0.03h-0.77v-9.47h0.77
							C770.26,549.3,770.42,549.31,770.57,549.33z"/>
						<path class="st5" d="M772.29,550.21v7.65c-0.3,0.35-0.73,0.62-1.24,0.77v-9.19C771.56,549.59,771.99,549.86,772.29,550.21z"/>
					</g>
				</g>
				<g>
					<path class="st4" d="M776.16,541.91v5.35c0,0.43-0.17,0.82-0.45,1.15c-0.3,0.35-0.73,0.62-1.24,0.77
						c-0.15,0.05-0.32,0.08-0.48,0.11c-0.05,0.01-0.1,0.01-0.15,0.02c-0.03,0-0.06,0-0.09,0.01c-0.03,0-0.06,0-0.09,0
						c-0.05,0-0.09,0-0.14,0H664.44c-1.41,0-2.56-0.87-2.64-1.95c0-0.04,0-0.07,0-0.11v-5.35c0-0.04,0-0.07,0-0.11
						c0.07-1.08,1.23-1.95,2.64-1.95h109.07c0.16,0,0.31,0.01,0.47,0.03c0.17,0.02,0.33,0.06,0.48,0.11
						c0.51,0.15,0.94,0.42,1.24,0.77C775.99,541.09,776.16,541.48,776.16,541.91z"/>
					<path class="st5" d="M722.6,549.31h-58.44c-1.25,0-2.29-0.87-2.35-1.95c0-0.04,0-0.07,0-0.11v-5.35c0-0.04,0-0.07,0-0.11
						c0.06-1.08,1.1-1.95,2.35-1.95h51.26c0.82,2.78,2.72,6.63,7.15,9.45C722.58,549.3,722.59,549.31,722.6,549.31z"/>
					<g>
						<rect x="761.64" y="539.85" class="st5" width="1.24" height="9.47"/>
						<rect x="757.45" y="539.85" class="st5" width="1.24" height="9.47"/>
						<rect x="752.42" y="539.85" class="st5" width="1.24" height="9.47"/>
						<rect x="744.7" y="539.85" class="st5" width="1.24" height="9.47"/>
						<rect x="736.55" y="539.85" class="st5" width="1.24" height="9.47"/>
						<rect x="724.04" y="539.85" class="st5" width="1.24" height="9.47"/>
						<rect x="712.33" y="539.85" class="st5" width="1.24" height="9.47"/>
						<rect x="701.88" y="539.85" class="st5" width="1.24" height="9.47"/>
						<rect x="765.64" y="539.85" class="st5" width="1.24" height="9.47"/>
						<rect x="768.28" y="539.85" class="st5" width="1.24" height="9.47"/>
						<rect x="770.83" y="539.85" class="st5" width="1.24" height="9.47"/>
						<path class="st5" d="M773.98,539.88v9.4c-0.15,0.02-0.31,0.03-0.47,0.03h-0.77v-9.47h0.77
							C773.68,539.85,773.83,539.86,773.98,539.88z"/>
						<path class="st5" d="M775.7,540.76v7.65c-0.3,0.35-0.73,0.62-1.24,0.77v-9.19C774.97,540.14,775.4,540.41,775.7,540.76z"/>
					</g>
				</g>
			</g>
			<g>
				<path class="st15" d="M741.58,485.9c0,0-5.73,7.5-10.98,7.6c-5.25,0.1-13.24-3.48-13.24-3.48s-4.82-9.99-1.55-13.9
					c0,0,3.28-1.34,6.71,1.02c0.59,0.41,1.19,0.92,1.78,1.58c0.83,0.93,1.77,1.46,2.76,1.74c3.75,1.06,8.2-1.43,9.86,0.97
					c0.97,1.4,2.03,2.45,2.9,3.19C740.83,485.49,741.58,485.9,741.58,485.9z"/>
				<path class="st15" d="M666.89,539.98c0,0,20.25-45.61,56.7-46.48c0,0,33.64,3.48,35.51,46.48H666.89z"/>
				<path class="st16" d="M713.61,494.9c0,0,14.61,3.02,19.12,1.25c0,0,0.68-5.68-5.47-4.88c-4.21,0.55-6.95-1.34-8.57-2.1
					C716.4,488.08,713,492.52,713.61,494.9z"/>
				<path class="st17" d="M726.32,486.34c-0.93,0.65-3.8-9.18-3.8-9.18c0.59,0.41,1.19,0.92,1.78,1.58
					c0.83,0.93,1.77,1.46,2.76,1.74C727.06,480.76,727.23,485.7,726.32,486.34z"/>
				<path class="st17" d="M739.81,484.63c-0.21,0.11-6.96,3.87-7.88,3.87c-0.93,0,4.98-7.06,4.98-7.06
					C737.88,482.84,738.94,483.9,739.81,484.63z"/>
				<path class="st18" d="M686.68,527.24c-0.37-0.3,14.33-20.13,18.38-20.27c4.05-0.14,13.15,4.34,19.74,4.92
					c6.59,0.58,12.97-1.16,14.22,2.46c1.25,3.62,4.67,16.45,2.57,18.51C739.48,534.92,694.76,533.66,686.68,527.24z"/>
			</g>
		</g>
		<path class="st19" d="M700.52,596.09c0,0.03,0,0.05-0.01,0.07c-0.19,3.18-0.74,6.32-1.64,9.38c0,0,0,0.01,0,0.02
			c-0.13,0.44-0.27,0.89-0.41,1.33c-0.91,2.79-2.12,5.51-3.6,8.12c-1.86,3.28-4.15,6.38-6.85,9.23c-0.07,0.08-0.15,0.16-0.22,0.23
			c-3.38,3.52-7.39,6.65-11.98,9.23c-0.97,0.55-1.96,1.07-2.98,1.57c-0.69,0.34-1.38,0.65-2.07,0.96c-0.66,0.36-1.37,0.67-2.03,1.04
			c-1.92,1.09-4.32,1.96-6.93,2.65v-4.16c0-0.03,0-0.07,0-0.1c0-0.07,0.01-0.14,0.02-0.2c0.02-0.08,0.04-0.15,0.06-0.23
			c0.27-0.87,1.18-1.52,2.27-1.52H652.5c-1.08,0-1.99-0.65-2.26-1.53c-0.03-0.07-0.05-0.15-0.06-0.23c-0.01-0.07-0.02-0.13-0.02-0.2
			c0-0.04,0-0.07,0-0.11v-5.34c0-0.03,0-0.07,0-0.11c0-0.07,0.01-0.13,0.02-0.2c0.01-0.08,0.04-0.15,0.06-0.23
			c0.27-0.88,1.18-1.53,2.26-1.53h4.55c-0.65-0.29-1.12-0.85-1.24-1.5c-0.01-0.04-0.01-0.09-0.02-0.13c0-0.03-0.01-0.06-0.01-0.09
			c0-0.04,0-0.07,0-0.1v-5.35c0-0.03,0-0.07,0-0.1c0-0.07,0.01-0.14,0.02-0.2c0.01-0.08,0.04-0.15,0.06-0.22
			c0.27-0.88,1.18-1.53,2.27-1.53h2.61c-1.08,0-2-0.65-2.27-1.53c-0.03-0.07-0.05-0.15-0.06-0.23c-0.01-0.07-0.02-0.13-0.02-0.2
			v-5.56c0.06-1,0.95-1.82,2.07-1.94h-7.74c-1.26,0-2.29-0.87-2.35-1.95c0-0.04,0-0.07,0-0.11v-5.34c0-0.04,0-0.07,0-0.11
			c0-0.03,0-0.06,0.01-0.09c0.1-0.89,0.85-1.62,1.83-1.81c-1.06-0.12-1.9-0.85-2.04-1.76c-0.01-0.06-0.02-0.12-0.02-0.18
			c0-0.04,0-0.07,0-0.11v-5.34c0-0.04,0-0.07,0-0.11c0-0.07,0.01-0.13,0.02-0.2c0.01-0.08,0.04-0.15,0.06-0.23
			c0.27-0.88,1.18-1.53,2.26-1.53h4.55c-0.65-0.29-1.12-0.85-1.24-1.49c-0.01-0.04-0.01-0.09-0.02-0.13c0-0.03-0.01-0.06-0.01-0.09
			c0-0.04,0-0.07,0-0.11v-5.34c0-0.03,0-0.07,0-0.11c0-0.07,0.01-0.13,0.02-0.2c0.01-0.08,0.04-0.15,0.06-0.22
			c0.27-0.88,1.18-1.54,2.27-1.54h8.91c-1.09,0-2-0.65-2.27-1.53c-0.02-0.07-0.05-0.14-0.06-0.22c-0.01-0.07-0.02-0.13-0.02-0.2
			c0-0.03,0-0.07,0-0.1v-5.35c0-0.04,0-0.07,0-0.1c0.06-1,0.95-1.82,2.07-1.94h-14.04c-0.82,0-1.55-0.37-1.97-0.93l0.01-0.05
			l1.48-8.39l0.01-0.05l2.11-11.98c2.44,0.3,4.86,0.76,7.23,1.35c0.14,0.04,0.28,0.07,0.42,0.1c0.01,0,0.02,0.01,0.03,0.01
			c1.38,0.36,2.74,0.76,4.09,1.22c0.01,0,0.02,0.01,0.04,0.01c6.18,2.09,11.94,5.2,16.93,9.23c0.09,0.07,0.18,0.14,0.26,0.22
			c2.6,2.12,4.98,4.49,7.1,7.11c0.43,0.52,0.84,1.05,1.24,1.59c0.13,0.18,0.27,0.35,0.39,0.54c0.01,0,0.01,0.01,0.01,0.02
			c0.64,0.88,1.25,1.79,1.83,2.72c1.37,2.2,2.51,4.44,3.45,6.73c1.25,3.03,2.13,6.12,2.64,9.23c0.02,0.08,0.03,0.16,0.04,0.23
			C700.55,589.98,700.7,593.05,700.52,596.09z"/>
		<g>
			<path class="st20" d="M587.86,615.28c-14.3-24.12-4.86-54.46,21.08-67.75c25.95-13.3,58.58-4.52,72.88,19.6
				c14.3,24.12,4.86,54.46-21.08,67.75C634.79,648.18,602.16,639.41,587.86,615.28z"/>
			<path class="st4" d="M658.66,635.9c-0.66,0.37-1.33,0.74-2.02,1.09c-0.23,0.12-0.46,0.24-0.69,0.35
				c-0.53,0.26-1.06,0.51-1.59,0.76c-25.55,11.66-56.71,2.71-70.6-20.71c-13.25-22.34-6.13-50.01,15.61-64.54
				c1.73-1.16,3.56-2.23,5.48-3.22c0.69-0.35,1.38-0.69,2.08-1.01c0.68-0.31,1.36-0.61,2.04-0.89c2.1-0.87,4.23-1.6,6.39-2.2
				c3.2-0.9,6.46-1.5,9.71-1.82c10.11-0.99,20.27,0.72,29.29,4.82c9.57,4.35,17.84,11.38,23.37,20.71
				C691.65,592.72,683.07,622.09,658.66,635.9z"/>
			<g>
				<path class="st5" d="M631.12,638.53c-4.49,0-9-0.59-13.43-1.78c-12.33-3.32-22.54-10.9-28.74-21.35
					c-6.2-10.45-7.65-22.53-4.08-33.99c3.57-11.47,11.73-20.96,22.97-26.72c23.21-11.9,52.51-4.02,65.31,17.56
					c12.8,21.58,4.32,48.81-18.89,60.71C647.05,636.65,639.12,638.53,631.12,638.53z M630.97,550.35c-7.63,0-15.36,1.74-22.5,5.4
					c-10.94,5.61-18.88,14.84-22.35,26c-3.47,11.16-2.06,22.9,3.97,33.07c6.03,10.17,15.96,17.55,27.97,20.78
					c12,3.23,24.64,1.92,35.58-3.69c22.59-11.57,30.83-38.07,18.38-59.07C663.5,558.47,647.47,550.35,630.97,550.35z"/>
			</g>
			<g>
				<path class="st5" d="M654.69,598.16c-0.11-0.25-0.22-0.48-0.33-0.72c-0.87-1.78-1.95-3.22-3.25-4.32
					c-1.47-1.25-3.18-2.18-5.12-2.8c-1.95-0.62-4.12-1-6.51-1.14c-2.39-0.14-5-0.17-7.82-0.09c-1.74,0.05-3.23,0.02-4.46-0.08
					c-1.23-0.1-2.28-0.32-3.14-0.64c-0.86-0.32-1.56-0.76-2.1-1.32c-0.54-0.56-0.98-1.24-1.33-2.04c-0.35-0.81-0.55-1.6-0.61-2.4
					c-0.05-0.79,0.08-1.54,0.38-2.26c0.31-0.71,0.8-1.37,1.5-1.97c0.69-0.6,1.6-1.12,2.74-1.55c2.09-0.79,4.05-0.77,5.86,0.05
					c1.81,0.83,3.29,2.54,4.43,5.15l10.93-4.12c-0.95-2.17-2.14-4.01-3.58-5.52c-1.43-1.5-3.05-2.66-4.85-3.48
					c-1.8-0.82-3.75-1.3-5.87-1.44c-2.11-0.14-4.32,0.07-6.6,0.63l-3.1-7.09l-6.05,2.28l3.05,6.99c-2.18,1.05-4.03,2.28-5.55,3.67
					c-1.52,1.4-2.69,2.91-3.5,4.54c-0.82,1.63-1.24,3.34-1.29,5.13c-0.04,1.79,0.34,3.61,1.15,5.46c0.93,2.13,2.13,3.82,3.6,5.07
					c1.47,1.25,3.17,2.17,5.12,2.79c1.94,0.61,4.11,0.98,6.51,1.1c2.4,0.12,5.01,0.12,7.84-0.01c1.64-0.09,3.06-0.08,4.26,0.03
					c1.2,0.1,2.24,0.32,3.12,0.65c0.88,0.33,1.61,0.79,2.19,1.38c0.58,0.59,1.07,1.35,1.47,2.26c0.35,0.81,0.53,1.61,0.52,2.41
					c0,0.8-0.2,1.56-0.58,2.29c-0.39,0.73-0.96,1.41-1.74,2.03c-0.77,0.62-1.75,1.15-2.93,1.6c-1.03,0.39-2.1,0.65-3.21,0.77
					c-1.11,0.12-2.18,0.02-3.24-0.3c-1.05-0.33-2.04-0.92-2.95-1.78c-0.92-0.86-1.72-2.06-2.39-3.6l-10.93,4.13
					c1.14,2.61,2.57,4.68,4.3,6.21c1.73,1.53,3.61,2.63,5.66,3.28c2.05,0.66,4.2,0.95,6.43,0.86c2.24-0.08,4.45-0.42,6.63-1.02
					l2.82,6.47l6.01-2.27l-2.84-6.5c2.18-1.05,4.05-2.27,5.61-3.64c1.44-1.27,2.57-2.64,3.39-4.11c0.07-0.12,0.13-0.24,0.19-0.36
					c0.82-1.6,1.27-3.3,1.32-5.1C655.92,601.93,655.53,600.08,654.69,598.16z"/>
			</g>
		</g>
	</g>
	<g class="st21">
		<g>
			<path class="st22" d="M1014,588.09c0,0,10.31-11.18,0.64-18.28c0,0-7.07-3.98-12.83-3.65c0,0,8.16,12.73,5.52,13.99
				c-2.64,1.27-8-14.79-8-14.79s-16.08-1.45-21.25,0.86c0,0,13.75,10.46,10.85,11.08c-2.89,0.62-17.74-9.64-17.74-9.64
				s-14.97,2.37-14.17,10.86c0.8,8.49,5.96,11.11,8.22,10.88c2.27-0.23,15.53-4.93,15.81-3.2c0.29,1.73-7.69,7.37-13.28,7.63
				c0,0,10.55,10.82,17.56,7.7c7.01-3.12,7.61-8.07,11.98-9.93c4.37-1.86,8.1-1.85,6.3,0.04c-1.8,1.89-9.72,3.73-12.22,7.84
				c-2.5,4.11-4.74,6.88,2.51,5.87c7.26-1.01,19.05-5.95,19.57-11.6C1014,588.09,1014,588.09,1014,588.09z"/>
			<g>
				<path class="st22" d="M964.37,578.74c0,0,40.65-1.46,49.63,9.35c0,0,1.99,5.53,8.09,10.56l0.95,2.41c0,0-7.04-6.9-9.57-7.32
					C1013.48,593.74,1017.42,580.35,964.37,578.74z"/>
				<path class="st22" d="M1022.09,598.65c0,0,8.73,6,9.33,16.72l-1.58,0.13c0,0-2.79-11.08-7.82-15.42
					C1016.98,595.75,1022.09,598.65,1022.09,598.65z"/>
			</g>
		</g>
		<g>
			<path class="st22" d="M1045.79,578.94c0,0-14.46-7.53-7.71-17.74c0,0,5.4-6.27,11.18-7.88c0,0-3.08,15.23,0,15.59
				c3.08,0.36,2.12-17.2,2.12-17.2s15.23-6.81,21.2-6.27c0,0-9.45,14.87-6.36,14.51c3.08-0.36,13.69-15.41,13.69-15.41
				s15.61-2.69,18.12,5.91c2.51,8.6-1.54,12.9-3.86,13.44c-2.31,0.54-17.16,0.36-16.77,2.15c0.39,1.79,10.41,4.66,16,3.05
				c0,0-6.17,14.16-14.26,13.44c-8.1-0.72-10.6-5.38-15.61-5.73c-5.01-0.36-8.67,0.9-6.17,2.15c2.51,1.25,10.99,0.41,15.04,3.61
				c4.05,3.2,7.33,5.17-0.19,6.6c-7.52,1.43-21.01,0.54-23.71-4.84C1045.79,578.94,1045.79,578.94,1045.79,578.94z"/>
			<g>
				<path class="st22" d="M1090.9,553.14c0,0-40.48,12.19-45.11,25.8c0,0,0.19,6.09-3.86,13.08v2.69c0,0,4.24-9.14,6.55-10.39
					C1048.49,584.32,1039.43,572.49,1090.9,553.14z"/>
				<path class="st22" d="M1041.93,592.02c0,0-6.24,8.81-2.68,19.54l1.61-0.4c0,0-1.56-11.82,1.71-17.76
					C1045.83,587.46,1041.93,592.02,1041.93,592.02z"/>
			</g>
		</g>
		<g>
			<path class="st23" d="M1023.95,562.26c0,0,21.62-11.25,11.53-26.53c0,0-8.07-9.38-16.72-11.79c0,0,4.61,22.78,0,23.31
				c-4.61,0.54-3.17-25.72-3.17-25.72s-22.77-10.18-31.71-9.38c0,0,14.12,22.24,9.51,21.7c-4.61-0.54-20.47-23.04-20.47-23.04
				s-23.35-4.02-27.1,8.84c-3.75,12.86,2.31,19.29,5.76,20.1c3.46,0.8,25.65,0.54,25.08,3.22c-0.58,2.68-15.57,6.97-23.93,4.56
				c0,0,9.22,21.17,21.33,20.1c12.11-1.07,15.85-8.04,23.35-8.57c7.49-0.54,12.97,1.34,9.22,3.22c-3.75,1.88-16.43,0.61-22.48,5.4
				c-6.05,4.78-10.95,7.73,0.29,9.88c11.24,2.14,31.42,0.8,35.46-7.23C1023.95,562.26,1023.95,562.26,1023.95,562.26z"/>
			<g>
				<path class="st23" d="M956.5,523.67c0,0,60.53,18.22,67.45,38.59c0,0-0.29,9.11,5.77,19.56v4.02c0,0-6.34-13.67-9.8-15.54
					C1019.92,570.29,1033.46,552.61,956.5,523.67z"/>
				<path class="st23" d="M1029.72,581.82c0,0,9.34,13.18,4.01,29.22l-2.4-0.6c0,0,2.33-17.67-2.55-26.55
					C1023.89,575,1029.72,581.82,1029.72,581.82z"/>
			</g>
		</g>
		<path class="st23" d="M1023.43,642.23c-20.62,0-37.33-15.54-37.33-34.7h74.66C1060.76,626.69,1044.05,642.23,1023.43,642.23z"/>
		
			<rect x="985.25" y="607.53" transform="matrix(-1 -1.224647e-16 1.224647e-16 -1 2047.2369 1216.1182)" class="st22" width="76.74" height="1.06"/>
		<path class="st22" d="M1039.37,642.23h-34.95l0,0c0-1.54,1.34-2.78,2.99-2.78h28.96C1038.03,639.45,1039.37,640.69,1039.37,642.23
			L1039.37,642.23z"/>
	</g>
	<g>
		<path class="st3" d="M795.89,409.23c-48.03,36.36-105.58,64.3-171.04,83.07c-53.17,15.23-112.09,24.57-175.11,27.75
			c-17.19,0.87-33.93,1.25-50.04,1.25c-32.58,0-62.62-1.54-88.81-3.68l10.59-46.59c36.1,2.73,79.22,4.17,125.8,1.82
			c59.31-2.99,114.55-11.72,164.16-25.93c59.71-17.11,111.93-42.4,155.2-75.16L795.89,409.23z"/>
	</g>
	<g>
		<path class="st7" d="M437.75,316.33c-6.68-3.22-12.03-1.2-12.03-1.2c-20.44-2.23-26.4,19.93-26.12,27.55
			c0.27,7.62,1.21,15.81-7.91,25.72c-26.36,28.61,28.85,29.87,28.85,29.87c0.47-22.86,29.94-14.52,28.65-12.2
			C486.97,394.5,452.94,323.65,437.75,316.33z"/>
		<path class="st12" d="M358.92,411.62c0,0-3.59-5.09-6.49-5.19c-2.9-0.1-8.26-1.5-7.83-0.5c0.43,1,3.76,1.1,4.08,1.7
			c0.32,0.6-4.93,1.5-6.44,1.6c-1.5,0.1-5.04,0-4.93,0.7c0.11,0.7,6.38,3.59,10.81,3.19c4.43-0.4,9.9,1.2,9.9,1.2L358.92,411.62z"/>
		<path class="st13" d="M410.89,413.27c0,0-1.95,3.6-5.5,7.73c-4.27,4.97-10.86,10.72-19.12,11.85c-3.95,0.54-7.81-0.25-11.36-1.71
			c-0.01,0-0.01,0-0.01,0c-10.04-4.14-17.59-13.67-17.59-13.67c-1.77-4.49,1.13-7.53,1.13-7.53s20.28,4.24,22.21,3.34
			c1.93-0.9,13.2-31.07,15.88-34.86c2.68-3.79,11.82-5.76,11.82-5.76L410.89,413.27z"/>
		<path class="st8" d="M405.4,420.99c-4.27,4.97-10.86,10.72-19.12,11.85c-3.95,0.54-7.81-0.25-11.36-1.71
			c0.39,0.05,10.42,1.2,14.42-5.45c4.08-6.78,8.49-17.55,14.54-13.96C406.49,413.27,406.37,417.12,405.4,420.99z"/>
		<path class="st24" d="M486.54,616.73c0,0,6.19,5.25,4.98,8.98c-1.21,3.73-6.79,6.22-7.54,10.77c-0.75,4.56-3.77,7.04-6.49,7.04
			c-2.72,0-12.95,0-12.95,0s-2-3.21,2.83-4.17c4.83-0.97,6.65-6.32,6.35-11.3c-0.3-4.97,0.45-11.6,0.45-11.6l10.26-2.21
			L486.54,616.73z"/>
		<path class="st25" d="M434.17,618.96c0,0,2.23,22.24-0.49,23.48l-34.76-0.07c0,0,0-3.73,5.58-4.56
			c5.58-0.83,15.39-3.87,17.05-10.64C423.22,620.41,434.17,618.96,434.17,618.96z"/>
		<path class="st12" d="M458.95,459.43c-7.15-14.91-11.53-19.19-10.69-23.82c0.62-3.45-1.89-64.23-1.89-64.23
			c-0.85-0.24-2.55-0.46-3.48-0.66c-2.93-0.61-5.36-2.52-6.37-5.15c-1.22-3.17-2.19-7.85-2.16-13.72l-0.92,0.17l-15.41,2.84
			c0,0,0.35,4.51,0.36,8.75c0,0.04,0,0.07,0,0.11c0.02,3.69-2.58,6.94-6.4,7.97c-1.95,0.52-3.64,0.97-3.64,0.97
			s-5.66,15.02-6.74,30.44c-1.08,15.43,10.29,22.13-0.09,52.95C390.93,487.53,462.9,467.67,458.95,459.43z"/>
		<path class="st26" d="M418.02,354.86c0,0,0.35,4.51,0.36,8.75c8.62-0.23,13.18-7.54,15.05-11.59L418.02,354.86z"/>
		<path class="st12" d="M415.14,358.88c0,0,20.4,0.31,20.41-11.5c0.01-11.81,2.66-19.73-10.37-20.43
			c-13.02-0.7-15.56,3.81-16.6,7.75C407.55,338.64,409.83,358.49,415.14,358.88z"/>
		<path class="st7" d="M415.89,326.66c0,0,5.59,13.86,14.16,15.91c8.57,2.05,12.29-0.09,12.29-0.09s-6.57-4.86-7.94-13.33
			C434.4,329.15,420.11,320.07,415.89,326.66z"/>
		<path class="st7" d="M417.28,327.79c0,0-4.14,1.44-5.85,4.25c-1.67,2.75-3.09,6.38-2.76,10.84c0,0-4.21-9.42,0.52-14.75
			C414.21,322.48,417.28,327.79,417.28,327.79z"/>
		<path class="st0" d="M419.58,351.55c0,0-1.41,1.72-4.22,1.6c-2.27-0.1-3.14-1.93-3.14-1.93S416.38,350.29,419.58,351.55z"/>
		<path class="st13" d="M460.92,398.27c0,0,0.52,6.79,0,14.94c-0.35,5.4-6.22,12.63-7.05,14.42c-2.09,4.49-4.45,5.22-4.45,5.22
			L431.16,437l-6.42,1.46l-20.24-5.62c0,0-9.22-23.92-5.52-37.38c3.7-13.46,9.36-22.81,9.36-22.81s16.51,15.03,38.02-1.27
			L460.92,398.27z"/>
		<path class="st27" d="M405.79,436.48c0,0-10.02,29-10.67,38.87c-0.64,9.87,19.16,140.26,19.95,144.81
			c0.75,4.29,6.48,7.02,6.48,7.02s2.63,1.44,6.39,0.46c5.22-1.37,6.87-3.01,6.87-3.01s7.8-92.99,2.97-126.21
			c-4.83-33.22-4.88-61.94-4.88-61.94H405.79z"/>
		<path class="st25" d="M448.25,435.61c0,0,15.29,19.07,16.71,31.96c1.43,12.89,2.24,58.17,5.27,70.73
			c3.04,12.57,14.19,36.75,14.19,75.94c0,0-1.16,2.25-4.74,3.44c-1.14,0.38-2.68,0.75-4.17,1.07c-2.95,0.63-5.98-0.71-7.33-3.23
			c-7.54-14.12-31.57-59.65-32.8-69.1c-0.87-6.69-8.46-50.95-25-76.93c-3.97-6.24,2.44-31.03,2.44-31.03L448.25,435.61z"/>
		<path class="st28" d="M419.12,351.87c0,0-0.35,1.39-4.08,1.18c0,0-3.13-0.18-3.03-1.71C412.01,351.33,415.04,350.25,419.12,351.87
			z"/>
		<path class="st27" d="M404.19,432c0,0,4.02,2.96,12.02,3.11c9.55,0.18,33.2-2.26,33.2-2.26s1.05,2.73,1.01,5.61
			c0,0-28.89,6.78-45.63,0.99C404.78,439.45,402.62,435.67,404.19,432z"/>
		<g>
			<path class="st28" d="M413.91,442.75c-2.4,0-4.36-2.06-4.36-4.58c0-2.53,1.95-4.58,4.36-4.58c2.4,0,4.36,2.06,4.36,4.58
				C418.27,440.7,416.32,442.75,413.91,442.75z M413.91,434.93c-1.61,0-2.91,1.45-2.91,3.24c0,1.79,1.31,3.24,2.91,3.24
				c1.61,0,2.91-1.45,2.91-3.24C416.83,436.38,415.52,434.93,413.91,434.93z"/>
		</g>
		<polygon class="st29" points="480.51,437.24 450.91,461.21 415.63,423.54 445.23,399.58 		"/>
		<path class="st12" d="M442.73,437.33c0,0-10.85,1.18-10.81,3.57c0.03,2.39,2.7,7.31,4.04,7.53c1.34,0.22,8.83-6.65,8.83-6.65
			L442.73,437.33z"/>
		<path class="st13" d="M446.36,371.38c0,0,14.48,0.94,20.03,13.49c5.55,12.54,16.08,33.6,16.08,37.15
			c0,3.54-5.88,14.46-37.48,20.74c0,0-3.27-3.2-3.07-5.72c0,0,19.72-15.75,19.67-17.59c-0.1-3.48-3.23-8.08-20.55-24.18
			C436.34,390.89,446.36,371.38,446.36,371.38z"/>
	</g>
	<g>
		<g>
			<g>
				<g>
					<path class="st30" d="M133.13,643.5h-0.14c-0.84,0-1.52-0.64-1.5-1.43l2.28-91.75l6.71-0.73l-5.72,92.48
						C134.7,642.88,133.99,643.5,133.13,643.5z"/>
				</g>
				<g>
					<path class="st31" d="M240.99,643.5h0.14c0.84,0,1.52-0.64,1.5-1.43l-2.28-91.75l-6.71-0.73l5.72,92.48
						C239.42,642.88,240.13,643.5,240.99,643.5z"/>
				</g>
				<path class="st31" d="M128.68,544.63v-62.87c0-11.06,9.65-20.03,21.55-20.03h48.73c11.9,0,21.55,8.97,21.55,20.03v65.27
					L128.68,544.63z"/>
				<path class="st30" d="M229.24,554.56h-94.72c-3.22,0-5.83-2.61-5.83-5.83v-4.09h100.55V554.56z"/>
				<path class="st31" d="M242.38,554.56h-74.91c-1.61,0-2.92-1.31-2.92-2.92v-4.09c0-1.61,1.31-2.92,2.92-2.92h74.91
					c1.61,0,2.92,1.31,2.92,2.92v4.09C245.29,553.25,243.99,554.56,242.38,554.56z"/>
			</g>
			<g>
				<path class="st27" d="M237.75,528.97c-6.98,11.29-15.76,15.65-15.76,15.65h-36.53C185.46,544.62,243.07,520.35,237.75,528.97z"
					/>
				<g>
					<path class="st12" d="M209.69,616.35c-0.95,1.01-1.07,2.15-0.6,3.36c0,0.01,0,0.01,0.01,0.02c0.87,2.24,3.75,4.74,7.09,7.23
						c0.43,0.32,0.81,0.61,1.14,0.88c0.09,0.07,0.17,0.14,0.26,0.21c0.07,0.05,0.13,0.11,0.2,0.17c3.12,2.67,1.94,3.28,7.54,8.7
						c6.39,6.18,10.78,6.29,12.03,5.73c1.06-0.48-1.09-3.76-3.47-7.44c-0.12-0.18-0.23-0.36-0.35-0.54
						c-0.32-0.49-0.63-0.99-0.95-1.48c-2.79-4.43-2.07-6.51-1.41-13.11c0.54-5.36,8.97-29.94,8.97-29.94l-12.24-1.96
						c0,0-3.69,19.57-7.75,22.59c-2.17,1.61-4.6,1.63-6.69,2.82c-0.15,0.08-0.29,0.17-0.43,0.26
						C211.86,614.58,210.65,615.33,209.69,616.35z"/>
					<path class="st27" d="M209.69,616.35c-0.95,1.01-1.07,2.15-0.6,3.36c0,0.01,0,0.01,0.01,0.02c1.07,2.24,3.87,4.72,7.1,7.21
						c0.42,0.33,0.79,0.63,1.13,0.91c0.09,0.07,0.17,0.14,0.26,0.21c0.07,0.05,0.13,0.11,0.2,0.17c3.12,2.67,1.94,3.28,7.54,8.7
						c6.39,6.18,10.78,6.29,12.03,5.73c1.06-0.48-1.09-3.76-3.47-7.44c-1.24-0.42-7.02-2.6-11.38-7.8
						c-3.85-4.56-6.41-10.42-9.03-13.82c-0.15,0.08-0.29,0.17-0.43,0.26C211.86,614.58,210.65,615.33,209.69,616.35z"/>
					<path class="st12" d="M308.38,609.24c0.76,3.51,6.14,2.93,12.16,1.56c6.02-1.37,4.59,0.26,13.15-0.62
						c8.56-0.88,11.16-3.85,11.42-5.03c0.23-1.05-4-1.42-8.54-1.91c-0.57-0.06-1.14-0.13-1.72-0.19c-5.12-0.6-8.88-3.67-13.53-6.2
						c-4.41-2.39-10.99-12.13-10.99-12.13l-11.74,0.86c0,0,6.16,8.7,8.55,12.48c1.4,2.23,1.33,5.17,1.15,7.44
						C308.2,606.75,308.11,608.01,308.38,609.24z"/>
					<path class="st27" d="M320.53,610.8c6.02-1.37,4.59,0.26,13.15-0.62c8.56-0.88,11.16-3.85,11.42-5.03
						c0.23-1.05-4-1.42-8.54-1.91l-0.04,0.08c0,0-5.13,3.38-12.26,3.54c-5.81,0.13-11.96-1.42-15.97-1.36
						c-0.09,1.23-0.18,2.5,0.09,3.73C309.13,612.76,314.52,612.17,320.53,610.8z"/>
					<path class="st27" d="M263.38,539.45L252.4,566.9l-14.33,35.85c0,0-3.89,0.35-7.61-0.65c-3.43-0.92-7.36-3.33-7.36-3.33
						s3.98-38.5,11.4-60.59c1.9-5.67,4.03-10.26,6.39-12.84C252.39,512.7,263.38,539.45,263.38,539.45z"/>
					<path class="st25" d="M252.22,495.84c-7.19-2.16-27.7,0.61-48.31,4.36l-4.31-6.61l-44.5-3.23c0,0-14.69,30.27-6.65,49.56
						c1.18,2.84,3.53,4.65,7.53,4.71c0,0,0.65,0,0.65,0c0,0,26.49-0.01,35.09-0.01c22.13,0,46.84-14.14,50.04-14.74
						c5.23-0.97,7.32,8.75,12.56,18.97c5.23,10.21,49.18,45.23,49.18,45.23s6.75,0.06,9.54-0.91c3-1.05,4.1-2.4,4.1-2.4
						S268.43,500.7,252.22,495.84z"/>
					<path class="st29" d="M197.84,373.12c-5.7-2.78-14.38-3.16-15.79-3.34c-16.86-2.11-27.01,20.67-27.61,27.58
						c-1.1,12.72-8.34,14.66-18.53,22.63c-20.43,15.98-14.44,34.54-3.27,41.44c6.7,4.14,18.52,0,18.52,0
						c0.17,0.11,32.32-16.71,48.16-24.82C223.09,433.47,212.37,380.21,197.84,373.12z"/>
					<path class="st12" d="M186.05,429.71c0.07,0.04-7.8,2.54-13.06,0.37c-4.95-2.03-8.7-9.6-8.62-9.61
						c2.25-0.1,4.72-1.93,6.63-13.93l0.96,0.32l16.12,5.39c0,0-1.17,4.81-1.92,9.38C185.51,425.48,185.17,429.16,186.05,429.71z"/>
					<path class="st32" d="M188.07,412.25c0,0-1.17,4.81-1.92,9.38c-9.26-1.55-12.89-10.12-14.19-14.78L188.07,412.25z"/>
					<path class="st12" d="M190.47,417.03c0,0-22.05-2.75-20-15.49c2.05-12.74,0.59-21.68,14.76-20.46
						c14.17,1.22,16.11,6.46,16.54,10.87C202.2,396.35,196.26,417.41,190.47,417.03z"/>
					<path class="st29" d="M200.97,384.96c0,0-14.12,11.31-23.72,12.22c-9.6,0.91-13.24-1.95-13.24-1.95s5.66-4.37,9.07-11.42
						c1-2.08,3.12-3.5,5.57-3.7C185.5,379.56,198.5,379.31,200.97,384.96z"/>
					<path class="st29" d="M192.14,383.95c0,0,4.72,4.24,6.21,7.39c1.44,3.04,1.87,10.3,0.72,13.19c0,0,7.36-13.3,3.19-19.76
						C197.85,377.92,192.14,383.95,192.14,383.95z"/>
					<path class="st1" d="M204.62,459.91c-0.67,41.5-0.18,32.83-5.07,36.76c-1.18,0.95-4.48,1.51-8.84,1.78
						c-13.69,0.84-37.75-1.25-38.66-3.6c-3.16-8.14-0.93-10.66-3.56-23.12c-0.27-1.33-0.61-2.76-1.01-4.32
						c-2.2-8.56-4.33-11.47,3.46-25.21C158,429.74,165.34,419.64,166,420c18.64,10.29,20.15,1.64,20.15,1.64
						S204.95,439.66,204.62,459.91z"/>
					<path class="st25" d="M252.4,566.9l-14.33,35.85c0,0-3.89,0.35-7.61-0.65c-3.43-0.92-7.36-3.33-7.36-3.33s3.98-38.5,11.4-60.59
						L252.4,566.9z"/>
					<path class="st1" d="M186.15,421.64c0,0,19.18,3.02,21.44,10.7c2.25,7.68,15.51,52.81,15.51,52.81s-9.75,1.63-14.26-2.56
						c-4.51-4.19-15.68-38.85-15.68-38.85L186.15,421.64z"/>
					<path class="st33" d="M190.72,498.45c-13.69,0.84-37.75-1.25-38.66-3.6c-3.16-8.14-0.93-10.66-3.56-23.12l6.6-17.28
						c0,0-1.09,19.24,5.01,24.31c6.1,5.06,25,9.77,27.96,14C189.5,494.78,190.44,496.81,190.72,498.45z"/>
					<path class="st12" d="M175.03,490.35c0,0,13.5-2.79,15.68-1.68c2.18,1.11,7.5,5.17,8.17,6.58c0.67,1.41-4.85-1.07-6.65-1.52
						c-1.16-0.29-4.22,0.7-5.74,1.17c-6.37,1.97-10.28,0.96-10.28,0.96L175.03,490.35z"/>
					<path class="st1" d="M165.99,419.99c0,0-18.13,1.04-24.41,9.18c-8.84,11.46-26.36,60.28-16.32,66.79
						c11.31,7.33,51.49,1.92,51.49,1.92s1.34-5.81-0.52-8.62c-1.86-2.81-32.09-7.35-33.48-8.65c-1.4-1.3,17.44-25.29,17.44-29.18
						C160.18,447.54,165.99,419.99,165.99,419.99z"/>
					<path class="st12" d="M191.37,492.17c0,0,2.83,3.39,3.76,3.8c0.93,0.41,1.53,0.3,1.53,0.3l-1.91-3.19L191.37,492.17z"/>
					<path class="st12" d="M190.72,488.67l8.23,3.71c0,0-0.35,0.53-1.36,0.49c-1.01-0.04-3.57-0.91-3.57-0.91L190.72,488.67z"/>
				</g>
				<g>
					<g>
						<polygon class="st3" points="192.15,501.16 261.56,501.16 282.43,455.91 213.14,455.91 						"/>
						<polygon class="st3" points="262.37,498.23 170.72,498.23 170.72,501.09 261.56,501.09 						"/>
					</g>
					<path class="st0" d="M244.04,478.54c0.52-1.59-0.53-2.88-2.36-2.88c-1.83,0-3.73,1.29-4.25,2.88
						c-0.52,1.59,0.53,2.88,2.36,2.88C241.61,481.42,243.51,480.13,244.04,478.54z"/>
				</g>
			</g>
		</g>
		<g>
			<g>
				<path class="st27" d="M364.18,644.76h0.19c1.11,0,2.01-0.94,1.99-2.08l-3.01-133.87l-8.87-1.06l7.56,134.94
					C362.1,643.85,363.04,644.76,364.18,644.76z"/>
			</g>
			<g>
				<path class="st27" d="M177.19,644.76H177c-1.11,0-2.01-0.94-1.99-2.08l3.01-133.87l8.87-1.06l-7.56,134.94
					C179.27,643.85,178.33,644.76,177.19,644.76z"/>
			</g>
			<path class="st27" d="M368.09,510.74h-202.9c-1.55,0-2.82-1.26-2.82-2.82v-3.95c0-1.55,1.26-2.82,2.82-2.82h202.9
				c1.55,0,2.82,1.26,2.82,2.82v3.95C370.9,509.48,369.64,510.74,368.09,510.74z"/>
		</g>
	</g>
	<path class="st34" d="M1106.65,646.59H10.71c-0.7,0-1.28-0.58-1.28-1.28v-1.8c0-0.7,0.58-1.28,1.28-1.28h1095.94
		c0.7,0,1.28,0.58,1.28,1.28v1.8C1107.93,646.01,1107.35,646.59,1106.65,646.59z"/>
</g>
</svg>
