<?xml version="1.0" encoding="utf-8"?>
<!-- Generator: Adobe Illustrator 25.4.1, SVG Export Plug-In . SVG Version: 6.00 Build 0)  -->
<svg version="1.1" id="Capa_1" xmlns="http://www.w3.org/2000/svg" xmlns:xlink="http://www.w3.org/1999/xlink" x="0px" y="0px"
	 viewBox="0 0 2863.4 1630.4" style="enable-background:new 0 0 2863.4 1630.4;" xml:space="preserve">
<style type="text/css">
	.st0{fill:url(#SVGID_1_);}
	.st1{fill:#FFFFFF;}
	.st2{fill:#83BEFF;}
	.st3{fill:#B8DAFF;}
	.st4{fill:#CDE5FF;}
	.st5{fill:#6BB1FF;}
	.st6{fill:#E0E0E0;}
	.st7{fill:url(#SVGID_00000005965373363482277460000012637493056521110959_);}
	.st8{fill:#DBD8E3;}
	.st9{fill:#323657;}
	.st10{fill:#EEA987;}
	.st11{fill:#4488D4;}
	.st12{fill:#C4C1CC;}
	.st13{fill:#EFAA88;}
	.st14{fill:#EEA886;}
	.st15{fill:#16202E;}
	.st16{fill:#A77860;}
	.st17{fill:#EDEDED;}
	.st18{fill:url(#SVGID_00000167387029037120120080000016893619624318358165_);}
	.st19{fill:url(#SVGID_00000129165847044379761550000012286451394495132815_);}
	.st20{fill:url(#SVGID_00000073682568722688981120000014020873908337659038_);}
	.st21{fill:url(#SVGID_00000108988245728214676980000015918020333995699130_);}
	.st22{fill:url(#SVGID_00000155840645744032630810000009265166828796841126_);}
	.st23{fill:url(#SVGID_00000049913765002618665620000016580090213844704916_);}
	.st24{fill:url(#SVGID_00000110432814987643318220000000677290647981959562_);}
	.st25{fill:url(#SVGID_00000057146138015135669120000009537218814084627128_);}
	.st26{fill:url(#SVGID_00000085937423325429068420000012148358640892262531_);}
	.st27{fill:#F5F5F5;}
	.st28{fill:#78C3FF;}
	.st29{fill:#1173C2;}
	.st30{fill:#1487E3;}
	.st31{fill:#4AAFFF;}
	.st32{fill:url(#SVGID_00000055669356938095751480000017334030952519619213_);}
	.st33{fill:url(#SVGID_00000114066497606957580480000006186082032529570749_);}
	.st34{fill:#C26C23;}
	.st35{fill:url(#SVGID_00000181800579282937755560000007670185875641251217_);}
	.st36{fill:#E3F2FF;}
	.st37{fill:#FFB255;}
	.st38{fill:#FFB555;}
	.st39{fill:#FFB455;}
	.st40{fill:#EBEBEB;}
</style>
<g>
	<g id="Слой_1">
		<g>
			
				<linearGradient id="SVGID_1_" gradientUnits="userSpaceOnUse" x1="3188.7175" y1="1526.2642" x2="905.9476" y2="230.754" gradientTransform="matrix(1 0 0 -1 0 1627.89)">
				<stop  offset="0" style="stop-color:#469EFF"/>
				<stop  offset="1" style="stop-color:#469EFF"/>
			</linearGradient>
			<polygon class="st0" points="2863.4,266.1 2863.4,309.2 2663.5,582.2 2283,560.7 1846.8,1058.2 1390.3,959.2 950.5,1374.2 
				933.1,1355.8 1382.6,931.7 1837.6,1030.2 2272.1,534.7 2651.1,556.1 			"/>
		</g>
		<circle class="st1" cx="1842.2" cy="1044" r="67.5"/>
		<path class="st2" d="M1859.1,1122.6c-43.3,9.4-86-18.1-95.3-61.4s18.1-86,61.4-95.3c43.3-9.4,86,18.1,95.3,61.4
			C1929.9,1070.5,1902.4,1113.2,1859.1,1122.6z M1830.5,990.6c-29.6,6.4-48.4,35.6-42,65.2c6.4,29.6,35.6,48.4,65.2,42
			c29.6-6.4,48.4-35.6,42-65.2c0,0,0,0,0,0C1889.3,1003,1860.1,984.2,1830.5,990.6z"/>
		<path class="st1" d="M2343.4,537.7c7.9,36.5-15.3,72.4-51.7,80.3c-36.5,7.9-72.4-15.3-80.3-51.7c-7.9-36.5,15.3-72.4,51.7-80.3
			c0,0,0,0,0,0C2299.6,478.1,2335.5,501.2,2343.4,537.7z"/>
		<path class="st3" d="M2294.4,630.3c-43.3,9.4-86-18.1-95.3-61.4c-9.4-43.3,18.1-86,61.4-95.3c43.3-9.4,86,18.1,95.3,61.4
			C2365.1,578.3,2337.6,620.9,2294.4,630.3z M2265.8,498.3c-29.6,6.4-48.4,35.6-42,65.2c6.4,29.6,35.6,48.4,65.2,42
			c29.6-6.4,48.4-35.6,42-65.2c0,0,0,0,0,0C2324.6,510.8,2295.4,492,2265.8,498.3L2265.8,498.3z"/>
		<path class="st1" d="M2719.6,552.7c7.9,36.5-15.3,72.4-51.7,80.3c-36.5,7.9-72.4-15.3-80.3-51.7c-7.9-36.5,15.3-72.4,51.7-80.3
			c0,0,0,0,0,0C2675.8,493.2,2711.7,516.3,2719.6,552.7z"/>
		<path class="st4" d="M2670.6,645.4c-43.3,9.4-86-18.1-95.3-61.4s18.1-86,61.4-95.3c43.3-9.4,86,18.1,95.3,61.4c0,0,0,0,0,0
			C2741.3,593.3,2713.8,636,2670.6,645.4z M2642,513.4c-29.6,6.4-48.4,35.6-42,65.2c6.4,29.6,35.6,48.4,65.2,42
			c29.6-6.4,48.4-35.6,42-65.2c0,0,0,0,0,0C2700.8,525.8,2671.6,507,2642,513.4z"/>
		<path class="st1" d="M1452.1,937.4c7.9,36.5-15.3,72.4-51.7,80.3c-36.5,7.9-72.4-15.3-80.3-51.7s15.3-72.4,51.7-80.3c0,0,0,0,0,0
			C1408.3,877.8,1444.2,901,1452.1,937.4z"/>
		<path class="st5" d="M1403.1,1030.1c-43.3,9.4-86-18.1-95.3-61.4s18.1-86,61.4-95.3s86,18.1,95.3,61.4c0,0,0,0,0,0
			C1473.8,978,1446.3,1020.7,1403.1,1030.1z M1374.5,898.1c-29.6,6.4-48.4,35.6-42,65.2c6.4,29.6,35.6,48.4,65.2,42
			c29.6-6.4,48.4-35.6,42-65.2c0,0,0,0,0,0C1433.3,910.5,1404.1,891.7,1374.5,898.1z"/>
		<rect x="1585.4" y="656.4" class="st6" width="201.8" height="38.9"/>
		<rect x="2168.1" y="1039.6" class="st6" width="192.7" height="37.1"/>
		<rect x="2430.9" y="289.5" class="st6" width="177.9" height="34.3"/>
		
			<linearGradient id="SVGID_00000129204056969714890070000005563597179124368807_" gradientUnits="userSpaceOnUse" x1="2218.5513" y1="3.38" x2="2218.5513" y2="1531.4401" gradientTransform="matrix(1 0 0 -1 -106.64 1462.76)">
			<stop  offset="9.741041e-03" style="stop-color:#4AAFFF"/>
			<stop  offset="0.8573" style="stop-color:#469EFF"/>
		</linearGradient>
		<path style="fill:url(#SVGID_00000129204056969714890070000005563597179124368807_);" d="M2457.7,457.5
			c-10.8-10.6-26.5-22-46.9-34.4c-22.7-13.8-46.8-25.4-70.7-36.2c-27.9-12.6-57.5-22.7-87.2-31.2c-31.7-9.1-64.1-15.4-96.9-18.9
			c0.5,113.6,1.1,227.1,1.6,340.7c13.4,2.7,20.2,4,33.6,6.6c58.4,13.3,116.3,28,173.6,45.3c46.2,13.9,92.2,32.7,132.9,58.3
			c34.2,21.5,65.9,50.3,87.2,85.2c23.8,39.2,33.7,82.7,36,126c2.5,47.9-4.4,100.4-28.1,144.9c-22.8,42.2-54.7,78.9-93.4,107.2
			c-43.9,32-93.6,55.7-144.2,72c-57.4,18.5-117.9,28.6-179.3,34.7l1.1,172.5c-33.2,2.6-66.4,5.1-99.5,7.4
			c0.1-59.1,0.3-118.3,0.4-177.4c-87.7-1.9-174.6-12.3-257.2-37.4c-78.2-23.7-151.1-61.1-218.6-109.8
			c33.8-54.9,67.5-109.9,101-165.1c16.7,17.9,37.2,31.8,57.2,44.9c27.7,18,58.8,32.8,89.1,45.4c36.2,15,74.8,26.9,113.1,36.6
			c42.2,10.5,85.3,16.8,128.7,19c0.1-114.3,0.3-228.6,0.5-342.9c-7.2-2.1-14.7-4-22.4-5.7s-15.2-3.5-22.4-5.7
			c-55.8-14.1-112.3-29.2-165-50.9c-41.2-17-80.5-37.7-115-67c-28.9-24.4-51.7-56.7-66.7-91.4c-17-39.3-20.3-83.8-18.7-124.7
			c2-49.8,11.6-102.8,35.3-147.8c21.7-41.2,50-77.4,85.7-105.7c36.3-28.8,79-48.7,124.3-63.1c49.2-15.6,102.2-19.8,154.3-21.5
			c0.2-55.9,0.3-111.7,0.5-167.6c28.7,2.5,57.3,4.8,86,7c0.3,55.3,0.7,110.7,1,166c69.8,9.3,138.4,24.5,203.1,51.4
			c58.2,24.1,115,52.3,167.8,87.5C2512.5,360.5,2485.1,409.1,2457.7,457.5z M1885.8,486.6c-1,40.5,15.1,83.9,49.4,108.5
			c46.5,33.3,102.6,50.2,156.9,65.4c0.2-108.8,0.3-217.6,0.5-326.4c-53.1,1.5-111,5.4-154.6,39.6
			C1904.1,400.4,1886.8,444.9,1885.8,486.6z M2402.7,1032.1c-1.2-43.9-27.2-84.4-66.3-104.1c-55.3-27.8-117.2-45.8-177.8-61.3
			c0.5,108.6,1.1,217.2,1.6,325.8c62.7-5.1,128.1-15.4,181.8-48.9C2379.9,1120,2403.9,1077,2402.7,1032.1z"/>
		<path class="st8" d="M1796.9,1321.9c4.8,20.7,3.9,68.6,3.9,68.6c1.3,45.5-3.8,92.2-5.1,118.3c0,0.8-0.1,1.6-0.1,2.4
			c-0.3,6.2-0.7,12.7-1.2,19.3h340.3c-0.1-6.3-0.2-12.7-0.4-19.3c-0.7-38.5-1.3-80.7-1.4-110.8c77.8-20.5,161.8-47.3,160.2-67
			c-1.6-20.2-62.2-317.2-79.1-329.3c-11.6-8.3-84.1-37.4-121.7-51.6c-17.4-6.6-30.7-11.2-33.4-11.4c-8.6-0.5-114.7,9.6-114.7,9.6
			s-15.2,5.2-30.8,12.3c-26.5,12.2-67.9,31.2-97.6,45.3c-9.6,4.6-21.6,10.7-31.6,16c1.2,36.1,3.3,74.7,6.4,116
			C1795.4,1202.3,1796.4,1230.7,1796.9,1321.9z M2134.1,1356.2c4.2-56.6,21.2-153.7,23.1-160.6c0.1,0,8,7.6,8.1,7.6s2.6,0.4,2.7,0.3
			c0.8,0.2,1.6,0.6,2.4,0.9c0,0,51.5,71.9,52.1,110.6C2222.7,1333.5,2182.4,1346.7,2134.1,1356.2z"/>
		<path class="st9" d="M1781.8,1530.5h44.6c1-6.3,2.1-12.7,3.3-19.3c7.6-42.6,17.5-90.7,22.8-137.9l0,0
			c9.8-87.5,23.3-173.2,30.6-224.2c18.9-132.6,44.2-192,44.2-192c-12.1,3.6-145.3,66.6-145.3,66.6c1.2,36.7,3,76,6.1,118.1
			c0,0,2.9,102.8,8.9,200.3c2.2,14.2,2.8,28.5,1.9,42.8c-1.5,19.1-3.6,39.9-6,61.6c0,0.3-0.1,0.6-0.1,0.8
			c-0.6,5.2-1.2,10.3-1.8,15.6c0,0.1,0,0.1,0,0.2c-1.9,15.8-4,31.9-6.3,48C1783.6,1517.6,1782.7,1524.1,1781.8,1530.5z"/>
		<path class="st9" d="M1909.3,1383.8c10.1,23.9,45,82.9,45,82.9s25.3-6.2,62.4-15.8c2.4,21.1,4.9,40.9,7.3,60.3
			c0.8,6.5,1.6,12.9,2.3,19.3h132.6c-1.6-6.5-3.1-12.9-4.5-19.3c-8.1-35.9-13.8-69.3-14.6-93.7c88.9-25.4,176.1-53.8,174.7-67.4
			c-2-20.2-68.8-331.6-85.7-343.7c-9.8-7-82.2-32.7-117.8-46.7c-6.5-2.6-28.7-10.9-34.5-13.1c-7.5,8.4-59.5,65.8-77.9,282.5
			c-2.3,27,2.4,76.2,7.7,125.5C1952.5,1368.9,1907.5,1379.7,1909.3,1383.8z M2151.7,1306.4c5.4-43.2,11.4-86.6,15.8-101.8
			c0,0,15,30.2,13.8,74.6C2181.1,1288.2,2169.7,1297.4,2151.7,1306.4z"/>
		<path class="st10" d="M2064.6,944.5c0,0-13.5-25.5-9.8-97.9c1-20-105.3,47.6-105.3,47.6s0.4,6.9,0.6,16.2
			c0.1,3.9,0.2,8.1,0.2,12.5c0,1.2,0,2.4,0,3.6c0,2,0,3.9-0.1,5.9c0,2.4-0.1,4.8-0.3,7.1c-0.1,2.6-0.3,5.1-0.5,7.3
			c-0.4,4.4-3,12.1-3.9,14.2C1940.6,972.3,2024.8,972.9,2064.6,944.5z"/>
		<path class="st11" d="M1975.4,990.5l-19.6,26.4c0,0,11.5,15.4,31.9,4L1975.4,990.5z"/>
		<path class="st11" d="M1961.1,1017.9c0,0-71.8,175.4-56.5,398.2l22.7,41.1l25.5-35c0,0,4.1-295.9,24.5-405L1961.1,1017.9z"/>
		<path class="st10" d="M1954.4,965.9l21,24.6c0,0,33.7-6.5,43.6-24.1S1954.4,965.9,1954.4,965.9z"/>
		<path class="st12" d="M1949.6,944.4c0,0,2.4,18.7,25.8,46.1l-25.5,34.3l-13.8-71.1L1949.6,944.4z"/>
		<path class="st12" d="M2058.2,921.9c0,0-48.7,55.1-82.8,68.6l15.8,39.2l77.7-85.8L2058.2,921.9z"/>
		<path class="st9" d="M1557.4,1420.4c0,0,64.7-62.7,107.1-73.1c19.6-4.8,45.4-31.9,70-63.7c8.1-10.5,16-21.5,23.6-32.3l0,0
			c30.1-43.5,53.7-85.1,53.7-85.1s89-104.3,17.6-150.8c0,0-30.6-0.7-47.4,8.4c-17.3,9.4-54.1,86.2-60.3,99.8s-73.8,139.9-78.4,142.8
			s-12.1,13.2-39.1,27.8c-33.1,17.8-85.2,70-85.2,70L1557.4,1420.4z"/>
		<path class="st13" d="M1867.8,1492.9c0,0,9-0.4,12.9-2.4c0,0,6.8-4.3,11.7-7.1c1.3-0.7,2.6-1.4,4-2c4-1.6,13.2-3.9,21.7-10.3
			s36.2-32.4,36.2-32.4l-17.9-27.5l-8.3-27.3c0,0-64.6,6.4-73.2,11.6c-0.8,0.5-1.6,1-2.4,1.6c-6.9,5-9.9,11.7-13.2,14.7
			c-1.2,1.1-12.5,13.2-11.8,18.1c0.9,6.8,4.2,11.1,8.4,13.2c0,0,2.3,13.2,9.1,19.1c0,0,1.7,12.2,12.3,17.2
			C1857.4,1479.2,1860.5,1491.5,1867.8,1492.9z"/>
		<path class="st14" d="M1970.7,659.8c0,0-116.8-28.2-92.2,119.7s52.6,159.9,123.8,130.4c71.2-29.5,66.2-124.1,70.4-170.3
			S2008,662,1970.7,659.8z"/>
		<path class="st14" d="M2032,762.2c1.7-13,27.5-17.4,29.3,2.2s-12.5,53.6-22.2,50.1C2029.5,810.9,2029.7,780.1,2032,762.2z"/>
		<path class="st15" d="M2065.9,815.2c0,0-2.3-46.5-19.3-48.2c-16.9-1.7-19.8,17-19.8,17l-17.2,3c0,0,6-40.7-10.8-48
			s-110.1,20.8-123.6,8.7s-5.8-94.7,19-105.6s93.1-35.3,142.4-0.9c0,0,38.9-3.8,44.2,27.5S2076.8,792,2065.9,815.2z"/>
		<path class="st9" d="M1906.1,1383.9l48.2,82.9c0,0,127.8-32.9,157.6-41.3l-68.2-81.1C2043.7,1344.4,1943.3,1367.2,1906.1,1383.9z"
			/>
		<path class="st16" d="M1949.9,939.5L1949.9,939.5c62.6-6.4,86.9-54.6,86.9-54.6c-39.4,39.1-86.7,37.9-86.7,37.9
			c0,1.2,0.1,2.5,0.1,3.7c0,2,0,3.9-0.1,5.9C1950.1,934.9,1950,937.2,1949.9,939.5z"/>
		<polygon class="st17" points="1858.6,1202.3 1892.7,1519.1 1444.2,1519.1 1410.2,1202.3 		"/>
		<rect x="1853.4" y="1490.6" class="st17" width="74.9" height="28.5"/>
		
			<linearGradient id="SVGID_00000134942193080157852410000012729543427563060617_" gradientUnits="userSpaceOnUse" x1="462.44" y1="99.84" x2="2019.98" y2="99.84" gradientTransform="matrix(1 0 0 -1 0 1627.89)">
			<stop  offset="0.5251" style="stop-color:#FFC05C"/>
			<stop  offset="1" style="stop-color:#E83B68"/>
		</linearGradient>
		
			<rect x="1023.1" y="1518.4" style="fill:url(#SVGID_00000134942193080157852410000012729543427563060617_);" width="1218.8" height="19.3"/>
		
			<linearGradient id="SVGID_00000042731980584052696530000009015638471272504977_" gradientUnits="userSpaceOnUse" x1="1478.04" y1="479.025" x2="1608.04" y2="479.025">
			<stop  offset="0" style="stop-color:#FFC05C"/>
			<stop  offset="0" style="stop-color:#E83B68"/>
		</linearGradient>
		<path style="fill:url(#SVGID_00000042731980584052696530000009015638471272504977_);" d="M1599.8,489.5h-113.6
			c-4.5,0-8.2-4.7-8.2-10.5c0-5.8,3.7-10.5,8.2-10.5h113.6c4.5,0,8.2,4.7,8.2,10.5C1608,484.8,1604.4,489.5,1599.8,489.5z"/>
		
			<linearGradient id="SVGID_00000111192158621838906290000016239312643055224237_" gradientUnits="userSpaceOnUse" x1="1533.04" y1="479.025" x2="1553.04" y2="479.025">
			<stop  offset="0" style="stop-color:#FFC05C"/>
			<stop  offset="0" style="stop-color:#E83B68"/>
		</linearGradient>
		<path style="fill:url(#SVGID_00000111192158621838906290000016239312643055224237_);" d="M1553,425.9v106.3c0,4.2-4.5,7.7-10,7.7
			c-5.5,0-10-3.4-10-7.7V425.9c0-4.2,4.5-7.7,10-7.7C1548.5,418.2,1553,421.6,1553,425.9z"/>
		
			<linearGradient id="SVGID_00000070796649137703990510000006692514434436848789_" gradientUnits="userSpaceOnUse" x1="2278.7102" y1="53.89" x2="2378.7102" y2="53.89">
			<stop  offset="0" style="stop-color:#FFC05C"/>
			<stop  offset="0" style="stop-color:#E83B68"/>
		</linearGradient>
		<path style="fill:url(#SVGID_00000070796649137703990510000006692514434436848789_);" d="M2372.4,62.1H2285
			c-3.5,0-6.3-3.7-6.3-8.2s2.8-8.2,6.3-8.2h87.4c3.5,0,6.3,3.7,6.3,8.2S2375.9,62.1,2372.4,62.1z"/>
		
			<linearGradient id="SVGID_00000005242332778621870320000003009050607236309905_" gradientUnits="userSpaceOnUse" x1="2278.7102" y1="92.09" x2="2378.7102" y2="92.09">
			<stop  offset="0" style="stop-color:#FFC05C"/>
			<stop  offset="0" style="stop-color:#E83B68"/>
		</linearGradient>
		<path style="fill:url(#SVGID_00000005242332778621870320000003009050607236309905_);" d="M2372.4,99.7H2285
			c-3.5,0-6.3-3.4-6.3-7.6s2.8-7.6,6.3-7.6h87.4c3.5,0,6.3,3.4,6.3,7.6S2375.9,99.7,2372.4,99.7z"/>
		
			<linearGradient id="SVGID_00000111161600465660383690000013704676085458383538_" gradientUnits="userSpaceOnUse" x1="2659.4602" y1="842.855" x2="2739.4602" y2="842.855">
			<stop  offset="0" style="stop-color:#FFC05C"/>
			<stop  offset="0" style="stop-color:#E83B68"/>
		</linearGradient>
		<path style="fill:url(#SVGID_00000111161600465660383690000013704676085458383538_);" d="M2734.4,848.4h-69.9
			c-2.8,0-5.1-2.5-5.1-5.6c0-3.1,2.3-5.6,5.1-5.6h69.9c2.8,0,5,2.5,5,5.6C2739.5,845.9,2737.2,848.4,2734.4,848.4z"/>
		
			<linearGradient id="SVGID_00000157994098359222943310000003193560487461259436_" gradientUnits="userSpaceOnUse" x1="1580.0764" y1="859.1856" x2="1580.5764" y2="859.1856">
			<stop  offset="0" style="stop-color:#FFC05C"/>
			<stop  offset="0" style="stop-color:#E83B68"/>
		</linearGradient>
		<path style="fill:url(#SVGID_00000157994098359222943310000003193560487461259436_);" d="M1649.8,853.5c-2,0-4-0.4-5.9-1.1
			c-1.7-0.7-3.4-1.7-4.7-3c-1.3-1.2-2.4-2.7-3.2-4.4c-1.6-3.4-1.6-7.4,0-10.8c0.8-1.7,1.8-3.1,3.2-4.4c1.4-1.3,3-2.2,4.7-2.9
			c3.8-1.5,8-1.5,11.8,0c1.8,0.7,3.4,1.7,4.8,2.9c1.3,1.2,2.4,2.7,3.2,4.4c1.6,3.4,1.6,7.4,0,10.8c-0.8,1.6-1.9,3.1-3.2,4.4
			c-1.4,1.3-3,2.3-4.8,3C1653.8,853.2,1651.9,853.6,1649.8,853.5z M1639.9,887.2l25.7-30l23.7-31.1l5.6,4.9l-24.9,29.4l-24.5,31.7
			L1639.9,887.2z M1649.8,847.5c0.9,0,1.7-0.2,2.5-0.6c1.6-0.9,2.8-2.4,3.4-4.1c0.3-1,0.5-2,0.5-3c0.1-2-0.6-3.9-1.9-5.4
			c-1.1-1.4-2.8-2.2-4.6-2.2c-0.9,0-1.7,0.2-2.5,0.6c-0.8,0.4-1.4,1-2,1.7c-0.6,0.7-1.1,1.5-1.4,2.4c-0.3,0.9-0.5,1.9-0.5,2.9
			c-0.1,2,0.6,3.9,1.9,5.5C1646.4,846.6,1648.1,847.4,1649.8,847.5z M1685,892.5c-2,0-4-0.3-5.9-1.1c-1.7-0.7-3.3-1.7-4.7-2.9
			c-1.3-1.2-2.4-2.7-3.2-4.3c-1.6-3.4-1.6-7.4,0-10.8c0.8-1.7,1.9-3.2,3.2-4.4c1.4-1.3,3-2.3,4.7-3c5.7-2.2,12.1-1.1,16.6,3
			c1.3,1.2,2.4,2.7,3.2,4.4c2.4,5.2,1.1,11.3-3.2,15.2c-1.4,1.2-3,2.2-4.8,2.9C1689,892.1,1687,892.4,1685,892.5L1685,892.5z
			 M1685,886.4c0.9,0,1.7-0.2,2.5-0.6c0.8-0.4,1.4-1,2-1.7c0.6-0.7,1.1-1.5,1.4-2.4c0.7-1.9,0.7-4.1,0-6c-0.3-0.9-0.8-1.7-1.4-2.5
			c-0.5-0.7-1.2-1.2-2-1.6c-0.8-0.4-1.6-0.6-2.5-0.6c-0.9,0-1.7,0.2-2.5,0.6c-0.8,0.4-1.4,1-2,1.7c-0.6,0.7-1.1,1.6-1.4,2.5
			c-0.3,1-0.5,2-0.5,3c-0.1,2,0.6,3.9,1.9,5.4C1681.6,885.5,1683.2,886.3,1685,886.4L1685,886.4z"/>
		
			<linearGradient id="SVGID_00000132806909656309060400000003774676688552741052_" gradientUnits="userSpaceOnUse" x1="1578.6957" y1="859.1856" x2="1579.2014" y2="859.1856">
			<stop  offset="0" style="stop-color:#FFC05C"/>
			<stop  offset="0" style="stop-color:#E83B68"/>
		</linearGradient>
		<path style="fill:url(#SVGID_00000132806909656309060400000003774676688552741052_);" d="M1649.3,853.5c-2,0-4.1-0.4-6-1.1
			c-1.8-0.7-3.4-1.7-4.8-3c-1.3-1.3-2.4-2.8-3.2-4.4c-1.6-3.5-1.6-7.5,0-10.9c0.8-1.7,1.9-3.2,3.2-4.4c1.4-1.3,3-2.3,4.8-3
			c3.8-1.5,8.1-1.5,11.9,0c1.8,0.7,3.4,1.7,4.8,3c1.4,1.2,2.5,2.7,3.2,4.4c1.6,3.5,1.6,7.5,0,10.9c-0.8,1.7-1.9,3.2-3.2,4.4
			c-1.4,1.3-3,2.3-4.8,3C1653.3,853.1,1651.3,853.5,1649.3,853.5z M1639.2,887.6l26-30.3l24-31.5l5.6,5l-25.1,29.7l-24.8,32.1
			L1639.2,887.6z M1649.3,847.3c0.9,0,1.8-0.2,2.5-0.6c1.6-0.9,2.9-2.4,3.5-4.2c0.3-1,0.5-2,0.5-3c0.1-2-0.6-4-1.9-5.5
			c-1.1-1.4-2.8-2.2-4.6-2.3c-0.9,0-1.8,0.2-2.5,0.6c-0.8,0.4-1.4,1-2,1.7c-0.6,0.7-1.1,1.6-1.4,2.4c-0.3,0.9-0.5,1.9-0.5,2.9
			c-0.1,2,0.6,4,1.9,5.5C1645.8,846.4,1647.5,847.3,1649.3,847.3z M1684.8,892.8c-2,0-4.1-0.4-6-1.1c-1.8-0.7-3.4-1.7-4.8-3
			c-1.3-1.2-2.4-2.7-3.2-4.4c-1.6-3.5-1.6-7.5,0-11c0.8-1.7,1.9-3.2,3.2-4.5c1.4-1.3,3-2.3,4.8-3c5.7-2.3,12.2-1.1,16.8,3
			c1.4,1.2,2.5,2.7,3.2,4.4c2.4,5.3,1.1,11.5-3.2,15.3c-1.4,1.3-3.1,2.3-4.8,3C1688.9,892.4,1686.9,892.8,1684.8,892.8L1684.8,892.8
			z M1684.8,886.7c0.9,0,1.8-0.2,2.5-0.6c0.8-0.4,1.4-1,2-1.7c0.6-0.7,1.1-1.5,1.4-2.4c0.7-2,0.7-4.1,0-6.1
			c-0.3-0.9-0.8-1.7-1.4-2.5c-0.6-0.7-1.2-1.3-2-1.7c-0.8-0.4-1.6-0.6-2.5-0.6c-0.9,0-1.8,0.2-2.5,0.6c-0.8,0.4-1.5,1-2,1.7
			c-0.6,0.7-1.1,1.6-1.4,2.5c-0.3,1-0.5,2-0.5,3c-0.1,2,0.6,4,1.9,5.5C1681.4,885.8,1683.1,886.6,1684.8,886.7L1684.8,886.7z"/>
		
			<linearGradient id="SVGID_00000047024737091079412840000001931932665271505803_" gradientUnits="userSpaceOnUse" x1="1576.8566" y1="859.1856" x2="1577.37" y2="859.1856">
			<stop  offset="0" style="stop-color:#FFC05C"/>
			<stop  offset="0" style="stop-color:#E83B68"/>
		</linearGradient>
		<path style="fill:url(#SVGID_00000047024737091079412840000001931932665271505803_);" d="M1648.5,853.4c-2.1,0-4.1-0.4-6.1-1.1
			c-1.8-0.7-3.4-1.8-4.9-3.1c-1.4-1.3-2.5-2.8-3.3-4.5c-1.6-3.5-1.6-7.6,0-11.1c0.8-1.7,1.9-3.2,3.3-4.5c1.4-1.3,3.1-2.3,4.9-3
			c3.9-1.5,8.2-1.5,12.1,0c1.8,0.7,3.5,1.7,4.9,3c1.4,1.3,2.5,2.8,3.3,4.5c1.6,3.5,1.6,7.6,0,11.1c-0.8,1.7-1.9,3.2-3.3,4.5
			c-1.4,1.3-3.1,2.4-4.9,3.1C1652.6,853,1650.6,853.4,1648.5,853.4z M1638.3,888l26.4-30.8l24.3-32l5.7,5.1l-25.5,30.2L1644,893
			L1638.3,888z M1648.5,847.1c0.9,0,1.8-0.2,2.6-0.7c1.7-0.9,2.9-2.4,3.5-4.3c0.4-1,0.5-2,0.5-3.1c0.1-2-0.6-4-2-5.6
			c-1.1-1.4-2.8-2.3-4.7-2.3c-0.9,0-1.8,0.2-2.6,0.7c-0.8,0.5-1.5,1-2.1,1.7c-0.6,0.7-1.1,1.6-1.4,2.5c-0.3,1-0.5,2-0.5,3
			c-0.1,2,0.6,4,2,5.6C1645,846.2,1646.7,847.1,1648.5,847.1z M1684.6,893.3c-2.1,0-4.1-0.4-6.1-1.1c-1.8-0.7-3.4-1.7-4.9-3
			c-1.4-1.2-2.5-2.8-3.3-4.4c-1.6-3.5-1.6-7.6,0-11.1c0.8-1.7,1.9-3.2,3.3-4.5c1.4-1.3,3.1-2.4,4.9-3.1c5.8-2.3,12.4-1.1,17.1,3.1
			c1.4,1.3,2.5,2.8,3.3,4.5c2.4,5.3,1.1,11.7-3.3,15.6c-1.4,1.3-3.1,2.3-4.9,3C1688.8,893,1686.7,893.3,1684.6,893.3L1684.6,893.3z
			 M1684.6,887.1c0.9,0,1.8-0.2,2.6-0.7c0.8-0.5,1.5-1,2.1-1.7c0.6-0.7,1.1-1.6,1.4-2.5c0.7-2,0.7-4.2,0-6.2
			c-0.3-0.9-0.8-1.8-1.5-2.5c-0.6-0.7-1.3-1.3-2.1-1.7c-0.8-0.4-1.6-0.6-2.5-0.6c-0.9,0-1.8,0.2-2.6,0.7c-0.8,0.5-1.5,1-2.1,1.7
			c-0.6,0.7-1.1,1.6-1.5,2.5c-0.3,1-0.5,2-0.5,3.1c-0.1,2,0.6,4,2,5.6C1681.1,886.2,1682.8,887,1684.6,887.1L1684.6,887.1z"/>
		<path class="st27" d="M968.8,687h539.5c20.7,0,37.4,16.8,37.4,37.4v487.7c0,20.7-16.8,37.4-37.4,37.4H968.8
			c-20.7,0-37.4-16.8-37.4-37.4V724.4C931.4,703.7,948.1,687,968.8,687z"/>
		<path class="st28" d="M1159.1,857.4c15.3-42.8-5.2-90.2-46.9-108.4c-1.8-0.8-3.6-1.5-5.4-2.1c-44.9-16.1-94.4,7.3-110.5,52.3
			s7.3,94.4,52.3,110.5C1093.6,925.7,1143,902.3,1159.1,857.4z M1055.9,889.3c-33.5-12.5-50.6-49.8-38.2-83.3
			c12.2-33,48.6-50.1,81.8-38.7c1.4,0.5,2.7,1,4,1.6c32.8,14.2,47.9,52.4,33.7,85.2C1123.7,885.5,1088,900.9,1055.9,889.3
			L1055.9,889.3z"/>
		<path class="st29" d="M1058.4,766.4l-6.4-20.7c-35.2,11-59.5,43.1-60.7,79.9l21.6,0.6C1013.7,798.7,1032,774.7,1058.4,766.4z"/>
		<path class="st30" d="M1103.5,768.9l8.6-19.8c-1.8-0.8-3.6-1.5-5.4-2.1c-17.7-6.4-36.9-6.8-54.9-1.1l6.4,20.7
			c13.4-4.2,27.9-3.9,41.1,0.8C1100.9,767.8,1102.2,768.3,1103.5,768.9z"/>
		<path class="st31" d="M1133.7,762.4c-6.5-5.5-13.7-10-21.5-13.4l-8.6,19.8c5.8,2.5,11.3,5.9,16.1,10L1133.7,762.4z"/>
		<rect x="1404.2" y="1032.8" class="st31" width="30" height="102.7"/>
		<rect x="1359.6" y="1061.7" class="st31" width="30" height="73.9"/>
		<rect x="1447.4" y="985.2" class="st31" width="30" height="150.3"/>
		<polygon class="st31" points="1472.6,910.1 1472,906.9 1392.9,919.8 1367.2,974.5 1281.9,980.3 1254.2,1021.1 1189,1019.5 
			1188.9,1022.8 1256,1024.4 1283.7,983.5 1369.4,977.7 1395.1,922.8 		"/>
		<path class="st30" d="M1375.8,773.2h85.3c5.4,0,9.8-4.4,9.8-9.8l0,0c0-5.4-4.4-9.8-9.8-9.8c0,0,0,0,0,0h-85.3
			c-5.4,0-9.8,4.4-9.8,9.8l0,0l0,0C1366.1,768.9,1370.5,773.2,1375.8,773.2z"/>
		<path class="st31" d="M1375.8,807.2h85.3c5.4,0,9.8-4.4,9.8-9.8l0,0c0-5.4-4.4-9.8-9.8-9.8c0,0,0,0,0,0h-85.3
			c-5.4,0-9.8,4.4-9.8,9.8l0,0C1366.1,802.9,1370.5,807.2,1375.8,807.2z"/>
		<path class="st31" d="M1375.8,841.2h85.3c5.4,0,9.8-4.4,9.8-9.7c0,0,0,0,0,0l0,0c0-5.4-4.4-9.8-9.8-9.8h-85.3
			c-5.4,0-9.7,4.4-9.8,9.8l0,0C1366.1,836.9,1370.5,841.2,1375.8,841.2L1375.8,841.2z"/>
		<polygon class="st31" points="1221.4,790.1 1172.7,790.1 1172.7,788.2 1220.7,788.2 1246.4,762.5 1277.8,762.5 1277.8,764.4 
			1247.1,764.4 		"/>
		<polygon class="st31" points="1267.7,875.3 1204.9,875.3 1184.6,855 1185.9,853.6 1205.7,873.4 1267.7,873.4 		"/>
		<rect x="1251" y="774.9" class="st30" width="65.1" height="8"/>
		<rect x="1231.2" y="856.3" class="st30" width="52.4" height="8"/>
		
			<linearGradient id="SVGID_00000033361458130032492370000015865257852881156502_" gradientUnits="userSpaceOnUse" x1="2272.8301" y1="185.415" x2="2550.5701" y2="185.415" gradientTransform="matrix(1 0 0 -1 0 1627.89)">
			<stop  offset="0" style="stop-color:#FF9F55"/>
			<stop  offset="1" style="stop-color:#FFD255"/>
		</linearGradient>
		<polygon style="fill:url(#SVGID_00000033361458130032492370000015865257852881156502_);" points="2290.8,1630.3 2275.9,1257.5 
			2532.8,1257.5 2547.6,1630.4 2550.6,1630.3 2535.6,1254.5 2272.8,1254.5 2287.8,1630.4 		"/>
		
			<linearGradient id="SVGID_00000182497340105883871080000012932506757458159017_" gradientUnits="userSpaceOnUse" x1="2260.79" y1="185.415" x2="2538.53" y2="185.415" gradientTransform="matrix(1 0 0 -1 0 1627.89)">
			<stop  offset="0" style="stop-color:#FF9F55"/>
			<stop  offset="1" style="stop-color:#FFD255"/>
		</linearGradient>
		<polygon style="fill:url(#SVGID_00000182497340105883871080000012932506757458159017_);" points="2278.6,1257.5 2535.5,1257.5 
			2520.6,1630.3 2523.6,1630.4 2538.5,1254.5 2275.8,1254.5 2260.8,1630.3 2263.7,1630.4 		"/>
		<polygon class="st34" points="2522.1,1509.1 2262.3,1509.1 2277.2,1134.8 2537,1134.8 		"/>
		
			<linearGradient id="SVGID_00000036970283655443725270000017899650739191024256_" gradientUnits="userSpaceOnUse" x1="2534.9175" y1="190.0875" x2="2184.2676" y2="540.7375" gradientTransform="matrix(1 0 0 -1 0 1627.89)">
			<stop  offset="0" style="stop-color:#FF9F55"/>
			<stop  offset="1" style="stop-color:#FFD255"/>
		</linearGradient>
		<polygon style="fill:url(#SVGID_00000036970283655443725270000017899650739191024256_);" points="2296.6,1509.1 2556.4,1509.1 
			2541.5,1134.8 2281.7,1134.8 		"/>
		<rect x="2501.5" y="1364.2" class="st36" width="13.1" height="99.4"/>
		<rect x="2475.7" y="1375.4" class="st36" width="13.1" height="88.2"/>
		<rect x="2447.7" y="1389.8" class="st36" width="13.1" height="73.8"/>
		<rect x="2418.9" y="1408.1" class="st36" width="13.1" height="55.5"/>
		<polygon class="st36" points="2341,1396.3 2338.2,1395.3 2362.8,1326.2 2416.2,1312.1 2435.4,1236.3 2476.6,1218.1 2485.8,1159.2 
			2488.8,1159.6 2479.3,1220.2 2437.9,1238.5 2418.7,1314.6 2365.1,1328.8 		"/>
		<path class="st37" d="M2423.6,1308.3c2.8,3.4,2.3,8.5-1.2,11.3c-3.4,2.8-8.5,2.3-11.3-1.2c-2.8-3.4-2.3-8.4,1.1-11.2
			C2415.8,1304.3,2420.8,1304.8,2423.6,1308.3C2423.6,1308.3,2423.6,1308.3,2423.6,1308.3z"/>
		<path class="st36" d="M2423.4,1320.7c-4.1,3.3-10.1,2.7-13.4-1.3c-3.3-4.1-2.7-10.1,1.3-13.4c4.1-3.3,10.1-2.7,13.4,1.3
			c0,0,0,0,0,0C2428.1,1311.4,2427.5,1317.4,2423.4,1320.7z M2413.3,1308.3c-2.8,2.3-3.2,6.4-0.9,9.2s6.4,3.2,9.2,0.9
			c2.8-2.3,3.2-6.4,0.9-9.2c0,0,0,0,0,0C2420.2,1306.5,2416.1,1306,2413.3,1308.3L2413.3,1308.3z"/>
		<path class="st38" d="M2443.1,1232.8c2.8,3.4,2.3,8.5-1.2,11.3c-3.4,2.8-8.5,2.3-11.3-1.2c-2.8-3.4-2.3-8.4,1.1-11.2
			C2435.2,1228.8,2440.2,1229.3,2443.1,1232.8C2443.1,1232.7,2443.1,1232.8,2443.1,1232.8z"/>
		<path class="st36" d="M2442.9,1245.2c-4.1,3.3-10.1,2.7-13.4-1.3s-2.7-10.1,1.3-13.4c4.1-3.3,10.1-2.7,13.4,1.3c0,0,0,0,0,0
			C2447.5,1235.9,2447,1241.9,2442.9,1245.2z M2432.7,1232.8c-2.8,2.3-3.2,6.4-0.9,9.2c2.3,2.8,6.4,3.2,9.2,0.9
			c2.8-2.3,3.2-6.4,0.9-9.2c0,0,0,0,0,0C2439.6,1230.9,2435.5,1230.5,2432.7,1232.8L2432.7,1232.8z"/>
		<path class="st38" d="M2483.7,1214.1c2.8,3.4,2.3,8.5-1.2,11.3c-3.4,2.8-8.5,2.3-11.3-1.2c-2.8-3.4-2.3-8.4,1.1-11.2
			C2475.8,1210.1,2480.8,1210.6,2483.7,1214.1C2483.6,1214,2483.6,1214.1,2483.7,1214.1z"/>
		<path class="st36" d="M2483.5,1226.5c-4.1,3.3-10.1,2.7-13.4-1.3s-2.7-10.1,1.3-13.4c4.1-3.3,10.1-2.7,13.4,1.3c0,0,0,0,0,0
			C2488.1,1217.2,2487.5,1223.2,2483.5,1226.5z M2473.4,1214.1c-2.8,2.3-3.2,6.4-0.9,9.2s6.4,3.2,9.2,0.9c2.8-2.3,3.2-6.4,0.9-9.2
			c0,0,0,0,0,0C2480.2,1212.2,2476.1,1211.8,2473.4,1214.1z"/>
		<path class="st39" d="M2370.4,1323.1c2.8,3.4,2.3,8.5-1.2,11.3c-3.4,2.8-8.5,2.3-11.3-1.2c-2.8-3.4-2.3-8.4,1.1-11.2
			C2362.6,1319.2,2367.6,1319.7,2370.4,1323.1C2370.4,1323.1,2370.4,1323.1,2370.4,1323.1z"/>
		<path class="st36" d="M2370.2,1335.6c-4.1,3.3-10.1,2.7-13.4-1.3s-2.7-10.1,1.3-13.4c4.1-3.3,10.1-2.7,13.4,1.3c0,0,0,0,0,0
			C2374.9,1326.2,2374.3,1332.2,2370.2,1335.6z M2360.1,1323.1c-2.8,2.3-3.2,6.4-0.9,9.2s6.4,3.2,9.2,0.9c2.8-2.3,3.2-6.4,0.9-9.2
			c0,0,0,0,0,0C2367,1321.3,2362.9,1320.9,2360.1,1323.1z"/>
		<path class="st40" d="M2321.9,1231.3h68.7c3.2,0,5.8,2.6,5.8,5.8v5.1c0,3.2-2.6,5.8-5.8,5.8h-68.7c-3.2,0-5.8-2.6-5.8-5.8v-5.1
			C2316.1,1233.8,2318.7,1231.3,2321.9,1231.3z"/>
		<path class="st40" d="M2321.9,1202.2h68.7c3.2,0,5.8,2.6,5.8,5.8v5.1c0,3.2-2.6,5.8-5.8,5.8h-68.7c-3.2,0-5.8-2.6-5.8-5.8v-5.1
			C2316.1,1204.8,2318.7,1202.2,2321.9,1202.2z"/>
	</g>
</g>
</svg>
