<svg id="Capa_1" data-name="Capa 1" xmlns="http://www.w3.org/2000/svg" xmlns:xlink="http://www.w3.org/1999/xlink" viewBox="0 0 1931.98 1630.43"><defs><style>.cls-1{fill:url(#Degradado_sin_nombre_2);}.cls-2{fill:#fff;}.cls-3{fill:#83beff;}.cls-4{fill:#b8daff;}.cls-5{fill:#cde5ff;}.cls-6{fill:#6bb1ff;}.cls-7{fill:#e0e0e0;}.cls-8{fill:url(#Degradado_sin_nombre_27);}.cls-9{fill:#dbd8e3;}.cls-10{fill:#323657;}.cls-11{fill:#eea987;}.cls-12{fill:#4488d4;}.cls-13{fill:#c4c1cc;}.cls-14{fill:#efaa88;}.cls-15{fill:#eea886;}.cls-16{fill:#16202e;}.cls-17{fill:#a77860;}.cls-18{fill:#ededed;}.cls-19{fill:url(#Degradado_sin_nombre_15);}.cls-20{fill:url(#Degradado_sin_nombre_19);}.cls-21{fill:url(#Degradado_sin_nombre_18);}.cls-22{fill:url(#Degradado_sin_nombre_21);}.cls-23{fill:url(#Degradado_sin_nombre_20);}.cls-24{fill:url(#Degradado_sin_nombre_22);}.cls-25{fill:url(#Degradado_sin_nombre_17);}.cls-26{fill:url(#Degradado_sin_nombre_17-2);}.cls-27{fill:url(#Degradado_sin_nombre_17-3);}.cls-28{fill:#f5f5f5;}.cls-29{fill:#78c3ff;}.cls-30{fill:#1173c2;}.cls-31{fill:#1487e3;}.cls-32{fill:#4aafff;}.cls-33{fill:url(#Degradado_sin_nombre_5);}.cls-34{fill:url(#Degradado_sin_nombre_6);}.cls-35{fill:#c26c23;}.cls-36{fill:url(#Degradado_sin_nombre_7);}.cls-37{fill:#e3f2ff;}.cls-38{fill:#ffb255;}.cls-39{fill:#ffb555;}.cls-40{fill:#ffb455;}.cls-41{fill:#ebebeb;}</style><linearGradient id="Degradado_sin_nombre_2" x1="3188.72" y1="1526.26" x2="905.95" y2="230.75" gradientTransform="matrix(1, 0, 0, -1, -931.38, 1627.89)" gradientUnits="userSpaceOnUse"><stop offset="0" stop-color="#469eff"/><stop offset="1" stop-color="#469eff"/></linearGradient><linearGradient id="Degradado_sin_nombre_27" x1="2218.55" y1="3.38" x2="2218.55" y2="1531.44" gradientTransform="matrix(1, 0, 0, -1, -106.64, 1462.76)" gradientUnits="userSpaceOnUse"><stop offset="0.01" stop-color="#4aafff"/><stop offset="0.86" stop-color="#469eff"/></linearGradient><linearGradient id="Degradado_sin_nombre_15" x1="462.44" y1="99.84" x2="2019.98" y2="99.84" gradientTransform="matrix(1, 0, 0, -1, -931.38, 1627.89)" gradientUnits="userSpaceOnUse"><stop offset="0.53" stop-color="#ffc05c"/><stop offset="1" stop-color="#e83b68"/></linearGradient><linearGradient id="Degradado_sin_nombre_19" x1="1478.04" y1="479.02" x2="1608.04" y2="479.02" gradientUnits="userSpaceOnUse"><stop offset="0" stop-color="#ffc05c"/><stop offset="0" stop-color="#e83b68"/></linearGradient><linearGradient id="Degradado_sin_nombre_18" x1="1533.04" y1="479.02" x2="1553.04" y2="479.02" xlink:href="#Degradado_sin_nombre_19"/><linearGradient id="Degradado_sin_nombre_21" x1="2278.71" y1="53.89" x2="2378.71" y2="53.89" xlink:href="#Degradado_sin_nombre_19"/><linearGradient id="Degradado_sin_nombre_20" x1="2278.71" y1="92.09" x2="2378.71" y2="92.09" xlink:href="#Degradado_sin_nombre_19"/><linearGradient id="Degradado_sin_nombre_22" x1="2659.46" y1="842.85" x2="2739.46" y2="842.85" xlink:href="#Degradado_sin_nombre_19"/><linearGradient id="Degradado_sin_nombre_17" x1="1580.08" y1="859.19" x2="1580.58" y2="859.19" xlink:href="#Degradado_sin_nombre_19"/><linearGradient id="Degradado_sin_nombre_17-2" x1="1578.7" y1="859.19" x2="1579.2" y2="859.19" xlink:href="#Degradado_sin_nombre_19"/><linearGradient id="Degradado_sin_nombre_17-3" x1="1576.86" y1="859.19" x2="1577.37" y2="859.19" xlink:href="#Degradado_sin_nombre_19"/><linearGradient id="Degradado_sin_nombre_5" x1="2272.83" y1="185.41" x2="2550.57" y2="185.41" gradientTransform="matrix(1, 0, 0, -1, -931.38, 1627.89)" gradientUnits="userSpaceOnUse"><stop offset="0" stop-color="#ff9f55"/><stop offset="1" stop-color="#ffd255"/></linearGradient><linearGradient id="Degradado_sin_nombre_6" x1="2260.79" y1="185.41" x2="2538.53" y2="185.41" xlink:href="#Degradado_sin_nombre_5"/><linearGradient id="Degradado_sin_nombre_7" x1="2534.92" y1="190.09" x2="2184.27" y2="540.74" xlink:href="#Degradado_sin_nombre_5"/></defs><g id="Слой_1" data-name="Слой 1"><polygon class="cls-1" points="1931.98 266.08 1931.98 309.2 1732.09 582.15 1351.61 560.68 915.39 1058.16 458.92 959.24 19.13 1374.22 1.74 1355.8 451.24 931.66 906.17 1030.25 1340.71 534.7 1719.69 556.08 1931.98 266.08"/><circle class="cls-2" cx="910.85" cy="1044.03" r="67.53"/><path class="cls-3" d="M1859.12,1122.58a80.19,80.19,0,1,1,61.41-95.35A80.19,80.19,0,0,1,1859.12,1122.58Zm-28.58-132a54.87,54.87,0,1,0,65.24,42h0A54.92,54.92,0,0,0,1830.54,990.58Z" transform="translate(-931.38 0)"/><path class="cls-2" d="M2343.41,537.67A67.53,67.53,0,1,1,2263.12,486h0A67.53,67.53,0,0,1,2343.41,537.67Z" transform="translate(-931.38 0)"/><path class="cls-4" d="M2294.36,630.34a80.19,80.19,0,1,1,61.4-95.35A80.21,80.21,0,0,1,2294.36,630.34Zm-28.58-132a54.87,54.87,0,1,0,65.23,42v0a54.93,54.93,0,0,0-65.21-42Z" transform="translate(-931.38 0)"/><path class="cls-2" d="M2719.62,552.73a67.53,67.53,0,1,1-80.3-51.7h0A67.54,67.54,0,0,1,2719.62,552.73Z" transform="translate(-931.38 0)"/><path class="cls-5" d="M2670.59,645.4a80.19,80.19,0,1,1,61.4-95.35h0A80.29,80.29,0,0,1,2670.59,645.4ZM2642,513.4a54.87,54.87,0,1,0,65.23,42v0A54.94,54.94,0,0,0,2642,513.4Z" transform="translate(-931.38 0)"/><path class="cls-2" d="M1452.1,937.41a67.54,67.54,0,1,1-80.31-51.71h0A67.55,67.55,0,0,1,1452.1,937.41Z" transform="translate(-931.38 0)"/><path class="cls-6" d="M1403.07,1030.08a80.19,80.19,0,1,1,61.4-95.35h0A80.29,80.29,0,0,1,1403.07,1030.08Zm-28.59-132a54.87,54.87,0,1,0,65.24,42h0A54.93,54.93,0,0,0,1374.48,898.08Z" transform="translate(-931.38 0)"/><rect class="cls-7" x="654.07" y="656.41" width="201.83" height="38.86"/><rect class="cls-7" x="1236.71" y="1039.56" width="192.67" height="37.1"/><rect class="cls-7" x="1499.47" y="289.46" width="177.9" height="34.26"/><path class="cls-8" d="M2457.66,457.54c-10.76-10.58-26.49-22-46.92-34.44-22.67-13.78-46.76-25.38-70.7-36.18-27.89-12.59-57.53-22.68-87.22-31.19A573.09,573.09,0,0,0,2156,336.81q.81,170.34,1.63,340.68c13.45,2.68,20.18,4,33.65,6.63,58.4,13.35,116.31,28,173.65,45.29,46.21,13.89,92.22,32.69,132.94,58.3C2532,809.2,2563.75,838,2585,872.91c23.82,39.16,33.73,82.67,36,126,2.47,47.88-4.42,100.37-28.13,144.93A322.09,322.09,0,0,1,2499.5,1251c-43.9,32-93.63,55.68-144.17,72-57.38,18.54-117.95,28.63-179.27,34.69l1.11,172.5q-49.76,3.88-99.53,7.43.22-88.73.43-177.44c-87.73-1.88-174.56-12.33-257.15-37.37-78.17-23.7-151.07-61.09-218.57-109.8q50.78-82.38,101-165.08c16.65,17.88,37.23,31.83,57.22,44.86,27.66,18,58.75,32.82,89.07,45.41,36.17,15,74.77,27,113.08,36.58a677.64,677.64,0,0,0,128.74,19q.23-171.45.46-342.91c-7.18-2.14-14.68-4-22.45-5.67s-15.25-3.52-22.42-5.74c-55.84-14.13-112.35-29.2-165-50.88-41.18-17-80.46-37.68-115-67-28.89-24.41-51.69-56.73-66.69-91.36-17-39.31-20.29-83.85-18.68-124.66,2-49.84,11.57-102.76,35.31-147.81,21.73-41.25,50-77.39,85.65-105.66,36.32-28.76,79-48.73,124.27-63.08,49.24-15.59,102.21-19.8,154.31-21.45L2081.7,0q43,3.69,86,7,.5,83,1,166c69.75,9.34,138.39,24.48,203.13,51.36,58.16,24.15,115,52.31,167.83,87.54Q2498.88,384.88,2457.66,457.54Zm-571.81,29.07c-1,40.51,15.09,83.88,49.43,108.47,46.45,33.26,102.58,50.17,156.92,65.37q.24-163.2.5-326.4c-53.12,1.49-111,5.42-154.58,39.61C1904.08,400.39,1886.83,444.87,1885.85,486.61Zm516.82,545.51c-1.2-43.94-27.2-84.42-66.34-104.11-55.29-27.81-117.16-45.81-177.82-61.28q.79,162.9,1.62,325.8c62.66-5.12,128.14-15.39,181.83-48.87C2379.89,1120,2403.89,1077,2402.67,1032.12Z" transform="translate(-931.38 0)"/><path class="cls-9" d="M1796.86,1321.87c4.76,20.65,3.93,68.61,3.93,68.61,1.3,45.49-3.77,92.21-5.07,118.3,0,.81-.09,1.61-.12,2.43-.33,6.16-.74,12.69-1.19,19.3h340.33c-.12-6.26-.24-12.72-.35-19.3-.68-38.51-1.29-80.7-1.35-110.81,77.78-20.54,161.77-47.35,160.2-67-1.61-20.17-62.21-317.22-79.14-329.34-11.55-8.3-84.08-37.36-121.7-51.64-17.4-6.63-30.66-11.25-33.37-11.41-8.61-.54-114.7,9.63-114.7,9.63s-15.22,5.21-30.76,12.35c-26.54,12.18-67.91,31.21-97.6,45.35-9.59,4.55-21.58,10.73-31.55,16q1.8,54.08,6.4,116C1795.42,1202.26,1796.36,1230.7,1796.86,1321.87Zm337.2,34.36c4.18-56.55,21.24-153.7,23.13-160.57,0,0,8,7.57,8,7.57s2.63.37,2.66.34a19.06,19.06,0,0,1,2.42.91s51.49,71.93,52,110.6C2222.65,1333.52,2182.42,1346.73,2134.06,1356.23Z" transform="translate(-931.38 0)"/><path class="cls-10" d="M1781.78,1530.51h44.58c1-6.28,2.12-12.72,3.27-19.3,7.56-42.57,17.5-90.67,22.8-137.9h0c9.8-87.5,23.29-173.24,30.57-224.18,19-132.62,44.22-192,44.22-192-12.08,3.6-145.29,66.56-145.29,66.56,1.19,36.66,3,76,6.09,118.08,0,0,2.94,102.82,8.86,200.33a195.08,195.08,0,0,1,1.9,42.85c-1.48,19.08-3.55,39.9-6,61.61a6.59,6.59,0,0,1-.09.83c-.6,5.16-1.23,10.34-1.84,15.59v.22c-1.91,15.77-4,31.87-6.27,48Q1783.19,1520.88,1781.78,1530.51Z" transform="translate(-931.38 0)"/><path class="cls-10" d="M1909.28,1383.81c10.13,23.9,45,82.92,45,82.92s25.27-6.19,62.43-15.82c2.45,21.09,4.92,40.93,7.28,60.3.79,6.48,1.58,12.9,2.33,19.3H2158.9q-2.36-9.73-4.5-19.3c-8.1-35.9-13.78-69.31-14.61-93.68,88.91-25.39,176.05-53.84,174.7-67.45-2-20.15-68.78-331.56-85.72-343.68-9.76-7-82.24-32.71-117.79-46.72-6.5-2.57-28.68-10.9-34.51-13.12-7.54,8.39-59.53,65.77-77.9,282.53-2.28,27,2.45,76.17,7.7,125.48C1952.48,1368.94,1907.55,1379.73,1909.28,1383.81Zm242.44-77.36c5.35-43.18,11.42-86.63,15.81-101.83,0,0,15,30.25,13.83,74.62C2181.13,1288.2,2169.72,1297.39,2151.72,1306.45Z" transform="translate(-931.38 0)"/><path class="cls-11" d="M2064.59,944.46s-13.49-25.5-9.76-97.89c1-20.05-105.34,47.56-105.34,47.56s.37,6.91.6,16.24c.12,3.88.19,8.14.19,12.51v3.62c0,2,0,3.94-.07,5.9,0,2.43-.14,4.81-.26,7.1-.12,2.61-.3,5.08-.54,7.34-.44,4.37-3,12.09-3.94,14.2C1940.57,972.3,2024.77,972.94,2064.59,944.46Z" transform="translate(-931.38 0)"/><path class="cls-12" d="M1975.42,990.5l-19.61,26.37s11.49,15.38,31.88,4Z" transform="translate(-931.38 0)"/><path class="cls-12" d="M1961.06,1017.87s-71.82,175.42-56.5,398.24l22.65,41.11,25.54-35s4.13-295.93,24.51-405Z" transform="translate(-931.38 0)"/><path class="cls-11" d="M1954.43,965.94l21,24.56s33.68-6.53,43.57-24.13S1954.43,965.94,1954.43,965.94Z" transform="translate(-931.38 0)"/><path class="cls-13" d="M1949.61,944.45s2.44,18.72,25.81,46l-25.51,34.26-13.8-71.08Z" transform="translate(-931.38 0)"/><path class="cls-13" d="M2058.19,921.93s-48.71,55.1-82.77,68.57l15.84,39.18L2069,943.92Z" transform="translate(-931.38 0)"/><path class="cls-10" d="M1557.45,1420.38s64.66-62.7,107.06-73.14c19.6-4.82,45.42-31.88,70-63.69,8.08-10.48,16-21.47,23.56-32.35h0c30.1-43.46,53.69-85.12,53.69-85.12s89-104.27,17.57-150.75c0,0-30.6-.66-47.38,8.45-17.26,9.37-54.08,86.2-60.32,99.81s-73.85,140-78.38,142.79-12.07,13.23-39.13,27.8c-33.12,17.83-85.15,70-85.15,70Z" transform="translate(-931.38 0)"/><path class="cls-14" d="M1867.8,1493s9-.37,12.9-2.45c0,0,6.76-4.34,11.74-7.13a39.26,39.26,0,0,1,4-2c4-1.58,13.21-3.86,21.71-10.35s36.22-32.41,36.22-32.41l-17.91-27.53-8.27-27.27s-64.62,6.42-73.24,11.55a23.33,23.33,0,0,0-2.37,1.59c-6.88,5-9.88,11.69-13.19,14.74-1.21,1.13-12.46,13.18-11.83,18.07.86,6.78,4.21,11.13,8.42,13.19,0,0,2.28,13.21,9.11,19.11,0,0,1.71,12.25,12.29,17.18C1857.36,1479.25,1860.46,1491.48,1867.8,1493Z" transform="translate(-931.38 0)"/><path class="cls-15" d="M1970.69,659.81s-116.8-28.15-92.19,119.72,52.61,159.88,123.76,130.39,66.2-124.06,70.44-170.34S2008.05,662,1970.69,659.81Z" transform="translate(-931.38 0)"/><path class="cls-15" d="M2032.05,762.22c1.74-13,27.52-17.38,29.31,2.16s-12.48,53.57-22.19,50.06S2029.66,780.13,2032.05,762.22Z" transform="translate(-931.38 0)"/><path class="cls-16" d="M2065.88,815.17s-2.34-46.51-19.29-48.21-19.84,17-19.84,17l-17.18,3s6-40.65-10.83-48-110.13,20.81-123.56,8.66-5.81-94.68,19-105.62,93.08-35.28,142.37-.86c0,0,38.86-3.85,44.16,27.55S2076.77,792,2065.88,815.17Z" transform="translate(-931.38 0)"/><path class="cls-10" d="M1906.1,1383.87l48.22,82.91s127.76-32.92,157.57-41.32l-68.15-81.11S1943.28,1367.25,1906.1,1383.87Z" transform="translate(-931.38 0)"/><path class="cls-17" d="M1949.93,939.5h0c62.64-6.38,86.93-54.61,86.93-54.61-39.41,39.06-86.68,37.91-86.68,37.91,0,1.21.06,2.5.06,3.7,0,2,0,3.94-.07,5.9C1950.14,934.87,1950.05,937.21,1949.93,939.5Z" transform="translate(-931.38 0)"/><polygon class="cls-18" points="927.21 1202.29 961.27 1519.05 512.84 1519.05 478.77 1202.29 927.21 1202.29"/><rect class="cls-18" x="922.07" y="1490.55" width="74.9" height="28.5"/><rect class="cls-19" x="91.73" y="1518.4" width="1218.83" height="19.3"/><path class="cls-20" d="M1599.83,489.52H1486.25c-4.53,0-8.21-4.7-8.21-10.5s3.68-10.5,8.21-10.5h113.58c4.53,0,8.21,4.71,8.21,10.5S1604.36,489.52,1599.83,489.52Z" transform="translate(-931.38 0)"/><path class="cls-21" d="M1553,425.88V532.17c0,4.24-4.48,7.68-10,7.68s-10-3.44-10-7.68V425.88c0-4.24,4.48-7.68,10-7.68S1553,421.64,1553,425.88Z" transform="translate(-931.38 0)"/><path class="cls-22" d="M2372.39,62.11H2285c-3.49,0-6.32-3.69-6.32-8.22s2.83-8.22,6.32-8.22h87.36c3.49,0,6.32,3.69,6.32,8.22S2375.88,62.11,2372.39,62.11Z" transform="translate(-931.38 0)"/><path class="cls-23" d="M2372.39,99.72H2285c-3.49,0-6.32-3.42-6.32-7.63s2.83-7.63,6.32-7.63h87.36c3.49,0,6.32,3.41,6.32,7.63S2375.88,99.72,2372.39,99.72Z" transform="translate(-931.38 0)"/><path class="cls-24" d="M2734.41,848.44h-69.89a5.61,5.61,0,0,1,0-11.17h69.89a5.61,5.61,0,0,1,0,11.17Z" transform="translate(-931.38 0)"/><path class="cls-25" d="M1649.85,853.55a15.77,15.77,0,0,1-5.92-1.09,15.15,15.15,0,0,1-4.73-3,14.19,14.19,0,0,1-3.19-4.37,13,13,0,0,1,0-10.79,13.5,13.5,0,0,1,3.19-4.37,15.52,15.52,0,0,1,4.73-2.92,16.52,16.52,0,0,1,11.79,0,15.26,15.26,0,0,1,4.78,2.92,13.5,13.5,0,0,1,3.19,4.37,13,13,0,0,1,0,10.79,14.19,14.19,0,0,1-3.19,4.37,15.08,15.08,0,0,1-4.78,3A15.92,15.92,0,0,1,1649.85,853.55Zm-9.92,33.69,25.67-30,23.68-31.14,5.55,4.92L1670,860.43l-24.49,31.69Zm9.92-39.79a5,5,0,0,0,2.51-.64,7.62,7.62,0,0,0,3.45-4.14,8.53,8.53,0,0,0,.51-3,8,8,0,0,0-1.92-5.42,5.82,5.82,0,0,0-4.55-2.23,5.08,5.08,0,0,0-2.5.64,7.68,7.68,0,0,0-2,1.68,7.54,7.54,0,0,0-1.41,2.42,8.75,8.75,0,0,0,1.41,8.37A5.75,5.75,0,0,0,1649.85,847.45Zm35.15,45a15.74,15.74,0,0,1-5.92-1.09,15.57,15.57,0,0,1-4.74-2.92,13.68,13.68,0,0,1-3.18-4.32,12.91,12.91,0,0,1,0-10.84,14.39,14.39,0,0,1,3.2-4.41,15.38,15.38,0,0,1,4.74-3,16,16,0,0,1,16.62,3,13.33,13.33,0,0,1,3.18,4.37,13.06,13.06,0,0,1-3.18,15.16,16.3,16.3,0,0,1-4.78,2.92,15.7,15.7,0,0,1-5.94,1.11Zm0-6.1a5,5,0,0,0,2.5-.64,7.68,7.68,0,0,0,2-1.68,7.36,7.36,0,0,0,1.41-2.42,8.83,8.83,0,0,0,0-6,9,9,0,0,0-1.42-2.46,6.33,6.33,0,0,0-2-1.64,5.4,5.4,0,0,0-2.46-.59,5.12,5.12,0,0,0-2.51.64,7.52,7.52,0,0,0-2,1.68,7.75,7.75,0,0,0-1.42,2.46,8.75,8.75,0,0,0-.5,3,8,8,0,0,0,1.92,5.42,5.8,5.8,0,0,0,4.48,2.21Z" transform="translate(-931.38 0)"/><path class="cls-26" d="M1649.27,853.49a16,16,0,0,1-6-1.11,15.17,15.17,0,0,1-4.78-3,14.65,14.65,0,0,1-3.23-4.42,13.1,13.1,0,0,1,0-10.92,13.82,13.82,0,0,1,3.23-4.42,15.73,15.73,0,0,1,4.78-3,16.69,16.69,0,0,1,11.93,0,15.46,15.46,0,0,1,4.83,3,13.53,13.53,0,0,1,3.23,4.42,13.1,13.1,0,0,1,0,10.92,14.48,14.48,0,0,1-3.23,4.42,14.93,14.93,0,0,1-4.83,3A16.1,16.1,0,0,1,1649.27,853.49Zm-10,34.07,26-30.34,24-31.5,5.61,5-25.15,29.74-24.77,32.06Zm10-40.25a5,5,0,0,0,2.54-.64,7.71,7.71,0,0,0,3.49-4.19,8.7,8.7,0,0,0,.52-3,8.12,8.12,0,0,0-2-5.49,5.89,5.89,0,0,0-4.6-2.25,5.12,5.12,0,0,0-2.53.64,8,8,0,0,0-2,1.7,7.73,7.73,0,0,0-1.43,2.45,8.43,8.43,0,0,0-.5,3,8.24,8.24,0,0,0,1.93,5.52A5.79,5.79,0,0,0,1649.27,847.31Zm35.56,45.52a16,16,0,0,1-10.79-4.05,13.82,13.82,0,0,1-3.21-4.37,13.06,13.06,0,0,1,0-11,14.53,14.53,0,0,1,3.23-4.46,15.37,15.37,0,0,1,4.8-3,16.18,16.18,0,0,1,16.81,3,13.79,13.79,0,0,1,3.22,4.42,13.23,13.23,0,0,1-3.22,15.34,16.55,16.55,0,0,1-4.84,3,15.82,15.82,0,0,1-6,1.12Zm0-6.17a5.12,5.12,0,0,0,2.53-.64,8.23,8.23,0,0,0,2-1.7,7.52,7.52,0,0,0,1.42-2.45,8.8,8.8,0,0,0,0-6.07,9,9,0,0,0-1.43-2.49,6.36,6.36,0,0,0-2-1.66,5.56,5.56,0,0,0-2.49-.59,5.1,5.1,0,0,0-2.54.64,7.87,7.87,0,0,0-3.46,4.19,9.22,9.22,0,0,0-.51,3,8.16,8.16,0,0,0,1.94,5.49,5.88,5.88,0,0,0,4.54,2.23Z" transform="translate(-931.38 0)"/><path class="cls-27" d="M1648.5,853.4a16.23,16.23,0,0,1-6.08-1.12,15.63,15.63,0,0,1-4.85-3.08,14.69,14.69,0,0,1-3.28-4.49,13.24,13.24,0,0,1,0-11.08,13.84,13.84,0,0,1,3.28-4.49,15.79,15.79,0,0,1,4.85-3,16.86,16.86,0,0,1,12.11,0,15.76,15.76,0,0,1,4.91,3,13.81,13.81,0,0,1,3.27,4.49,13.24,13.24,0,0,1,0,11.08,14.5,14.5,0,0,1-3.27,4.49,15.43,15.43,0,0,1-4.91,3.08A16.37,16.37,0,0,1,1648.5,853.4ZM1638.32,888l26.35-30.8,24.32-32,5.7,5-25.53,30.2L1644,893Zm10.18-40.85a5.19,5.19,0,0,0,2.58-.66,7.81,7.81,0,0,0,3.54-4.25,9,9,0,0,0,.53-3.08,8.23,8.23,0,0,0-2-5.57,6,6,0,0,0-4.67-2.29,5.19,5.19,0,0,0-2.56.66,8,8,0,0,0-3.51,4.21,8.47,8.47,0,0,0-.51,3,8.36,8.36,0,0,0,2,5.6A5.92,5.92,0,0,0,1648.5,847.14Zm36.1,46.2a16.24,16.24,0,0,1-10.95-4.11,14.17,14.17,0,0,1-3.27-4.44,13.28,13.28,0,0,1,0-11.13,14.89,14.89,0,0,1,3.29-4.53,15.72,15.72,0,0,1,4.87-3.08,16.43,16.43,0,0,1,17.06,3.08,13.81,13.81,0,0,1,3.27,4.49,13.4,13.4,0,0,1-3.27,15.56,16.42,16.42,0,0,1-4.91,3,16.1,16.1,0,0,1-6.09,1.14Zm0-6.26a5.12,5.12,0,0,0,2.56-.66,8.1,8.1,0,0,0,2.06-1.72,7.76,7.76,0,0,0,1.44-2.49,8.94,8.94,0,0,0,0-6.16,9.5,9.5,0,0,0-1.45-2.53,6.57,6.57,0,0,0-2.06-1.68,5.81,5.81,0,0,0-2.52-.61,5.41,5.41,0,0,0-2.58.66,7.58,7.58,0,0,0-2,1.73,7.77,7.77,0,0,0-1.46,2.52,9.27,9.27,0,0,0-.52,3.08,8.23,8.23,0,0,0,2,5.57,6,6,0,0,0,4.6,2.27Z" transform="translate(-931.38 0)"/><rect class="cls-28" y="686.97" width="614.39" height="562.6" rx="37.43"/><path class="cls-29" d="M1159.08,857.39A86.38,86.38,0,0,0,1112.19,749q-2.64-1.14-5.39-2.12a86.42,86.42,0,1,0,52.28,110.48Zm-103.21,31.9a64.79,64.79,0,0,1,43.64-122c1.38.49,2.73,1,4,1.6a64.79,64.79,0,0,1-47.68,120.42Z" transform="translate(-931.38 0)"/><path class="cls-30" d="M1058.36,766.43l-6.44-20.65a86.55,86.55,0,0,0-60.65,79.92l21.62.64A64.86,64.86,0,0,1,1058.36,766.43Z" transform="translate(-931.38 0)"/><path class="cls-31" d="M1103.55,768.87l8.64-19.84q-2.64-1.14-5.39-2.12a86,86,0,0,0-54.86-1.13l6.44,20.65a64.56,64.56,0,0,1,41.13.84C1100.89,767.76,1102.24,768.3,1103.55,768.87Z" transform="translate(-931.38 0)"/><path class="cls-32" d="M1133.7,762.43a86.19,86.19,0,0,0-21.51-13.4l-8.64,19.84a64.69,64.69,0,0,1,16.14,10Z" transform="translate(-931.38 0)"/><rect class="cls-32" x="472.78" y="1032.84" width="29.99" height="102.73"/><rect class="cls-32" x="428.19" y="1061.65" width="29.99" height="73.92"/><rect class="cls-32" x="516.04" y="985.22" width="29.99" height="150.35"/><polygon class="cls-32" points="541.19 910.12 540.66 906.87 461.51 919.84 435.85 974.52 350.51 980.32 322.87 1021.1 257.63 1019.48 257.54 1022.76 324.58 1024.43 352.33 983.49 438 977.67 463.75 922.8 541.19 910.12"/><path class="cls-31" d="M1375.84,773.22h85.29a9.76,9.76,0,0,0,9.76-9.75h0a9.76,9.76,0,0,0-9.75-9.75h-85.3a9.76,9.76,0,0,0-9.75,9.75h0A9.77,9.77,0,0,0,1375.84,773.22Z" transform="translate(-931.38 0)"/><path class="cls-32" d="M1375.84,807.24h85.29a9.76,9.76,0,0,0,9.76-9.75h0a9.76,9.76,0,0,0-9.75-9.75h-85.3a9.76,9.76,0,0,0-9.75,9.75h0A9.77,9.77,0,0,0,1375.84,807.24Z" transform="translate(-931.38 0)"/><path class="cls-32" d="M1375.84,841.25h85.29a9.76,9.76,0,0,0,9.76-9.74h0a9.76,9.76,0,0,0-9.76-9.75h-85.29a9.77,9.77,0,0,0-9.75,9.75h0a9.76,9.76,0,0,0,9.75,9.75Z" transform="translate(-931.38 0)"/><polygon class="cls-32" points="290.07 790.08 241.28 790.08 241.28 788.21 289.29 788.21 314.98 762.53 346.44 762.53 346.44 764.4 315.75 764.4 290.07 790.08"/><polygon class="cls-32" points="336.3 875.3 273.52 875.3 253.18 854.96 254.5 853.63 274.3 873.43 336.3 873.43 336.3 875.3"/><rect class="cls-31" x="319.62" y="774.92" width="65.08" height="7.99"/><rect class="cls-31" x="299.77" y="856.34" width="52.39" height="7.99"/><polygon class="cls-33" points="1359.37 1630.31 1344.52 1257.47 1601.38 1257.47 1616.24 1630.43 1619.19 1630.31 1604.22 1254.52 1341.45 1254.52 1356.42 1630.43 1359.37 1630.31"/><polygon class="cls-34" points="1347.22 1257.47 1604.08 1257.47 1589.23 1630.31 1592.18 1630.43 1607.15 1254.52 1344.38 1254.52 1329.41 1630.31 1332.36 1630.43 1347.22 1257.47"/><polygon class="cls-35" points="1590.7 1509.13 1330.89 1509.13 1345.8 1134.75 1605.62 1134.75 1590.7 1509.13"/><polygon class="cls-36" points="1365.22 1509.13 1625.04 1509.13 1610.13 1134.75 1350.31 1134.75 1365.22 1509.13"/><rect class="cls-37" x="1570.15" y="1364.22" width="13.06" height="99.38"/><rect class="cls-37" x="1544.35" y="1375.36" width="13.06" height="88.25"/><rect class="cls-37" x="1516.32" y="1389.85" width="13.06" height="73.76"/><rect class="cls-37" x="1487.53" y="1408.12" width="13.06" height="55.49"/><polygon class="cls-37" points="1409.61 1396.34 1406.78 1395.33 1431.4 1326.25 1484.8 1312.12 1504 1236.3 1545.21 1218.11 1554.44 1159.15 1557.41 1159.62 1547.92 1220.2 1506.55 1238.46 1487.28 1314.58 1433.7 1328.75 1409.61 1396.34"/><path class="cls-38" d="M2423.63,1308.28a8,8,0,1,1-11.28-1.14,8,8,0,0,1,11.28,1.14Z" transform="translate(-931.38 0)"/><path class="cls-37" d="M2423.44,1320.72a9.52,9.52,0,1,1,1.35-13.4h0A9.53,9.53,0,0,1,2423.44,1320.72Zm-10.14-12.41a6.51,6.51,0,1,0,9.16.92h0a6.52,6.52,0,0,0-9.16-.92Z" transform="translate(-931.38 0)"/><path class="cls-39" d="M2443.07,1232.76a8,8,0,1,1-11.28-1.13,8,8,0,0,1,11.28,1.13Z" transform="translate(-931.38 0)"/><path class="cls-37" d="M2442.89,1245.2a9.52,9.52,0,1,1,1.33-13.4h0A9.53,9.53,0,0,1,2442.89,1245.2Zm-10.15-12.41a6.52,6.52,0,1,0,9.17.93h0a6.55,6.55,0,0,0-9.17-.92Z" transform="translate(-931.38 0)"/><path class="cls-39" d="M2483.65,1214.06a8,8,0,1,1-11.28-1.14,8,8,0,0,1,11.28,1.14Z" transform="translate(-931.38 0)"/><path class="cls-37" d="M2483.47,1226.5a9.52,9.52,0,1,1,1.33-13.4h0A9.55,9.55,0,0,1,2483.47,1226.5Zm-10.11-12.41a6.51,6.51,0,1,0,9.16.92h0A6.52,6.52,0,0,0,2473.36,1214.09Z" transform="translate(-931.38 0)"/><path class="cls-40" d="M2370.43,1323.11a8,8,0,1,1-11.28-1.14,8,8,0,0,1,11.28,1.14Z" transform="translate(-931.38 0)"/><path class="cls-37" d="M2370.25,1335.55a9.52,9.52,0,1,1,1.33-13.4h0A9.53,9.53,0,0,1,2370.25,1335.55Zm-10.14-12.41a6.51,6.51,0,1,0,9.16.92h0A6.51,6.51,0,0,0,2360.11,1323.14Z" transform="translate(-931.38 0)"/><rect class="cls-41" x="1384.72" y="1231.27" width="80.23" height="16.62" rx="5.75"/><rect class="cls-41" x="1384.72" y="1202.22" width="80.23" height="16.62" rx="5.75"/></g></svg>