<svg id="Capa_1" data-name="Capa 1" xmlns="http://www.w3.org/2000/svg" viewBox="0 0 435.94 430.88"><defs><style>.cls-1{fill:#ec8802;}.cls-2{fill:#ea571a;}.cls-3{fill:#e13f13;}</style></defs><path class="cls-1" d="M473.83,379.17a41.78,41.78,0,1,0,41.78,41.77A41.78,41.78,0,0,0,473.83,379.17Z" transform="translate(-79.67 -205.5)"/><circle class="cls-1" cx="387.96" cy="258.67" r="41.77" transform="translate(-128.72 -109.45) rotate(-13.28)"/><path class="cls-1" d="M374.56,342.2a26.73,26.73,0,1,0,36.52,9.71A26.72,26.72,0,0,0,374.56,342.2Z" transform="translate(-79.67 -205.5)"/><path class="cls-1" d="M476,332.28a16,16,0,1,0-21.95-5.59A16,16,0,0,0,476,332.28Z" transform="translate(-79.67 -205.5)"/><path class="cls-1" d="M284.23,291.29A26.73,26.73,0,1,0,320.76,301,26.72,26.72,0,0,0,284.23,291.29Z" transform="translate(-79.67 -205.5)"/><path class="cls-1" d="M305.81,235.29a16,16,0,1,0-21.94-5.59A16,16,0,0,0,305.81,235.29Z" transform="translate(-79.67 -205.5)"/><path class="cls-2" d="M207.31,216.9a41.77,41.77,0,1,0,41.77,41.77A41.77,41.77,0,0,0,207.31,216.9Z" transform="translate(-79.67 -205.5)"/><path class="cls-2" d="M193.9,342.2a26.73,26.73,0,1,0,36.53,9.71A26.72,26.72,0,0,0,193.9,342.2Z" transform="translate(-79.67 -205.5)"/><path class="cls-2" d="M388,541.45a41.77,41.77,0,1,0,41.78,41.77A41.77,41.77,0,0,0,388,541.45Z" transform="translate(-79.67 -205.5)"/><path class="cls-2" d="M401.37,499.69A26.73,26.73,0,1,0,364.85,490,26.72,26.72,0,0,0,401.37,499.69Z" transform="translate(-79.67 -205.5)"/><path class="cls-2" d="M119.28,304.74a16,16,0,1,0,21.94,5.59A16,16,0,0,0,119.28,304.74Z" transform="translate(-79.67 -205.5)"/><path class="cls-2" d="M481.59,515.21A16,16,0,1,0,476,537.15,16,16,0,0,0,481.59,515.21Z" transform="translate(-79.67 -205.5)"/><path class="cls-2" d="M297.64,380.16a40.79,40.79,0,1,0,40.78,40.78A40.78,40.78,0,0,0,297.64,380.16Z" transform="translate(-79.67 -205.5)"/><path class="cls-3" d="M121.44,379.17a41.78,41.78,0,1,0,41.77,41.77A41.78,41.78,0,0,0,121.44,379.17Z" transform="translate(-79.67 -205.5)"/><path class="cls-3" d="M207.31,541.45a41.77,41.77,0,1,0,41.77,41.77A41.77,41.77,0,0,0,207.31,541.45Z" transform="translate(-79.67 -205.5)"/><path class="cls-3" d="M220.72,499.69A26.73,26.73,0,1,0,184.19,490,26.72,26.72,0,0,0,220.72,499.69Z" transform="translate(-79.67 -205.5)"/><path class="cls-3" d="M119.28,509.61a16,16,0,1,0,21.94,5.6A16,16,0,0,0,119.28,509.61Z" transform="translate(-79.67 -205.5)"/><path class="cls-3" d="M320.76,514.07a26.73,26.73,0,1,0-9.71,36.53A26.73,26.73,0,0,0,320.76,514.07Z" transform="translate(-79.67 -205.5)"/><path class="cls-3" d="M289.46,606.6a16,16,0,1,0,22,5.59A16,16,0,0,0,289.46,606.6Z" transform="translate(-79.67 -205.5)"/></svg>