<svg id="Capa_1" data-name="Capa 1" xmlns="http://www.w3.org/2000/svg" viewBox="0 0 435.94 645.17"><defs><style>.cls-1{font-size:127.35px;fill:#12192c;letter-spacing:-0.02em;}.cls-1,.cls-3{font-family:Titillium-Bold, Titillium Bold;font-weight:700;}.cls-2{letter-spacing:0em;}.cls-3{font-size:57.09px;}.cls-3,.cls-6{fill:#e13f13;}.cls-4{fill:#ec8802;}.cls-5{fill:#ea571a;}</style></defs><text class="cls-1" transform="translate(13.58 570.16)">C<tspan class="cls-2" x="71.18" y="0">OMBE</tspan></text><text class="cls-3" transform="translate(106.59 630.9)">FINANCE</text><path class="cls-4" d="M473.83,272a41.77,41.77,0,1,0,41.78,41.77A41.77,41.77,0,0,0,473.83,272Z" transform="translate(-79.67 -98.36)"/><circle class="cls-4" cx="387.96" cy="151.52" r="41.77" transform="translate(-104.1 -5.17) rotate(-13.28)"/><path class="cls-4" d="M374.56,235.05a26.73,26.73,0,1,0,36.52,9.71A26.72,26.72,0,0,0,374.56,235.05Z" transform="translate(-79.67 -98.36)"/><path class="cls-4" d="M476,225.14a16,16,0,1,0-21.95-5.6A16,16,0,0,0,476,225.14Z" transform="translate(-79.67 -98.36)"/><path class="cls-4" d="M284.23,184.14a26.73,26.73,0,1,0,36.53,9.71A26.74,26.74,0,0,0,284.23,184.14Z" transform="translate(-79.67 -98.36)"/><path class="cls-4" d="M305.81,128.15a16,16,0,1,0-21.94-5.6A16,16,0,0,0,305.81,128.15Z" transform="translate(-79.67 -98.36)"/><path class="cls-5" d="M207.31,109.75a41.78,41.78,0,1,0,41.77,41.77A41.78,41.78,0,0,0,207.31,109.75Z" transform="translate(-79.67 -98.36)"/><path class="cls-5" d="M193.9,235.05a26.73,26.73,0,1,0,36.53,9.71A26.72,26.72,0,0,0,193.9,235.05Z" transform="translate(-79.67 -98.36)"/><path class="cls-5" d="M388,434.3a41.78,41.78,0,1,0,41.78,41.78A41.78,41.78,0,0,0,388,434.3Z" transform="translate(-79.67 -98.36)"/><path class="cls-5" d="M401.37,392.55a26.73,26.73,0,1,0-36.52-9.71A26.72,26.72,0,0,0,401.37,392.55Z" transform="translate(-79.67 -98.36)"/><path class="cls-5" d="M119.28,197.6a16,16,0,1,0,21.94,5.59A16,16,0,0,0,119.28,197.6Z" transform="translate(-79.67 -98.36)"/><path class="cls-5" d="M481.59,408.06A16,16,0,1,0,476,430,16,16,0,0,0,481.59,408.06Z" transform="translate(-79.67 -98.36)"/><path class="cls-5" d="M297.64,273a40.79,40.79,0,1,0,40.78,40.78A40.78,40.78,0,0,0,297.64,273Z" transform="translate(-79.67 -98.36)"/><path class="cls-6" d="M121.44,272a41.77,41.77,0,1,0,41.77,41.77A41.77,41.77,0,0,0,121.44,272Z" transform="translate(-79.67 -98.36)"/><path class="cls-6" d="M207.31,434.3a41.78,41.78,0,1,0,41.77,41.78A41.78,41.78,0,0,0,207.31,434.3Z" transform="translate(-79.67 -98.36)"/><path class="cls-6" d="M220.72,392.55a26.73,26.73,0,1,0-36.53-9.71A26.72,26.72,0,0,0,220.72,392.55Z" transform="translate(-79.67 -98.36)"/><path class="cls-6" d="M119.28,402.47a16,16,0,1,0,21.94,5.59A16,16,0,0,0,119.28,402.47Z" transform="translate(-79.67 -98.36)"/><path class="cls-6" d="M320.76,406.93a26.73,26.73,0,1,0-9.71,36.52A26.73,26.73,0,0,0,320.76,406.93Z" transform="translate(-79.67 -98.36)"/><path class="cls-6" d="M289.46,499.46a16,16,0,1,0,22,5.59A16,16,0,0,0,289.46,499.46Z" transform="translate(-79.67 -98.36)"/></svg>