<svg id="Capa_1" data-name="Capa 1" xmlns="http://www.w3.org/2000/svg" viewBox="0 0 264.34 391.21"><defs><style>.cls-1{font-size:77.22px;fill:#12192c;}.cls-1,.cls-3{font-family:Titillium-Bold, Titillium Bold;font-weight:700;}.cls-2{letter-spacing:-0.02em;}.cls-3{font-size:34.62px;}.cls-3,.cls-6{fill:#e13f13;}.cls-4{fill:#ec8802;}.cls-5{fill:#ea571a;}</style></defs><text class="cls-1" transform="translate(8.24 345.72)"><tspan class="cls-2">C</tspan><tspan x="43.16" y="0">OMBE</tspan></text><text class="cls-3" transform="translate(64.63 382.56)">FINANCE</text><path class="cls-4" d="M404.48,330.65A25.33,25.33,0,1,0,429.81,356,25.33,25.33,0,0,0,404.48,330.65Z" transform="translate(-165.47 -225.34)"/><circle class="cls-4" cx="352.41" cy="257.58" r="25.33" transform="translate(-215.22 -137.48) rotate(-13.28)"/><path class="cls-4" d="M344.28,308.23a16.2,16.2,0,1,0,22.15,5.88A16.2,16.2,0,0,0,344.28,308.23Z" transform="translate(-165.47 -225.34)"/><path class="cls-4" d="M405.79,302.21a9.71,9.71,0,1,0-13.31-3.39A9.7,9.7,0,0,0,405.79,302.21Z" transform="translate(-165.47 -225.34)"/><path class="cls-4" d="M289.51,277.36a16.21,16.21,0,1,0,22.15,5.88A16.2,16.2,0,0,0,289.51,277.36Z" transform="translate(-165.47 -225.34)"/><path class="cls-4" d="M302.6,243.4A9.71,9.71,0,1,0,289.29,240,9.7,9.7,0,0,0,302.6,243.4Z" transform="translate(-165.47 -225.34)"/><path class="cls-5" d="M242.87,232.25a25.33,25.33,0,1,0,25.33,25.33A25.33,25.33,0,0,0,242.87,232.25Z" transform="translate(-165.47 -225.34)"/><path class="cls-5" d="M234.73,308.23a16.2,16.2,0,1,0,22.15,5.88A16.2,16.2,0,0,0,234.73,308.23Z" transform="translate(-165.47 -225.34)"/><path class="cls-5" d="M352.41,429a25.33,25.33,0,1,0,25.33,25.33A25.34,25.34,0,0,0,352.41,429Z" transform="translate(-165.47 -225.34)"/><path class="cls-5" d="M360.54,403.73a16.21,16.21,0,1,0-22.15-5.89A16.21,16.21,0,0,0,360.54,403.73Z" transform="translate(-165.47 -225.34)"/><path class="cls-5" d="M189.49,285.51a9.71,9.71,0,1,0,13.3,3.4A9.72,9.72,0,0,0,189.49,285.51Z" transform="translate(-165.47 -225.34)"/><path class="cls-5" d="M409.18,413.13a9.71,9.71,0,1,0-3.39,13.31A9.71,9.71,0,0,0,409.18,413.13Z" transform="translate(-165.47 -225.34)"/><path class="cls-5" d="M297.64,331.25A24.73,24.73,0,1,0,322.37,356,24.73,24.73,0,0,0,297.64,331.25Z" transform="translate(-165.47 -225.34)"/><path class="cls-6" d="M190.8,330.65A25.33,25.33,0,1,0,216.13,356,25.33,25.33,0,0,0,190.8,330.65Z" transform="translate(-165.47 -225.34)"/><path class="cls-6" d="M242.87,429a25.33,25.33,0,1,0,25.33,25.33A25.34,25.34,0,0,0,242.87,429Z" transform="translate(-165.47 -225.34)"/><path class="cls-6" d="M251,403.73a16.21,16.21,0,1,0-22.15-5.89A16.2,16.2,0,0,0,251,403.73Z" transform="translate(-165.47 -225.34)"/><path class="cls-6" d="M189.49,409.74a9.71,9.71,0,1,0,13.3,3.39A9.72,9.72,0,0,0,189.49,409.74Z" transform="translate(-165.47 -225.34)"/><path class="cls-6" d="M311.66,412.45a16.21,16.21,0,1,0-5.89,22.14A16.2,16.2,0,0,0,311.66,412.45Z" transform="translate(-165.47 -225.34)"/><path class="cls-6" d="M292.68,468.55A9.71,9.71,0,1,0,306,471.94,9.71,9.71,0,0,0,292.68,468.55Z" transform="translate(-165.47 -225.34)"/></svg>