<svg id="Capa_1" data-name="Capa 1" xmlns="http://www.w3.org/2000/svg" viewBox="0 0 264.34 261.27"><defs><style>.cls-1{fill:#ec8802;}.cls-2{fill:#ea571a;}.cls-3{fill:#e13f13;}</style></defs><path class="cls-1" d="M404.48,395.62a25.33,25.33,0,1,0,25.33,25.32A25.33,25.33,0,0,0,404.48,395.62Z" transform="translate(-165.47 -290.31)"/><circle class="cls-1" cx="352.41" cy="322.55" r="25.33" transform="translate(-230.15 -200.71) rotate(-13.28)"/><path class="cls-1" d="M344.28,373.2a16.2,16.2,0,1,0,22.15,5.88A16.2,16.2,0,0,0,344.28,373.2Z" transform="translate(-165.47 -290.31)"/><path class="cls-1" d="M405.79,367.18a9.71,9.71,0,1,0-13.31-3.39A9.71,9.71,0,0,0,405.79,367.18Z" transform="translate(-165.47 -290.31)"/><path class="cls-1" d="M289.51,342.33a16.2,16.2,0,1,0,22.15,5.88A16.2,16.2,0,0,0,289.51,342.33Z" transform="translate(-165.47 -290.31)"/><path class="cls-1" d="M302.6,308.37A9.71,9.71,0,1,0,289.29,305,9.71,9.71,0,0,0,302.6,308.37Z" transform="translate(-165.47 -290.31)"/><path class="cls-2" d="M242.87,297.22a25.33,25.33,0,1,0,25.33,25.33A25.33,25.33,0,0,0,242.87,297.22Z" transform="translate(-165.47 -290.31)"/><path class="cls-2" d="M234.73,373.2a16.2,16.2,0,1,0,22.15,5.88A16.2,16.2,0,0,0,234.73,373.2Z" transform="translate(-165.47 -290.31)"/><path class="cls-2" d="M352.41,494a25.33,25.33,0,1,0,25.33,25.33A25.33,25.33,0,0,0,352.41,494Z" transform="translate(-165.47 -290.31)"/><path class="cls-2" d="M360.54,468.69a16.2,16.2,0,1,0-22.15-5.88A16.21,16.21,0,0,0,360.54,468.69Z" transform="translate(-165.47 -290.31)"/><path class="cls-2" d="M189.49,350.48a9.71,9.71,0,1,0,13.3,3.39A9.72,9.72,0,0,0,189.49,350.48Z" transform="translate(-165.47 -290.31)"/><path class="cls-2" d="M409.18,478.1a9.71,9.71,0,1,0-3.39,13.31A9.71,9.71,0,0,0,409.18,478.1Z" transform="translate(-165.47 -290.31)"/><path class="cls-2" d="M297.64,396.22a24.73,24.73,0,1,0,24.73,24.72A24.73,24.73,0,0,0,297.64,396.22Z" transform="translate(-165.47 -290.31)"/><path class="cls-3" d="M190.8,395.62a25.33,25.33,0,1,0,25.33,25.32A25.33,25.33,0,0,0,190.8,395.62Z" transform="translate(-165.47 -290.31)"/><path class="cls-3" d="M242.87,494a25.33,25.33,0,1,0,25.33,25.33A25.33,25.33,0,0,0,242.87,494Z" transform="translate(-165.47 -290.31)"/><path class="cls-3" d="M251,468.69a16.2,16.2,0,1,0-22.15-5.88A16.2,16.2,0,0,0,251,468.69Z" transform="translate(-165.47 -290.31)"/><path class="cls-3" d="M189.49,474.71a9.71,9.71,0,1,0,13.3,3.39A9.71,9.71,0,0,0,189.49,474.71Z" transform="translate(-165.47 -290.31)"/><path class="cls-3" d="M311.66,477.41a16.21,16.21,0,1,0-5.89,22.15A16.21,16.21,0,0,0,311.66,477.41Z" transform="translate(-165.47 -290.31)"/><path class="cls-3" d="M292.68,533.52A9.71,9.71,0,1,0,306,536.91,9.71,9.71,0,0,0,292.68,533.52Z" transform="translate(-165.47 -290.31)"/></svg>